<svg width="18" height="24" viewBox="0 0 18 24" fill="none" xmlns="http://www.w3.org/2000/svg">
<path fill-rule="evenodd" clip-rule="evenodd" d="M13.43 6.22917C13.43 6.44466 13.3444 6.65132 13.192 6.80369C13.0397 6.95606 12.833 7.04167 12.6175 7.04167C12.402 7.04167 12.1954 6.95606 12.043 6.80369C11.8906 6.65132 11.805 6.44466 11.805 6.22917V4.60417C11.805 3.81404 11.4911 3.05628 10.9324 2.49758C10.3737 1.93888 9.61597 1.625 8.82585 1.625C8.03572 1.625 7.27796 1.93888 6.71926 2.49758C6.16055 3.05628 5.84668 3.81404 5.84668 4.60417V6.22917C5.84668 6.44466 5.76108 6.65132 5.6087 6.80369C5.45633 6.95606 5.24967 7.04167 5.03418 7.04167C4.81869 7.04167 4.61203 6.95606 4.45966 6.80369C4.30728 6.65132 4.22168 6.44466 4.22168 6.22917V4.60417C4.22168 3.38307 4.70676 2.21198 5.57021 1.34853C6.43366 0.48508 7.60474 0 8.82585 0C10.0469 0 11.218 0.48508 12.0815 1.34853C12.9449 2.21198 13.43 3.38307 13.43 4.60417V6.22917Z" fill="#27272A"/>
<path fill-rule="evenodd" clip-rule="evenodd" d="M16.7797 7.6915L17.6463 20.6915C17.6681 21.0244 17.6214 21.3583 17.5091 21.6725C17.3967 21.9866 17.2212 22.2744 16.9933 22.5181C16.7653 22.7618 16.4899 22.9561 16.1839 23.0891C15.8779 23.2222 15.5479 23.291 15.2143 23.2915H2.43743C2.10369 23.2913 1.77354 23.2227 1.46741 23.0898C1.16127 22.9569 0.885684 22.7625 0.657696 22.5188C0.429708 22.2751 0.254176 21.9871 0.141966 21.6728C0.0297559 21.3585 -0.0167428 21.0245 0.00534838 20.6915L0.872015 7.6915C0.913237 7.07454 1.1874 6.49631 1.63897 6.0739C2.09053 5.6515 2.68576 5.4165 3.3041 5.4165H14.3476C14.9659 5.4165 15.5612 5.6515 16.0127 6.0739C16.4643 6.49631 16.7385 7.07454 16.7797 7.6915ZM11.519 10.2135C11.2768 10.7226 10.8952 11.1527 10.4186 11.4537C9.9419 11.7548 9.38965 11.9146 8.82585 11.9146C8.26205 11.9146 7.7098 11.7548 7.23313 11.4537C6.75646 11.1527 6.3749 10.7226 6.13268 10.2135C6.08687 10.1171 6.02253 10.0307 5.94332 9.95918C5.86411 9.88767 5.77159 9.83245 5.67105 9.79669C5.5705 9.76093 5.4639 9.74532 5.35732 9.75076C5.25074 9.75619 5.14627 9.78257 5.04989 9.82838C4.95351 9.87419 4.86709 9.93853 4.79557 10.0177C4.72405 10.0969 4.66884 10.1895 4.63307 10.29C4.59731 10.3906 4.5817 10.4972 4.58714 10.6037C4.59258 10.7103 4.61896 10.8148 4.66477 10.9112C5.0379 11.699 5.62703 12.3648 6.36365 12.8309C7.10027 13.2971 7.9541 13.5446 8.82585 13.5446C9.69759 13.5446 10.5514 13.2971 11.288 12.8309C12.0247 12.3648 12.6138 11.699 12.9869 10.9112C13.0327 10.8148 13.0591 10.7103 13.0646 10.6037C13.07 10.4972 13.0544 10.3906 13.0186 10.29C12.9829 10.1895 12.9276 10.0969 12.8561 10.0177C12.7846 9.93853 12.6982 9.87419 12.6018 9.82838C12.5054 9.78257 12.401 9.75619 12.2944 9.75076C12.1878 9.74532 12.0812 9.76093 11.9806 9.79669C11.8801 9.83245 11.7876 9.88767 11.7084 9.95918C11.6292 10.0307 11.5648 10.1171 11.519 10.2135Z" fill="#27272A"/>
</svg>
