<svg width="24" height="24" viewBox="0 0 24 24" fill="none" xmlns="http://www.w3.org/2000/svg">
<path d="M15.4306 18.3732H8.56935C7.97156 18.3732 7.46535 18.8414 7.46535 19.4397V19.7534H16.5348V19.4397C16.5348 18.8415 16.0284 18.3732 15.4306 18.3732V18.3732ZM13.8533 16.1551H10.1466C9.54885 16.1551 9.04264 16.6234 9.04264 17.2216V17.5846H14.9575V17.2216C14.9575 16.6234 14.4511 16.1552 13.8533 16.1552V16.1551ZM23.6703 12.4819L20.7984 6.33011L22.1977 6.73173C22.2981 6.76018 22.4057 6.74766 22.4969 6.69692C22.5881 6.64618 22.6555 6.56135 22.6843 6.46103C22.7131 6.36074 22.7009 6.25313 22.6505 6.16178C22.6001 6.07043 22.5155 6.00279 22.4153 5.97369L14.0541 3.57444C14.0593 3.51482 14.062 3.45502 14.0624 3.39517C14.0626 2.4419 13.4093 1.61284 12.4826 1.39005C11.5556 1.16711 10.5968 1.6088 10.1638 2.45807L1.80235 0.0588175C1.70233 0.0315356 1.59559 0.0447511 1.50524 0.0956022C1.4149 0.146453 1.34822 0.230846 1.31965 0.330505C1.29112 0.430173 1.30297 0.537061 1.35262 0.628068C1.40227 0.719074 1.48573 0.786888 1.58498 0.816852L3.33074 1.31784L0.302297 7.80492C0.216249 7.82558 0.139648 7.87457 0.0848172 7.94403C0.0299861 8.01349 0.000111956 8.09937 2.7881e-07 8.18786C-0.000591204 9.74814 0.939965 11.1548 2.3821 11.7506C3.82423 12.3463 5.48334 12.0136 6.58429 10.9078C6.94736 10.5538 7.23609 10.1309 7.43354 9.66379C7.63098 9.19671 7.73318 8.69491 7.73413 8.18781C7.73403 8.09452 7.70086 8.00429 7.64051 7.93315C7.58016 7.86201 7.49655 7.81457 7.40453 7.79926L4.54047 1.66499L9.94603 3.21595C9.94074 3.27557 9.93798 3.33538 9.93775 3.39522C9.93913 4.38157 10.6377 5.22931 11.6057 5.41918V15.7116H12.3944V5.41913C12.7012 5.35875 12.9904 5.22957 13.2401 5.04132C13.4898 4.85307 13.6936 4.61065 13.8361 4.33228L19.6027 5.98695L16.5681 12.4875C16.482 12.5081 16.4054 12.5572 16.3506 12.6266C16.2957 12.6961 16.2659 12.782 16.2658 12.8705C16.2652 14.4308 17.2057 15.8375 18.6479 16.4332C20.09 17.0289 21.7491 16.6962 22.8501 15.5905C23.2131 15.2364 23.5019 14.8135 23.6993 14.3464C23.8968 13.8793 23.999 13.3775 23.9999 12.8704C23.9998 12.7771 23.9666 12.6869 23.9063 12.6158C23.8459 12.5446 23.7623 12.4972 23.6703 12.4819ZM6.53155 7.77584H1.17779L3.85464 2.04235L6.53155 7.77584ZM17.4436 12.4584L20.1204 6.72498L22.7973 12.4584H17.4436Z" fill="#27272A"/>
</svg>
