<svg width="24" height="24" viewBox="0 0 24 24" fill="none" xmlns="http://www.w3.org/2000/svg">
<path d="M13.9219 18.3329L13.4953 17.9626C13.2703 17.7704 12.9844 17.6626 12.6844 17.6626H11.3156C10.8234 17.6298 10.4156 18.0329 10.0781 18.3329C9.825 18.5485 9.67031 18.8673 9.65156 19.2048L9.49688 22.111H14.4984L14.3438 19.2048C14.3297 18.8673 14.175 18.5485 13.9219 18.3329ZM12.5297 19.936C12.8062 20.0298 13.0594 19.9688 13.1813 19.922C13.4953 19.8095 13.6781 20.2923 13.3594 20.4095C13.0875 20.5267 12.5859 20.5501 12.2578 20.3907V20.822C12.4828 21.047 13.0078 21.0517 13.1813 20.9532C13.5 20.8407 13.6781 21.3235 13.3594 21.4407C13.0875 21.5579 12.5859 21.5813 12.2578 21.422V21.6563C12.2578 21.797 12.1406 21.9142 12 21.9142C11.8547 21.9142 11.7422 21.797 11.7422 21.6563V21.422C11.4187 21.5813 10.9125 21.5579 10.6406 21.4407C10.3219 21.3235 10.4953 20.8407 10.8188 20.9532C10.9922 21.0517 11.5172 21.047 11.7422 20.822V20.3907C11.4187 20.5501 10.9125 20.5267 10.6406 20.4095C10.3219 20.2923 10.5 19.8095 10.8188 19.922C10.9922 20.0204 11.5172 20.011 11.7422 19.7907V19.3595C11.4187 19.5188 10.9125 19.4954 10.6406 19.3782C10.3219 19.261 10.5 18.7782 10.8188 18.8907C10.9922 18.9892 11.5125 18.9798 11.7422 18.7548V18.5532C11.7422 18.4126 11.8547 18.2954 12 18.2954C12.1406 18.2954 12.2578 18.4126 12.2578 18.5532V18.7548C12.4828 18.9845 13.0078 18.9845 13.1813 18.8907C13.4953 18.7782 13.6781 19.261 13.3594 19.3782C13.0875 19.4907 12.5859 19.5188 12.2578 19.3595V19.7907C12.3422 19.8517 12.4312 19.9032 12.5297 19.936ZM19.1906 3.20165C18.6047 3.15009 17.9906 3.28603 17.3719 3.59071C17.0156 4.99696 18.5578 5.85009 19.6781 4.98759C19.8375 4.85165 20.0953 4.9829 20.0953 5.18446C20.1 5.3204 20.1234 5.45165 20.1609 5.57353C20.2453 5.82196 20.3953 5.9954 20.5031 6.09853C20.5641 6.15478 20.5969 6.23915 20.5828 6.31884C20.5266 6.73134 20.5641 7.14384 20.6859 7.5329C20.9062 8.24071 21.3516 8.70009 21.6937 8.9579C21.8719 9.08446 21.7969 9.39384 21.5766 9.41728C21.0938 9.50165 20.3625 9.51103 19.9359 9.46884C19.3266 9.39853 18.9797 9.54384 18.6328 10.0688C18.5766 10.1532 18.4781 10.2001 18.375 10.1813C17.8453 10.1017 17.2969 10.1438 16.7906 10.2985C16.1859 10.486 15.75 10.7954 15.4875 11.0251C15.4172 11.086 15.3094 11.1048 15.2203 11.0673C14.6297 10.8376 14.1281 10.4063 13.7953 9.86728C13.3031 10.3454 12.675 10.8329 11.9578 10.8938C11.25 10.8329 10.6359 10.3548 10.1391 9.89071C9.84375 10.4345 9.35625 10.861 8.775 11.072C8.68594 11.1048 8.5875 11.086 8.51719 11.0251C8.1375 10.697 7.6875 10.4485 7.21406 10.2985C6.70781 10.1438 6.15937 10.1017 5.62969 10.1813C5.52656 10.1954 5.42812 10.1485 5.37187 10.0642C5.02969 9.53915 4.67813 9.39384 4.06875 9.46415C3.6375 9.50634 2.91562 9.49696 2.42812 9.41259C2.20781 9.38915 2.12812 9.07978 2.31094 8.95321C2.64844 8.6954 3.09844 8.23603 3.31875 7.52821C3.44063 7.13915 3.47344 6.72665 3.42188 6.31415C3.40781 6.22978 3.44062 6.15009 3.50156 6.09384C3.60937 5.99071 3.75938 5.81728 3.84375 5.56884C3.88594 5.44228 3.90938 5.31571 3.90938 5.18446C3.90938 4.97821 4.17188 4.85165 4.32656 4.9829C5.44688 5.8454 6.98438 4.98759 6.63281 3.58603C3.37031 2.05321 0.834375 5.33915 0.046875 9.5204C0.0703125 9.62821 0.154687 9.92821 0.417187 10.0548C0.614062 10.172 0.970312 10.0126 1.02656 10.3267C1.3125 12.2063 3.04688 13.9688 5.26875 13.9735C5.42812 13.9735 5.55937 14.1329 5.51719 14.2876C5.45625 14.5501 5.4375 14.8126 5.45156 15.0657C5.53125 16.1626 6.19219 16.8845 6.4875 17.2313C7.35469 18.2438 7.91719 19.8798 8.16094 22.1063H8.98594L9.14062 19.172C9.16875 18.6938 9.38437 18.2438 9.74531 17.9345L10.1766 17.5642C10.4953 17.2876 10.9031 17.1376 11.325 17.1376H12.6937C13.3219 17.1095 13.8375 17.5267 14.2687 17.9345C14.6297 18.2438 14.85 18.6938 14.8734 19.172L15.0281 22.1063H15.8531C16.0922 19.8845 16.6547 18.2392 17.5266 17.2313C17.8172 16.8892 18.4875 16.1673 18.5578 15.0657C18.5719 14.8079 18.5484 14.5501 18.4922 14.2876C18.4547 14.1329 18.5812 13.9688 18.7406 13.9735C19.2703 13.9642 20.2969 13.8423 21.2625 13.1345C22.5328 12.2017 22.8891 10.861 22.9828 10.3267C23.0391 10.0173 23.3953 10.172 23.5875 10.0548C23.8547 9.92353 23.9391 9.62353 23.9578 9.5204C23.3344 5.97665 21.3797 3.37978 19.1906 3.20165ZM13.5563 14.522C13.9359 14.5313 13.9359 15.0892 13.5563 15.0985C13.1813 15.0892 13.1813 14.5313 13.5563 14.522ZM10.4438 14.522C10.8234 14.5313 10.8234 15.0892 10.4438 15.0985C10.0641 15.0892 10.0641 14.5313 10.4438 14.522ZM18.4172 12.7126C17.7141 13.1298 17.0672 13.6829 16.7109 14.4376L16.1578 15.5485C15.9281 16.0079 15.4641 16.3079 14.9484 16.3267L13.3594 16.3876C12.7828 16.4204 12.225 16.0595 12.0047 15.5251C11.7844 16.0595 11.2219 16.4204 10.65 16.3876L9.06094 16.3267C8.54531 16.3079 8.08125 16.0079 7.85156 15.5438L7.29844 14.4376C7.00312 13.847 6.55781 13.3454 6.00469 12.9845L5.59219 12.7126C5.475 12.6329 5.4375 12.4735 5.51719 12.3563C5.59687 12.2345 5.75625 12.2017 5.87344 12.2813L6.28594 12.5485C6.91406 12.961 7.425 13.5329 7.75781 14.2032L8.31094 15.3095C8.45625 15.6001 8.75156 15.7923 9.07969 15.8017L10.6688 15.8626C11.5453 15.8532 11.6156 15.0985 11.6812 14.4095C11.7094 14.1938 11.6859 13.7017 12 13.697C12.3141 13.697 12.2906 14.1798 12.3187 14.3907C12.3844 15.0845 12.45 15.8532 13.3312 15.8579L14.9203 15.797C15.2484 15.7829 15.5391 15.5954 15.6844 15.3048L16.2375 14.1985C16.575 13.5235 17.0859 12.9517 17.7094 12.5438L18.1219 12.2767C18.4078 12.0938 18.7031 12.5251 18.4172 12.7126ZM9.04688 6.54384C8.27812 5.21728 8.72344 3.56728 9.99375 2.98603C10.6781 2.30165 11.5828 1.87978 12.4922 1.89384C15.0375 1.84696 16.1344 4.93134 14.7 6.84853C14.4844 6.47821 14.3625 6.0704 14.2594 5.64853C14.175 5.3579 13.7906 5.4704 13.5609 5.41415C12.5531 5.30165 11.5688 5.07196 10.6219 4.71571C10.3266 4.62196 10.2703 4.92196 10.2094 5.13759C10.0266 5.78446 9.69844 6.37509 9.27188 6.88603C9.18281 6.77821 9.11719 6.66103 9.04688 6.54384ZM14.2828 7.16259C14.325 7.2329 14.3625 7.3079 14.4094 7.37821C14.3719 8.59696 13.3781 9.88603 12.1875 10.3407C11.7047 10.5001 11.2359 10.0876 10.8609 9.84384C10.1578 9.2954 9.70781 8.51728 9.51094 7.62665V7.40165C10.05 6.79228 10.4625 6.07509 10.7062 5.29696C11.7141 5.64853 12.7406 5.86415 13.8 5.9579C13.9031 6.38446 14.0625 6.7829 14.2828 7.16259Z" fill="#27272A"/>
</svg>
