<svg width="32" height="32" viewBox="0 0 32 32" fill="none" xmlns="http://www.w3.org/2000/svg">
<g clip-path="url(#clip0_427_3683)">
<path d="M0.936107 24.4378H25.4372C25.657 24.4378 25.8694 24.3609 26.0378 24.2208C26.2731 24.0237 31.6413 19.4057 31.9686 9.43711H5.65494C5.32887 18.4859 0.38502 22.7391 0.333643 22.7815C0.0324416 23.036 -0.0783759 23.4517 0.0571302 23.8216C0.191699 24.1906 0.542402 24.4378 0.936107 24.4378ZM31.0624 3.81185H26.3747V2.87431C26.3747 2.34929 25.9622 1.93677 25.4371 1.93677C24.9121 1.93677 24.4996 2.34929 24.4996 2.87431V3.81185H19.7494V2.87431C19.7494 2.34929 19.3369 1.93677 18.8118 1.93677C18.2868 1.93677 17.8743 2.34929 17.8743 2.87431V3.81185H13.1866V2.87431C13.1866 2.34929 12.7741 1.93677 12.2491 1.93677C11.724 1.93677 11.3115 2.34929 11.3115 2.87431V3.81185H6.6238C6.09878 3.81185 5.68626 4.22437 5.68626 4.74939V7.56202H31.9999V4.74939C31.9999 4.22437 31.5874 3.81185 31.0624 3.81185Z" fill="#27272A"/>
<path d="M27.242 25.6583C26.7329 26.0822 26.0939 26.3129 25.4374 26.3129H5.68652V29.1256C5.68652 29.6438 6.10585 30.0631 6.62407 30.0631H31.0627C31.5809 30.0631 32.0002 29.6438 32.0002 29.1256V18.616C30.1926 23.0506 27.6703 25.2998 27.242 25.6583Z" fill="#27272A"/>
</g>
<defs>
<clipPath id="clip0_427_3683">
<rect width="32" height="32" fill="white"/>
</clipPath>
</defs>
</svg>
