<svg width="108" height="108" viewBox="0 0 108 108" fill="none" xmlns="http://www.w3.org/2000/svg">
<rect width="107.4" height="107.4" rx="11.9333" fill="#E8F1FF"/>
<path d="M72.0903 28.5296H64.7632L66.5684 26.7244C67.1923 26.1005 67.1923 25.0918 66.5684 24.4679C65.9446 23.844 64.9358 23.844 64.3119 24.4679L59.7989 28.9942C59.4936 29.2995 59.3343 29.6977 59.3343 30.1224C59.3343 30.5472 59.5069 30.9454 59.7989 31.2507L64.3252 35.777C64.6305 36.0823 65.042 36.2416 65.4535 36.2416C65.8649 36.2416 66.2631 36.0823 66.5817 35.777C67.2056 35.1531 67.2056 34.1444 66.5817 33.5205L64.7765 31.7153H72.1035C76.8688 31.7153 80.7314 35.5912 80.7314 40.3431V45.6924C80.7314 46.5684 81.4481 47.2852 82.3242 47.2852C83.2003 47.2852 83.917 46.5684 83.917 45.6924V40.3431C83.917 33.8258 78.6076 28.5296 72.0903 28.5296ZM82.2047 54.6521H56.0425C55.1664 54.6521 54.4496 55.3688 54.4496 56.2449V82.4072C54.4496 83.2832 55.1664 84 56.0425 84H82.2047C83.0808 84 83.7976 83.2832 83.7976 82.4072V56.2449C83.7976 55.3556 83.0808 54.6521 82.2047 54.6521ZM80.6119 80.8143H57.6353V57.8377H80.6119V80.8143ZM43.5918 72.2263C42.968 71.6025 41.9592 71.6025 41.3353 72.2263C40.7115 72.8502 40.7115 73.859 41.3353 74.4828L43.1405 76.288H35.8135C31.0483 76.288 27.1857 72.4121 27.1857 67.6602V62.3109C27.1857 61.4349 26.4689 60.7181 25.5928 60.7181C24.7168 60.7181 24 61.4349 24 62.3109V67.6602C24 74.1775 29.2962 79.4737 35.8135 79.4737H43.1405L41.3353 81.2789C40.7115 81.9028 40.7115 82.9116 41.3353 83.5354C41.6406 83.8407 42.0521 84 42.4636 84C42.8751 84 43.2733 83.8407 43.5918 83.5354L48.1181 79.0091C48.742 78.3853 48.742 77.3765 48.1181 76.7526L43.5918 72.2263ZM25.7123 27.189C26.137 27.189 26.5485 27.0164 26.8406 26.7244C27.1326 26.4324 27.3051 26.0209 27.3051 25.5962C27.3051 25.1847 27.1326 24.7599 26.8406 24.4679C26.5485 24.1759 26.137 24.0033 25.7123 24.0033C25.2875 24.0033 24.8761 24.1759 24.584 24.4679C24.292 24.7599 24.1195 25.1714 24.1195 25.5962C24.1195 26.0209 24.292 26.4324 24.584 26.7244C24.8893 27.0164 25.2875 27.189 25.7123 27.189ZM38.8001 27.189C39.6761 27.189 40.3929 26.4722 40.3929 25.5962C40.3929 24.7201 39.6761 24.0033 38.8001 24.0033C37.924 24.0033 37.2072 24.7201 37.2072 25.5962C37.2072 26.4722 37.9107 27.189 38.8001 27.189ZM32.2562 27.189C33.1322 27.189 33.849 26.4722 33.849 25.5962C33.849 24.7201 33.1322 24.0033 32.2562 24.0033C31.3801 24.0033 30.6633 24.7201 30.6633 25.5962C30.6633 26.4722 31.3801 27.189 32.2562 27.189ZM45.3307 27.189C46.2067 27.189 46.9235 26.4722 46.9235 25.5962C46.9235 24.7201 46.2067 24.0033 45.3307 24.0033C44.4546 24.0033 43.7378 24.7201 43.7378 25.5962C43.7378 26.4722 44.4546 27.189 45.3307 27.189ZM51.8746 24.0033C51.4631 24.0033 51.0383 24.1759 50.7463 24.4679C50.4543 24.7599 50.2817 25.1714 50.2817 25.5962C50.2817 26.0209 50.4543 26.4324 50.7463 26.7244C51.0383 27.0164 51.4498 27.189 51.8746 27.189C52.2993 27.189 52.7108 27.0164 53.0028 26.7244C53.2948 26.4324 53.4674 26.0209 53.4674 25.5962C53.4674 25.1714 53.2948 24.7599 53.0028 24.4679C52.7108 24.1759 52.2993 24.0033 51.8746 24.0033ZM51.8746 43.635C50.9985 43.635 50.2817 44.3518 50.2817 45.2278C50.2817 46.1039 50.9985 46.8206 51.8746 46.8206C52.7506 46.8206 53.4674 46.1039 53.4674 45.2278C53.4674 44.3385 52.7639 43.635 51.8746 43.635ZM51.8746 37.0911C50.9985 37.0911 50.2817 37.8079 50.2817 38.6839C50.2817 39.56 50.9985 40.2768 51.8746 40.2768C52.7506 40.2768 53.4674 39.56 53.4674 38.6839C53.4674 37.7946 52.7639 37.0911 51.8746 37.0911ZM51.8746 30.5472C50.9985 30.5472 50.2817 31.264 50.2817 32.14C50.2817 33.0161 50.9985 33.7329 51.8746 33.7329C52.7506 33.7329 53.4674 33.0161 53.4674 32.14C53.4674 31.264 52.7639 30.5472 51.8746 30.5472ZM51.8746 50.1656C51.4498 50.1656 51.0383 50.3381 50.7463 50.6302C50.4543 50.9222 50.2817 51.3337 50.2817 51.7584C50.2817 52.1699 50.4543 52.5947 50.7463 52.8867C51.0383 53.1787 51.4498 53.3513 51.8746 53.3513C52.2993 53.3513 52.7108 53.1787 53.0028 52.8867C53.2948 52.5947 53.4674 52.1832 53.4674 51.7584C53.4674 51.3337 53.2948 50.9222 53.0028 50.6302C52.7109 50.3381 52.2993 50.1656 51.8746 50.1656ZM45.3307 53.3513C46.2067 53.3513 46.9235 52.6345 46.9235 51.7584C46.9235 50.8824 46.2067 50.1656 45.3307 50.1656C44.4546 50.1656 43.7378 50.8824 43.7378 51.7584C43.7378 52.6478 44.4546 53.3513 45.3307 53.3513ZM38.8001 53.3513C39.6761 53.3513 40.3929 52.6345 40.3929 51.7584C40.3929 50.8824 39.6761 50.1656 38.8001 50.1656C37.924 50.1656 37.2072 50.8824 37.2072 51.7584C37.2072 52.6478 37.9107 53.3513 38.8001 53.3513ZM32.2562 53.3513C33.1322 53.3513 33.849 52.6345 33.849 51.7584C33.849 50.8824 33.1322 50.1656 32.2562 50.1656C31.3801 50.1656 30.6633 50.8824 30.6633 51.7584C30.6633 52.6478 31.3801 53.3513 32.2562 53.3513ZM25.7123 53.3513C26.137 53.3513 26.5485 53.1787 26.8406 52.8867C27.1326 52.5947 27.3051 52.1832 27.3051 51.7584C27.3051 51.3337 27.1326 50.9222 26.8406 50.6302C26.5485 50.3381 26.137 50.1656 25.7123 50.1656C25.2875 50.1656 24.8761 50.3381 24.584 50.6302C24.292 50.9222 24.1195 51.3337 24.1195 51.7584C24.1195 52.1699 24.292 52.5947 24.584 52.8867C24.8893 53.1787 25.2875 53.3513 25.7123 53.3513ZM25.7123 46.8206C26.5884 46.8206 27.3051 46.1039 27.3051 45.2278C27.3051 44.3518 26.5884 43.635 25.7123 43.635C24.8362 43.635 24.1195 44.3518 24.1195 45.2278C24.1195 46.1039 24.8362 46.8206 25.7123 46.8206ZM25.7123 40.2768C26.5884 40.2768 27.3051 39.56 27.3051 38.6839C27.3051 37.8079 26.5884 37.0911 25.7123 37.0911C24.8362 37.0911 24.1195 37.8079 24.1195 38.6839C24.1195 39.56 24.8362 40.2768 25.7123 40.2768ZM25.7123 33.7329C26.5884 33.7329 27.3051 33.0161 27.3051 32.14C27.3051 31.264 26.5884 30.5472 25.7123 30.5472C24.8362 30.5472 24.1195 31.264 24.1195 32.14C24.1195 33.0161 24.8362 33.7329 25.7123 33.7329Z" fill="#279FF9"/>
</svg>
