<svg width="120" height="120" viewBox="0 0 120 120" fill="none" xmlns="http://www.w3.org/2000/svg">
<path d="M48.12 107.313C70.6176 107.313 88.8554 89.0747 88.8554 66.5772C88.8554 44.0796 70.6176 25.8418 48.12 25.8418C25.6225 25.8418 7.38464 44.0796 7.38464 66.5772C7.38464 89.0747 25.6225 107.313 48.12 107.313Z" fill="#B0EF8F"/>
<path d="M48.5807 98.0625L48.064 97.1821C40.1717 83.7351 19.1989 55.1987 18.987 54.9121L18.6845 54.5011L25.8298 47.4395L48.448 63.2331C62.689 44.7534 75.9748 32.0606 84.6411 24.6485C94.1214 16.5404 100.292 12.8078 100.355 12.772L100.495 12.688H112.615L111.458 13.7191C81.6817 40.2405 49.4077 96.6091 49.0863 97.1754L48.5807 98.0625Z" fill="#3FB536"/>
</svg>
