<svg width="12" height="7" viewBox="0 0 12 7" fill="none" xmlns="http://www.w3.org/2000/svg">
<path fill-rule="evenodd" clip-rule="evenodd" d="M0.21934 0.238709C0.359965 0.0982584 0.550589 0.0193685 0.74934 0.0193685C0.948091 0.0193685 1.13871 0.0982584 1.27934 0.238709L5.74934 4.70871L10.2193 0.238709C10.288 0.165022 10.3708 0.105919 10.4628 0.0649275C10.5548 0.0239355 10.6541 0.0018935 10.7548 0.00011672C10.8555 -0.00166006 10.9555 0.0168648 11.0489 0.0545858C11.1423 0.0923069 11.2272 0.148452 11.2984 0.219671C11.3696 0.290889 11.4257 0.375723 11.4635 0.469111C11.5012 0.562499 11.5197 0.662528 11.5179 0.763231C11.5162 0.863934 11.4941 0.963247 11.4531 1.05525C11.4121 1.14725 11.353 1.23005 11.2793 1.29871L6.27934 6.29871C6.13871 6.43916 5.94809 6.51805 5.74934 6.51805C5.55059 6.51805 5.35997 6.43916 5.21934 6.29871L0.21934 1.29871C0.0788894 1.15808 0 0.967459 0 0.768709C0 0.569958 0.0788894 0.379334 0.21934 0.238709Z" fill="#808089"/>
</svg>
