<svg width="24" height="24" viewBox="0 0 24 24" fill="none" xmlns="http://www.w3.org/2000/svg">
<g clip-path="url(#clip0_589_3247)">
<mask id="mask0_589_3247" style="mask-type:luminance" maskUnits="userSpaceOnUse" x="0" y="0" width="24" height="24">
<path d="M0 0H24V24H0V0Z" fill="white"/>
</mask>
<g mask="url(#mask0_589_3247)">
<path fill-rule="evenodd" clip-rule="evenodd" d="M12 1.25C12.1989 1.25 12.3897 1.32902 12.5303 1.46967C12.671 1.61032 12.75 1.80109 12.75 2V3C12.75 3.138 12.862 3.25 13 3.25C13.1989 3.25 13.3897 3.32902 13.5303 3.46967C13.671 3.61032 13.75 3.80109 13.75 4C13.75 4.19891 13.671 4.38968 13.5303 4.53033C13.3897 4.67098 13.1989 4.75 13 4.75C12.9337 4.75 12.8701 4.77634 12.8232 4.82322C12.7763 4.87011 12.75 4.9337 12.75 5V19C12.75 19.138 12.862 19.25 13 19.25C13.1989 19.25 13.3897 19.329 13.5303 19.4697C13.671 19.6103 13.75 19.8011 13.75 20C13.75 20.1989 13.671 20.3897 13.5303 20.5303C13.3897 20.671 13.1989 20.75 13 20.75C12.9337 20.75 12.8701 20.7763 12.8232 20.8232C12.7763 20.8701 12.75 20.9337 12.75 21V22C12.75 22.1989 12.671 22.3897 12.5303 22.5303C12.3897 22.671 12.1989 22.75 12 22.75C11.8011 22.75 11.6103 22.671 11.4697 22.5303C11.329 22.3897 11.25 22.1989 11.25 22V21.25C11.25 21.1174 11.1973 20.9902 11.1036 20.8964C11.0098 20.8027 10.8826 20.75 10.75 20.75H6C5.27065 20.75 4.57118 20.4603 4.05546 19.9445C3.53973 19.4288 3.25 18.7293 3.25 18V6C3.25 5.27065 3.53973 4.57118 4.05546 4.05546C4.57118 3.53973 5.27065 3.25 6 3.25H10.75C10.8826 3.25 11.0098 3.19732 11.1036 3.10355C11.1973 3.00979 11.25 2.88261 11.25 2.75V2C11.25 1.80109 11.329 1.61032 11.4697 1.46967C11.6103 1.32902 11.8011 1.25 12 1.25ZM11.25 5.25C11.25 5.11739 11.1973 4.99021 11.1036 4.89645C11.0098 4.80268 10.8826 4.75 10.75 4.75H6C5.31 4.75 4.75 5.31 4.75 6V18C4.75 18.69 5.31 19.25 6 19.25H10.75C10.8826 19.25 11.0098 19.1973 11.1036 19.1036C11.1973 19.0098 11.25 18.8826 11.25 18.75V5.25ZM16.25 4C16.25 3.80109 16.329 3.61032 16.4697 3.46967C16.6103 3.32902 16.8011 3.25 17 3.25H18C18.7293 3.25 19.4288 3.53973 19.9445 4.05546C20.4603 4.57118 20.75 5.27065 20.75 6V7C20.75 7.19891 20.671 7.38968 20.5303 7.53033C20.3897 7.67098 20.1989 7.75 20 7.75C19.8011 7.75 19.6103 7.67098 19.4697 7.53033C19.329 7.38968 19.25 7.19891 19.25 7V6C19.25 5.31 18.69 4.75 18 4.75H17C16.8011 4.75 16.6103 4.67098 16.4697 4.53033C16.329 4.38968 16.25 4.19891 16.25 4ZM20 10.25C20.1989 10.25 20.3897 10.329 20.5303 10.4697C20.671 10.6103 20.75 10.8011 20.75 11V13C20.75 13.1989 20.671 13.3897 20.5303 13.5303C20.3897 13.671 20.1989 13.75 20 13.75C19.8011 13.75 19.6103 13.671 19.4697 13.5303C19.329 13.3897 19.25 13.1989 19.25 13V11C19.25 10.8011 19.329 10.6103 19.4697 10.4697C19.6103 10.329 19.8011 10.25 20 10.25ZM20 16.25C20.1989 16.25 20.3897 16.329 20.5303 16.4697C20.671 16.6103 20.75 16.8011 20.75 17V18C20.75 18.7293 20.4603 19.4288 19.9445 19.9445C19.4288 20.4603 18.7293 20.75 18 20.75H17C16.8011 20.75 16.6103 20.671 16.4697 20.5303C16.329 20.3897 16.25 20.1989 16.25 20C16.25 19.8011 16.329 19.6103 16.4697 19.4697C16.6103 19.329 16.8011 19.25 17 19.25H18C18.69 19.25 19.25 18.69 19.25 18V17C19.25 16.8011 19.329 16.6103 19.4697 16.4697C19.6103 16.329 19.8011 16.25 20 16.25Z" fill="#292929"/>
</g>
</g>
<defs>
<clipPath id="clip0_589_3247">
<rect width="24" height="24" fill="white"/>
</clipPath>
</defs>
</svg>
