<svg width="24" height="24" viewBox="0 0 24 24" fill="none" xmlns="http://www.w3.org/2000/svg">
<path d="M4.50006 21C4.50006 21.1989 4.57908 21.3896 4.71973 21.5303C4.86039 21.6709 5.05115 21.75 5.25006 21.75H18.7501C18.949 21.75 19.1397 21.6709 19.2804 21.5303C19.421 21.3896 19.5001 21.1989 19.5001 21V18.75H4.50006V21ZM21.4553 6.15371C21.3436 6.0688 21.2104 6.01679 21.0708 6.00354C20.9311 5.99029 20.7905 6.01632 20.6648 6.07871L15.3938 8.71421L12.6968 1.97171C12.6413 1.83229 12.5452 1.71274 12.421 1.62851C12.2968 1.54429 12.1501 1.49927 12.0001 1.49927C11.85 1.49927 11.7034 1.54429 11.5792 1.62851C11.4549 1.71274 11.3589 1.83229 11.3033 1.97171L8.60631 8.71421L3.33531 6.07871C3.20972 6.01605 3.06908 5.98989 2.92936 6.0032C2.78964 6.01651 2.65646 6.06876 2.54496 6.15401C2.43347 6.23925 2.34812 6.35407 2.29864 6.48541C2.24916 6.61675 2.23753 6.75934 2.26506 6.89696L4.33506 17.25H19.6651L21.7351 6.89696C21.7625 6.75942 21.7509 6.61693 21.7014 6.48568C21.652 6.35444 21.5667 6.23968 21.4553 6.15446V6.15371ZM12.0001 14.25C11.5548 14.195 11.1487 13.9681 10.8684 13.6178C10.5882 13.2674 10.456 12.8214 10.5001 12.375C10.456 11.9285 10.5882 11.4825 10.8684 11.1321C11.1487 10.7818 11.5548 10.5549 12.0001 10.5C12.4453 10.5549 12.8514 10.7818 13.1317 11.1321C13.412 11.4825 13.5442 11.9285 13.5001 12.375C13.5442 12.8214 13.412 13.2674 13.1317 13.6178C12.8514 13.9681 12.4453 14.195 12.0001 14.25Z" fill="#27272A" fill-opacity="0.7"/>
</svg>
