<svg width="24" height="24" viewBox="0 0 24 24" fill="none" xmlns="http://www.w3.org/2000/svg">
<path d="M17.4981 7.30907C17.4981 7.30907 13.2362 12.6545 13.2362 17.6582C13.2362 20.0145 15.149 21.92 17.4981 21.92C19.8471 21.92 21.7599 20.0145 21.7599 17.6582C21.7599 12.6545 17.4981 7.30907 17.4981 7.30907ZM16.1744 14.6218H16.1599C15.9671 14.6218 15.8035 14.4691 15.7962 14.2727C15.7017 11.9891 16.7162 10.0218 16.7599 9.93816C16.8544 9.75998 17.0726 9.69089 17.2508 9.78544C17.429 9.87998 17.4981 10.0982 17.4035 10.2763C17.3926 10.2945 16.4362 12.16 16.5235 14.2436C16.5308 14.4436 16.3744 14.6109 16.1744 14.6218ZM17.949 19.1054C18.0581 19.2763 18.0071 19.4982 17.8362 19.6073C17.7744 19.6473 17.709 19.6654 17.6435 19.6654C17.5235 19.6654 17.4035 19.6073 17.3344 19.4982C17.1099 19.1402 16.9908 18.7262 16.9908 18.3036C16.9908 17.8811 17.1099 17.467 17.3344 17.1091C17.4399 16.9382 17.6653 16.8873 17.8362 16.9963C18.0071 17.1054 18.0581 17.3273 17.949 17.4982C17.7975 17.7389 17.7172 18.0174 17.7172 18.3018C17.7172 18.5862 17.7975 18.8647 17.949 19.1054ZM19.3271 16.8363C19.1271 16.8363 18.9635 16.6727 18.9635 16.4727C18.9635 14.5745 17.9599 12.3563 17.949 12.3345C17.8653 12.1527 17.9453 11.9345 18.1308 11.8509C18.3126 11.7673 18.5308 11.8473 18.6144 12.0327C18.6581 12.1309 19.6908 14.4182 19.6908 16.4727C19.6908 16.6727 19.5271 16.8363 19.3271 16.8363ZM7.65442 5.62544V10.7854C7.65442 11.4545 8.18169 12.04 8.84715 12.0327H8.86169C9.26521 12.0251 9.64956 11.8592 9.93187 11.5707C10.2142 11.2823 10.3718 10.8945 10.3708 10.4909C10.3708 10.2727 10.3271 10.0691 10.2435 9.87998C10.2047 9.78883 10.1933 9.68833 10.2107 9.59079C10.2281 9.49326 10.2737 9.40293 10.3417 9.33089C10.4399 9.22544 10.5781 9.15998 10.7235 9.16725C11.1235 9.18907 11.5271 9.05453 11.8435 8.76725C12.4835 8.1818 12.509 7.15271 11.8944 6.53816C11.8467 6.48734 11.7944 6.44108 11.7381 6.39998C11.3853 6.1418 11.1671 5.7418 11.1671 5.3018V5.20362C11.1671 4.84362 11.3308 4.50907 11.5962 4.2618C11.6071 4.25089 11.6181 4.23998 11.6253 4.22907C12.0071 3.80725 12.0035 3.14907 11.6217 2.73089C11.4957 2.59454 11.3373 2.49209 11.1613 2.43299C10.9853 2.37389 10.7972 2.36004 10.6144 2.39271C10.2544 2.45453 9.87624 2.35634 9.66169 2.0618C9.57805 1.94544 9.51624 1.81816 9.49805 1.67634C9.45881 1.40896 9.32342 1.16506 9.11724 0.990343C8.91107 0.815628 8.64825 0.722089 8.37805 0.727254C7.76715 0.738163 7.28715 1.2618 7.28715 1.87271C7.28715 1.2618 6.81078 0.738163 6.19624 0.727254C5.92618 0.722635 5.66365 0.81637 5.45759 0.990987C5.25153 1.1656 5.11599 1.40919 5.07624 1.67634C5.05805 1.81816 4.99624 1.94907 4.90896 2.06544C4.69442 2.35998 4.31987 2.45816 3.95987 2.39634C3.60715 2.33453 3.22533 2.44725 2.95624 2.73453C2.57442 3.15271 2.57078 3.81089 2.9526 4.23271C2.95987 4.24362 2.97078 4.25453 2.98169 4.26544C3.24714 4.51271 3.41078 4.84725 3.41078 5.20725V5.30544C3.41078 5.73453 3.20714 6.13453 2.86169 6.38544C2.79987 6.43271 2.73805 6.48362 2.68351 6.53816C2.0726 7.15271 2.09805 8.1818 2.73805 8.76725C3.05078 9.05453 3.45442 9.18907 3.85442 9.16725C3.99987 9.15998 4.14169 9.22544 4.23624 9.33089C4.37805 9.47998 4.41078 9.69453 4.33442 9.87998C4.25442 10.0654 4.20714 10.2727 4.20714 10.4909C4.20714 11.3309 4.87987 12.0145 5.71624 12.0327H5.73078C6.39987 12.04 6.92351 11.4545 6.92351 10.7854V5.62544C6.92351 5.42544 7.08715 5.2618 7.28715 5.2618C7.48715 5.2618 7.65442 5.42544 7.65442 5.62544ZM10.3526 4.96725C10.4944 5.10907 10.4944 5.33816 10.3526 5.47998C10.115 5.71928 9.98173 6.04279 9.98173 6.37998C9.98173 6.71717 10.115 7.04069 10.3526 7.27998C10.4033 7.33076 10.4379 7.39548 10.4517 7.46591C10.4656 7.53635 10.4583 7.60932 10.4306 7.67557C10.4029 7.74181 10.3562 7.79834 10.2964 7.83797C10.2365 7.87761 10.1662 7.89856 10.0944 7.89816C9.99987 7.89816 9.90896 7.8618 9.83624 7.79271C9.05805 7.01453 9.05805 5.74544 9.83624 4.96362C9.97805 4.82544 10.2071 4.82544 10.3526 4.96725ZM8.68715 2.59271C8.88715 2.59271 9.05078 2.75634 9.05078 2.95634C9.05078 3.18544 9.23624 3.37089 9.46533 3.37089C9.66533 3.37089 9.82896 3.53453 9.82896 3.73453C9.82896 3.93453 9.66533 4.09816 9.46533 4.09816C8.83624 4.09816 8.32351 3.58544 8.32351 2.95634C8.32351 2.75634 8.48351 2.59271 8.68715 2.59271ZM9.1926 7.85089C9.3926 7.85089 9.55624 8.01453 9.55624 8.21453C9.55624 8.41453 9.3926 8.57816 9.1926 8.57816C8.96351 8.57816 8.77805 8.76362 8.77805 8.99271C8.77805 9.19271 8.61442 9.35635 8.41442 9.35635C8.21442 9.35635 8.05078 9.19271 8.05078 8.99271C8.05078 8.36362 8.56351 7.85089 9.1926 7.85089ZM4.48351 7.9018C4.38896 7.9018 4.29805 7.86544 4.22533 7.79635C4.19162 7.7627 4.16487 7.72274 4.14662 7.67875C4.12838 7.63476 4.11898 7.58761 4.11898 7.53998C4.11898 7.49236 4.12838 7.4452 4.14662 7.40121C4.16487 7.35722 4.19162 7.31726 4.22533 7.28362C4.46289 7.04432 4.5962 6.72081 4.5962 6.38362C4.5962 6.04643 4.46289 5.72291 4.22533 5.48362C4.19166 5.44995 4.16496 5.40998 4.14674 5.366C4.12852 5.32201 4.11914 5.27487 4.11914 5.22725C4.11914 5.17964 4.12852 5.1325 4.14674 5.08851C4.16496 5.04452 4.19166 5.00456 4.22533 4.97089C4.25899 4.93722 4.29896 4.91052 4.34295 4.8923C4.38693 4.87408 4.43408 4.8647 4.48169 4.8647C4.5293 4.8647 4.57645 4.87408 4.62043 4.8923C4.66442 4.91052 4.70439 4.93722 4.73805 4.97089C5.51624 5.74907 5.51624 7.01816 4.73805 7.79998C4.66974 7.86583 4.57839 7.90237 4.48351 7.9018ZM6.16351 10.1673C5.96351 10.1673 5.79987 10.0036 5.79987 9.80362C5.79987 9.57453 5.61442 9.38907 5.38533 9.38907C5.18533 9.38907 5.02169 9.22544 5.02169 9.02544C5.02169 8.82544 5.18533 8.6618 5.38533 8.6618C6.01442 8.6618 6.52715 9.17453 6.52715 9.80362C6.52715 10.0036 6.36351 10.1673 6.16351 10.1673ZM5.38533 4.63998C5.18533 4.63998 5.02169 4.47634 5.02169 4.27634C5.02169 4.07634 5.18533 3.91271 5.38533 3.91271C5.61442 3.91271 5.79987 3.72725 5.79987 3.49816C5.79987 3.29816 5.96351 3.13453 6.16351 3.13453C6.36351 3.13453 6.52715 3.29816 6.52715 3.49816C6.52715 4.12725 6.01442 4.63998 5.38533 4.63998Z" fill="#27272A"/>
<path d="M12.5091 17.6581C12.5091 17.4327 12.52 17.2108 12.5345 16.9854C11.9521 16.7235 11.3503 16.5071 10.7345 16.3381C10.5382 16.2872 10.4218 16.0908 10.4727 15.8945C10.5236 15.6981 10.72 15.5818 10.9163 15.6327C10.9672 15.6472 11.7163 15.8399 12.6109 16.2218C12.6763 15.7381 12.7745 15.2581 12.8945 14.7854C9.97452 13.8508 7.06543 13.8363 7.06543 13.8363C7.06543 13.8363 8.37816 19.6945 11.7963 22.4436C13.16 23.5418 15.0545 23.5199 16.3891 22.5163C14.1672 22.0108 12.5091 20.0254 12.5091 17.6581ZM11.3709 18.7927C11.337 18.839 11.2927 18.8767 11.2415 18.9026C11.1903 18.9285 11.1337 18.9419 11.0763 18.9418C11 18.9418 10.9272 18.9199 10.8618 18.869C9.23634 17.669 8.44361 15.8836 8.41088 15.8072C8.33088 15.6218 8.41452 15.4109 8.59998 15.3272C8.78543 15.2472 8.99997 15.3308 9.07997 15.5163C9.08725 15.5345 9.8327 17.2036 11.2945 18.2836C11.4545 18.4036 11.4872 18.6327 11.3709 18.7927Z" fill="#27272A"/>
</svg>
