<svg width="24" height="24" viewBox="0 0 24 24" fill="none" xmlns="http://www.w3.org/2000/svg">
<path d="M17.8338 11.9995C17.3729 11.9995 17.0005 12.3729 17.0005 12.8328V19.4997C17.0005 19.9588 16.6271 20.333 16.1672 20.333H4.50008C4.04002 20.333 3.66677 19.9588 3.66677 19.4997V7.8326C3.66677 7.37344 4.04002 6.99929 4.50008 6.99929H11.167C11.6278 6.99929 12.0003 6.62592 12.0003 6.16598C12.0003 5.70593 11.6278 5.33252 11.167 5.33252H4.50008C3.12171 5.33252 2 6.45423 2 7.8326V19.4997C2 20.8781 3.12171 21.9998 4.50008 21.9998H16.1672C17.5455 21.9998 18.6672 20.8781 18.6672 19.4997V12.8328C18.6672 12.372 18.2946 11.9995 17.8338 11.9995Z" fill="#279FF9"/>
<path d="M9.81359 11.2405C9.75567 11.2987 9.716 11.3725 9.69944 11.4529L9.11028 14.3998C9.08282 14.5364 9.12614 14.6772 9.22443 14.7764C9.26321 14.815 9.30924 14.8457 9.35987 14.8666C9.4105 14.8874 9.46475 14.8981 9.51951 14.898C9.54608 14.898 9.5737 14.8956 9.60116 14.8898L12.5471 14.3006C12.6288 14.2838 12.7029 14.2448 12.7604 14.1863L19.354 7.59275L16.408 4.64695L9.81359 11.2405ZM21.3906 2.60942C20.5782 1.79686 19.2565 1.79686 18.4447 2.60942L17.2914 3.7627L20.2373 6.70866L21.3906 5.55522C21.784 5.16275 22.0007 4.63933 22.0007 4.08267C22.0007 3.52602 21.784 3.00264 21.3906 2.60942Z" fill="#279FF9"/>
</svg>
