<svg width="32" height="32" viewBox="0 0 32 32" fill="none" xmlns="http://www.w3.org/2000/svg">
<path d="M20.7343 17.3281L18.0542 20.0173C16.9674 21.1079 15.0552 21.1314 13.9449 20.0173L11.2647 17.3281L1.63867 26.9854C1.99698 27.1511 2.39205 27.2499 2.81205 27.2499H29.187C29.607 27.2499 30.002 27.1512 30.3602 26.9854L20.7343 17.3281Z" fill="#27272A"/>
<path d="M29.1875 4.75H2.8125C2.3925 4.75 1.99744 4.84888 1.63925 5.01456L11.9253 15.3348C11.926 15.3354 11.9268 15.3356 11.9275 15.3363C11.9279 15.3367 11.9282 15.3373 11.9283 15.3379L15.2729 18.6935C15.6281 19.0488 16.372 19.0488 16.7272 18.6935L20.0711 15.3384C20.0711 15.3384 20.0719 15.3369 20.0726 15.3363C20.0726 15.3363 20.0741 15.3354 20.0748 15.3348L30.3606 5.0145C30.0024 4.84875 29.6075 4.75 29.1875 4.75ZM0.299125 6.32575C0.11375 6.70062 0 7.11675 0 7.5625V24.4375C0 24.8832 0.113625 25.2994 0.299062 25.6742L9.94175 16.0003L0.299125 6.32575ZM31.7009 6.32562L22.0583 16.0003L31.7009 25.6744C31.8862 25.2995 32 24.8834 32 24.4375V7.5625C32 7.11663 31.8862 6.7005 31.7009 6.32562Z" fill="#27272A"/>
</svg>
