<svg width="32" height="32" viewBox="0 0 32 32" fill="none" xmlns="http://www.w3.org/2000/svg">
<path d="M24 10C24 10 22.5 13 21 14.5C21.5 8.5 19 6.5 18.5 2C18.5 2 12.5 4 11.5 12.5C10.5 10.5 9.08 9.5 7.79 9C7.79 9 7.655 11.89 7 14.5C6.5 16.5 6 17.5 6 20C6 25.525 10.475 30 16 30C21.525 30 26 25.525 26 20C26 16.5 24.5 14.5 24 10ZM16 29C13.04 29 10.645 26.6 10.645 23.645C10.645 21.77 11 20 12 18C12 18 12.785 19.895 13.59 20.695C13.055 17.48 14.93 16.41 15.195 14C15.195 14 18.5 16.5 18 20.5C18.535 19.16 19.71 18.02 20.4 17.75C20.4 17.75 20.47 19.295 20.82 20.695C21.09 21.77 21.355 22.305 21.355 23.645C21.355 26.6 18.96 29 16 29Z" fill="black"/>
</svg>
