<svg width="24" height="24" viewBox="0 0 24 24" fill="none" xmlns="http://www.w3.org/2000/svg">
<path d="M22.2489 3.48153C21.0652 2.13837 19.423 1.39868 17.625 1.39868C15.0962 1.39868 13.4952 2.90899 12.5974 4.17603C12.3645 4.50481 12.1664 4.83448 12 5.1447C11.8336 4.83448 11.6355 4.50481 11.4026 4.17603C10.5048 2.90899 8.90381 1.39868 6.375 1.39868C4.57697 1.39868 2.9348 2.13842 1.75102 3.48157C0.621891 4.76285 0 6.47885 0 8.31345C0 10.3105 0.779672 12.1679 2.45367 14.1588C3.94978 15.9381 6.10214 17.7723 8.59453 19.8961C9.52327 20.6876 10.4837 21.506 11.5062 22.4006L11.5369 22.4275C11.6694 22.5436 11.8347 22.6016 12 22.6016C12.1653 22.6016 12.3306 22.5435 12.4631 22.4275L12.4938 22.4006C13.5163 21.506 14.4767 20.6876 15.4056 19.896C17.8979 17.7723 20.0502 15.9382 21.5463 14.1588C23.2203 12.1678 24 10.3105 24 8.31345C24 6.47885 23.3781 4.76285 22.2489 3.48153ZM14.4934 18.8258C13.6928 19.508 12.8688 20.2101 12 20.9654C11.1312 20.2102 10.3072 19.508 9.50644 18.8257C4.62867 14.6691 1.40625 11.9232 1.40625 8.31345C1.40625 6.82142 1.90336 5.4356 2.80603 4.41134C3.71906 3.37545 4.98652 2.80493 6.375 2.80493C8.30292 2.80493 9.54919 3.99265 10.2551 4.98903C10.8884 5.88265 11.2188 6.78349 11.3315 7.12929C11.3774 7.27038 11.4669 7.3933 11.5869 7.48047C11.707 7.56764 11.8516 7.61458 12 7.61458C12.1484 7.61458 12.293 7.56764 12.413 7.48047C12.5331 7.3933 12.6226 7.27038 12.6685 7.12929C12.7812 6.78349 13.1116 5.88265 13.7449 4.98898C14.4508 3.99265 15.6971 2.80493 17.625 2.80493C19.0135 2.80493 20.2809 3.37545 21.1939 4.41134C22.0966 5.4356 22.5938 6.82142 22.5938 8.31345C22.5938 11.9232 19.3713 14.6691 14.4934 18.8258Z" fill="black"/>
</svg>
