<svg width="24" height="24" viewBox="0 0 24 24" fill="none" xmlns="http://www.w3.org/2000/svg">
<path d="M21.3748 5.62508V1.87508C21.3748 1.75133 21.311 1.63508 21.2098 1.56383C21.1048 1.49633 20.9735 1.48133 20.861 1.52633L15.2435 3.77258C14.6153 4.0207 14.0765 4.45271 13.6978 5.01207C13.3191 5.57143 13.1181 6.23209 13.121 6.90758V8.62508C13.121 8.64758 13.1248 8.66633 13.1285 8.68883C13.1323 8.69633 13.1285 8.70383 13.1323 8.71133C13.1398 8.74508 13.151 8.77508 13.166 8.80508L13.181 8.82008C13.1979 8.85392 13.2222 8.88343 13.2523 8.90633C13.2635 8.91383 13.2748 8.92508 13.286 8.93633C13.2898 8.94008 13.2973 8.94008 13.301 8.94383C13.3085 8.94758 13.3123 8.95133 13.316 8.95508L16.1773 10.5263L15.2435 10.8976C14.6153 11.1457 14.0765 11.5777 13.6978 12.1371C13.3191 12.6964 13.1181 13.3571 13.121 14.0326V15.7501C13.121 15.7726 13.1248 15.7913 13.1285 15.8138C13.1323 15.8213 13.1285 15.8288 13.1323 15.8363C13.1398 15.8701 13.151 15.9001 13.166 15.9301L13.181 15.9451C13.1979 15.9789 13.2222 16.0084 13.2523 16.0313C13.2635 16.0388 13.2748 16.0501 13.286 16.0613C13.2898 16.0651 13.2973 16.0651 13.301 16.0688C13.3085 16.0726 13.3123 16.0763 13.316 16.0801L16.1773 17.6513L15.4798 17.9288C14.7825 18.2048 14.1846 18.6844 13.7639 19.3051C13.3431 19.9259 13.1191 20.659 13.121 21.4088V22.8751C13.121 22.9988 13.1848 23.1151 13.286 23.1863C13.337 23.2199 13.3952 23.2408 13.4559 23.2473C13.5165 23.2538 13.5779 23.2458 13.6348 23.2238L21.1385 20.2238C21.2083 20.196 21.2681 20.1479 21.3103 20.0858C21.3524 20.0236 21.3749 19.9502 21.3748 19.8751V16.1251C21.3748 16.1026 21.371 16.0838 21.3673 16.0613C21.3635 16.0538 21.3635 16.0463 21.3635 16.0388C21.356 16.0051 21.3448 15.9751 21.3298 15.9451C21.326 15.9451 21.3185 15.9338 21.3148 15.9301C21.3033 15.9066 21.2881 15.8851 21.2698 15.8663C21.2623 15.8588 21.251 15.8513 21.2435 15.8438C21.2323 15.8363 21.221 15.8251 21.2098 15.8138C21.2023 15.8101 21.1985 15.8101 21.191 15.8063C21.1873 15.8063 21.1835 15.7988 21.1798 15.7951L18.3223 14.2238L21.1385 13.0988C21.2083 13.071 21.2681 13.0229 21.3103 12.9608C21.3524 12.8986 21.3749 12.8252 21.3748 12.7501V9.00008C21.3748 8.97758 21.371 8.95883 21.3673 8.93633C21.3635 8.92883 21.3635 8.92133 21.3635 8.91383C21.356 8.88008 21.3448 8.85008 21.3298 8.82008C21.326 8.82008 21.3185 8.80883 21.3148 8.80508C21.3033 8.78158 21.2881 8.76006 21.2698 8.74133C21.2623 8.73383 21.251 8.72633 21.2435 8.71883C21.2323 8.71133 21.221 8.70008 21.2098 8.68883C21.2023 8.68508 21.1985 8.68508 21.191 8.68133C21.1873 8.68133 21.1835 8.67383 21.1798 8.67008L18.3223 7.09883L21.1385 5.97383C21.2083 5.94604 21.2681 5.89794 21.3103 5.83576C21.3524 5.77358 21.3749 5.70019 21.3748 5.62508ZM20.1223 16.0726L17.0773 17.2876L14.3735 15.8026L14.591 15.7163L17.4223 14.5838L20.1223 16.0726ZM20.1223 8.94758L17.0773 10.1626L14.3735 8.67758L14.591 8.59133L17.4223 7.45883L20.1223 8.94758ZM7.99105 3.59258C9.2248 2.49758 10.3498 1.83758 10.8185 1.58258C11.1673 1.94258 11.9585 2.83508 12.7235 4.19258C12.791 4.31633 12.9185 4.38383 13.0498 4.38383C13.1152 4.38372 13.1794 4.3665 13.2361 4.33389C13.2928 4.30128 13.34 4.2544 13.373 4.19792C13.406 4.14144 13.4236 4.07731 13.4241 4.01191C13.4247 3.9465 13.4081 3.8821 13.376 3.82508C12.296 1.91258 11.1898 0.888833 11.141 0.847583C11.0285 0.746333 10.8635 0.720082 10.7285 0.783832C10.6648 0.813832 9.1948 1.51883 7.4923 3.03008C7.4182 3.09622 7.37342 3.18908 7.36779 3.28824C7.36216 3.3874 7.39616 3.48474 7.4623 3.55883C7.52844 3.63293 7.6213 3.67771 7.72046 3.68334C7.81962 3.68897 7.91695 3.65497 7.99105 3.58883V3.59258Z" fill="#27272A"/>
<path d="M9.41585 19.4851C11.0471 19.4064 12.4271 18.8214 13.4208 17.7639C13.5633 17.6139 13.5558 17.3739 13.4058 17.2351C13.3702 17.2013 13.3282 17.1749 13.2823 17.1573C13.2364 17.1398 13.1875 17.1315 13.1384 17.1329C13.0892 17.1343 13.0409 17.1453 12.996 17.1655C12.9512 17.1856 12.9108 17.2143 12.8771 17.2501C11.9808 18.2026 10.7621 18.6976 9.25835 18.7426C8.95857 17.162 8.82036 15.555 8.84585 13.9464C9.04835 13.6089 9.89585 12.3751 11.6246 12.3751C11.8308 12.3751 11.9996 12.2064 11.9996 12.0001C11.9996 11.7939 11.8308 11.6251 11.6246 11.6251C10.3421 11.6251 9.4571 12.1689 8.89835 12.7014C8.95085 11.9176 9.04085 11.1001 9.1796 10.2564C9.37835 9.9901 10.1621 9.09385 11.5496 9.3676C11.7558 9.40885 11.9508 9.2776 11.9921 9.0751C12.0333 8.8726 11.9021 8.67385 11.6996 8.6326C10.6983 8.43385 9.94085 8.7001 9.40835 9.04135C9.6596 7.8676 10.0083 6.6451 10.4771 5.3776C10.5483 5.1826 10.4508 4.96885 10.2558 4.89385C10.0608 4.8226 9.8471 4.9201 9.7721 5.1151C9.4721 5.92135 9.2246 6.7126 9.0146 7.48885C8.2721 6.63385 7.25585 6.39385 7.20335 6.3826C7.00085 6.3376 6.8021 6.4651 6.7571 6.6676C6.7121 6.8701 6.8396 7.06885 7.0421 7.11385C7.05335 7.11385 8.23835 7.39885 8.77085 8.46385C8.6471 8.9926 8.54585 9.5101 8.4596 10.0164C8.4521 10.0464 8.4446 10.0764 8.4446 10.1064C8.35835 10.6389 8.2871 11.1564 8.2346 11.6664C7.2146 10.2751 5.81585 9.79135 5.74085 9.7651C5.69432 9.74938 5.64514 9.74302 5.59615 9.7464C5.54715 9.74978 5.49931 9.76283 5.45538 9.78479C5.41146 9.80676 5.37231 9.8372 5.34021 9.87437C5.30811 9.91154 5.28369 9.9547 5.26835 10.0014C5.20085 10.1964 5.3096 10.4101 5.5046 10.4776C5.52335 10.4851 7.32335 11.1151 8.1296 12.9864C8.1146 13.2601 8.1071 13.5301 8.10335 13.7926C8.09585 13.8414 8.0921 13.8864 8.10335 13.9314C8.0996 14.2014 8.10335 14.4676 8.10335 14.7301C6.9971 13.6239 5.4371 13.1589 5.3546 13.1364C5.15585 13.0801 4.9496 13.1926 4.8896 13.3914C4.83335 13.5901 4.94585 13.7964 5.1446 13.8564C5.1671 13.8639 7.36835 14.5201 8.1596 16.0464C8.23085 17.0251 8.35085 17.9176 8.4971 18.7126C6.9071 18.5626 5.4446 17.7601 4.5146 16.4964C3.64085 15.3151 2.81585 13.2001 3.8471 9.8551C4.43585 7.94635 5.47835 6.1801 6.9446 4.60885C7.01223 4.53625 7.04825 4.43976 7.04473 4.3406C7.04122 4.24144 6.99845 4.14773 6.92585 4.0801C6.85325 4.01247 6.75675 3.97646 6.65759 3.97997C6.55843 3.98349 6.46473 4.02625 6.3971 4.09885C4.8521 5.7526 3.75335 7.61635 3.13085 9.6376C2.25335 12.4839 2.53085 15.0789 3.91085 16.9464C5.01335 18.4426 6.7646 19.3726 8.65085 19.4851C9.13835 21.7051 9.7721 23.0101 9.7871 23.0401C9.80906 23.0841 9.83953 23.1233 9.87674 23.1555C9.91396 23.1877 9.95719 23.2121 10.0039 23.2275C10.0507 23.2428 10.1 23.2487 10.149 23.2449C10.198 23.2411 10.2458 23.2275 10.2896 23.2051C10.4733 23.1114 10.5483 22.8864 10.4583 22.7026C10.4433 22.6726 9.87335 21.4951 9.41585 19.4776V19.4851Z" fill="#27272A"/>
</svg>
