<svg width="20" height="20" viewBox="0 0 20 20" fill="none" xmlns="http://www.w3.org/2000/svg">
<path d="M10.8545 1.66699C11.792 1.66949 12.2679 1.67449 12.6787 1.68616L12.8404 1.69199C13.027 1.69866 13.2112 1.70699 13.4337 1.71699C14.3204 1.75866 14.9254 1.89866 15.4562 2.10449C16.0062 2.31616 16.4695 2.60283 16.9329 3.06533C17.3568 3.48177 17.6847 3.98572 17.8937 4.54199C18.0995 5.07283 18.2395 5.67783 18.2812 6.56533C18.2912 6.78699 18.2995 6.97116 18.3062 7.15866L18.3112 7.32033C18.3237 7.73033 18.3287 8.20616 18.3304 9.14366L18.3312 9.76533V10.857C18.3332 11.4648 18.3268 12.0727 18.312 12.6803L18.307 12.842C18.3004 13.0295 18.292 13.2137 18.282 13.4353C18.2404 14.3228 18.0987 14.927 17.8937 15.4587C17.6847 16.0149 17.3568 16.5189 16.9329 16.9353C16.5164 17.3592 16.0125 17.6871 15.4562 17.8962C14.9254 18.102 14.3204 18.242 13.4337 18.2837L12.8404 18.3087L12.6787 18.3137C12.2679 18.3253 11.792 18.3312 10.8545 18.3328L10.2329 18.3337H9.14203C8.53392 18.3358 7.92581 18.3294 7.31787 18.3145L7.1562 18.3095C6.95838 18.302 6.7606 18.2934 6.56287 18.2837C5.6762 18.242 5.0712 18.102 4.53954 17.8962C3.98356 17.687 3.47991 17.3591 3.0637 16.9353C2.63949 16.519 2.31129 16.015 2.10204 15.4587C1.8962 14.9278 1.7562 14.3228 1.71454 13.4353L1.68954 12.842L1.68537 12.6803C1.67001 12.0727 1.66306 11.4648 1.66454 10.857V9.14366C1.66223 8.53583 1.66834 7.92799 1.68287 7.32033L1.6887 7.15866C1.69537 6.97116 1.7037 6.78699 1.7137 6.56533C1.75537 5.67783 1.89537 5.07366 2.1012 4.54199C2.31095 3.98549 2.63972 3.48152 3.06454 3.06533C3.4805 2.64162 3.98386 2.31372 4.53954 2.10449C5.0712 1.89866 5.67537 1.75866 6.56287 1.71699C6.78454 1.70699 6.96954 1.69866 7.1562 1.69199L7.31787 1.68699C7.92553 1.67219 8.53336 1.6658 9.1412 1.66783L10.8545 1.66699ZM9.99787 5.83366C8.8928 5.83366 7.83299 6.27265 7.05159 7.05405C6.27019 7.83545 5.8312 8.89526 5.8312 10.0003C5.8312 11.1054 6.27019 12.1652 7.05159 12.9466C7.83299 13.728 8.8928 14.167 9.99787 14.167C11.1029 14.167 12.1627 13.728 12.9441 12.9466C13.7255 12.1652 14.1645 11.1054 14.1645 10.0003C14.1645 8.89526 13.7255 7.83545 12.9441 7.05405C12.1627 6.27265 11.1029 5.83366 9.99787 5.83366ZM9.99787 7.50033C10.3262 7.50027 10.6513 7.56488 10.9546 7.69047C11.2579 7.81605 11.5336 8.00016 11.7658 8.23226C11.9979 8.46437 12.1821 8.73994 12.3078 9.04323C12.4335 9.34653 12.4982 9.67161 12.4983 9.99991C12.4983 10.3282 12.4337 10.6533 12.3081 10.9567C12.1826 11.26 11.9985 11.5356 11.7663 11.7678C11.5342 12 11.2587 12.1842 10.9554 12.3099C10.6521 12.4356 10.327 12.5003 9.9987 12.5003C9.33566 12.5003 8.69978 12.2369 8.23094 11.7681C7.76209 11.2993 7.4987 10.6634 7.4987 10.0003C7.4987 9.33729 7.76209 8.7014 8.23094 8.23256C8.69978 7.76372 9.33566 7.50033 9.9987 7.50033M14.3737 4.58366C14.0974 4.58366 13.8325 4.69341 13.6371 4.88876C13.4418 5.08411 13.332 5.34906 13.332 5.62533C13.332 5.90159 13.4418 6.16655 13.6371 6.3619C13.8325 6.55725 14.0974 6.66699 14.3737 6.66699C14.65 6.66699 14.9149 6.55725 15.1103 6.3619C15.3056 6.16655 15.4154 5.90159 15.4154 5.62533C15.4154 5.34906 15.3056 5.08411 15.1103 4.88876C14.9149 4.69341 14.65 4.58366 14.3737 4.58366Z" fill="#040A01"/>
</svg>
