<svg width="24" height="24" viewBox="0 0 24 24" fill="none" xmlns="http://www.w3.org/2000/svg">
<path d="M21.6004 21.5999V14.5679C21.6004 11.1119 20.8564 8.4719 16.8244 8.4719C14.8804 8.4719 13.5844 9.5279 13.0564 10.5359H13.0084V8.7839H9.19239V21.5999H13.1764V15.2399C13.1764 13.5599 13.4884 11.9519 15.5524 11.9519C17.5924 11.9519 17.6164 13.8479 17.6164 15.3359V21.5759H21.6004V21.5999ZM2.71239 8.7839H6.69639V21.5999H2.71239V8.7839ZM4.70439 2.3999C3.43239 2.3999 2.40039 3.4319 2.40039 4.7039C2.40039 5.9759 3.43239 7.0319 4.70439 7.0319C5.97639 7.0319 7.00839 5.9759 7.00839 4.7039C7.00839 3.4319 5.97639 2.3999 4.70439 2.3999Z" fill="#27272A"/>
</svg>
