<svg width="108" height="108" viewBox="0 0 108 108" fill="none" xmlns="http://www.w3.org/2000/svg">
<rect width="107.4" height="107.4" rx="11.9333" fill="#E8F1FF"/>
<path fill-rule="evenodd" clip-rule="evenodd" d="M54 27.125C44.6925 27.125 37.125 34.76 37.125 44.1775C37.125 47.3675 38.53 51.325 40.575 55.2725C45.0775 63.965 52.5775 72.72 52.5775 72.72C52.7535 72.925 52.9718 73.0895 53.2173 73.2023C53.4628 73.3151 53.7298 73.3735 54 73.3735C54.2702 73.3735 54.5372 73.3151 54.7827 73.2023C55.0282 73.0895 55.2465 72.925 55.4225 72.72C55.4225 72.72 62.9225 63.965 67.425 55.2725C69.47 51.325 70.875 47.3675 70.875 44.1775C70.875 34.76 63.3075 27.125 54 27.125ZM54 37.125C52.2087 37.1733 50.5071 37.9188 49.2572 39.2029C48.0073 40.4869 47.3079 42.2081 47.3079 44C47.3079 45.7919 48.0073 47.5131 49.2572 48.7971C50.5071 50.0812 52.2087 50.8267 54 50.875C55.7913 50.8267 57.4929 50.0812 58.7428 48.7971C59.9927 47.5131 60.6921 45.7919 60.6921 44C60.6921 42.2081 59.9927 40.4869 58.7428 39.2029C57.4929 37.9188 55.7913 37.1733 54 37.125Z" fill="#279FF9"/>
<path fill-rule="evenodd" clip-rule="evenodd" d="M65.96 67.4424C67.9925 68.0524 69.6675 68.8074 70.825 69.6924C71.575 70.2624 72.125 70.8199 72.125 71.4999C72.125 71.8999 71.8975 72.2624 71.5775 72.6249C71.0475 73.2224 70.26 73.7599 69.285 74.2599C65.84 76.0224 60.27 77.1249 54 77.1249C47.73 77.1249 42.16 76.0224 38.715 74.2599C37.74 73.7599 36.9525 73.2224 36.4225 72.6249C36.1025 72.2624 35.875 71.8999 35.875 71.4999C35.875 70.8199 36.425 70.2624 37.175 69.6924C38.3325 68.8074 40.0075 68.0524 42.04 67.4424C42.5164 67.2992 42.9164 66.9726 43.152 66.5345C43.3876 66.0963 43.4395 65.5826 43.2963 65.1062C43.153 64.6298 42.8264 64.2298 42.3883 63.9942C41.9502 63.7586 41.4364 63.7067 40.96 63.8499C37.865 64.7824 35.46 66.0599 34.015 67.4724C32.745 68.7099 32.125 70.0949 32.125 71.4999C32.125 73.2549 33.1175 75.0049 35.135 76.4649C38.675 79.0249 45.785 80.8749 54 80.8749C62.215 80.8749 69.325 79.0249 72.865 76.4649C74.8825 75.0049 75.875 73.2549 75.875 71.4999C75.875 70.0949 75.255 68.7099 73.985 67.4724C72.54 66.0599 70.135 64.7824 67.04 63.8499C66.8041 63.779 66.5566 63.7553 66.3115 63.78C66.0664 63.8048 65.8286 63.8775 65.6117 63.9942C65.3948 64.1108 65.2029 64.2691 65.0471 64.4599C64.8913 64.6507 64.7747 64.8703 64.7037 65.1062C64.6328 65.3421 64.6091 65.5896 64.6338 65.8347C64.6586 66.0797 64.7314 66.3175 64.848 66.5345C64.9647 66.7514 65.1229 66.9433 65.3137 67.099C65.5045 67.2548 65.7241 67.3715 65.96 67.4424Z" fill="#279FF9"/>
</svg>
