<svg width="32" height="32" viewBox="0 0 32 32" fill="none" xmlns="http://www.w3.org/2000/svg">
<path fill-rule="evenodd" clip-rule="evenodd" d="M16 1.66675C11.036 1.66675 7 5.73875 7 10.7614C7 12.4627 7.74933 14.5734 8.84 16.6788C11.2413 21.3148 15.2413 25.9841 15.2413 25.9841C15.3352 26.0934 15.4516 26.1812 15.5826 26.2413C15.7135 26.3015 15.8559 26.3326 16 26.3326C16.1441 26.3326 16.2865 26.3015 16.4174 26.2413C16.5484 26.1812 16.6648 26.0934 16.7587 25.9841C16.7587 25.9841 20.7587 21.3148 23.16 16.6788C24.2507 14.5734 25 12.4627 25 10.7614C25 5.73875 20.964 1.66675 16 1.66675ZM16 7.00008C15.0447 7.02585 14.1371 7.42346 13.4705 8.10828C12.8039 8.79311 12.4309 9.71106 12.4309 10.6667C12.4309 11.6224 12.8039 12.5404 13.4705 13.2252C14.1371 13.91 15.0447 14.3077 16 14.3334C16.9553 14.3077 17.8629 13.91 18.5295 13.2252C19.1961 12.5404 19.5691 11.6224 19.5691 10.6667C19.5691 9.71106 19.1961 8.79311 18.5295 8.10828C17.8629 7.42346 16.9553 7.02585 16 7.00008Z" fill="black"/>
<path fill-rule="evenodd" clip-rule="evenodd" d="M22.3783 23.1693C23.4623 23.4946 24.3557 23.8973 24.973 24.3693C25.373 24.6733 25.6663 24.9706 25.6663 25.3333C25.6663 25.5466 25.545 25.74 25.3743 25.9333C25.0917 26.252 24.6717 26.5386 24.1517 26.8053C22.3143 27.7453 19.3437 28.3333 15.9997 28.3333C12.6557 28.3333 9.68501 27.7453 7.84767 26.8053C7.32767 26.5386 6.90767 26.252 6.62501 25.9333C6.45434 25.74 6.33301 25.5466 6.33301 25.3333C6.33301 24.9706 6.62634 24.6733 7.02634 24.3693C7.64367 23.8973 8.53701 23.4946 9.62101 23.1693C9.87509 23.0929 10.0884 22.9187 10.2141 22.6851C10.3397 22.4514 10.3674 22.1774 10.291 21.9233C10.2146 21.6692 10.0404 21.4559 9.80677 21.3302C9.5731 21.2046 9.29909 21.1769 9.04501 21.2533C7.39434 21.7506 6.11167 22.432 5.34101 23.1853C4.66367 23.8453 4.33301 24.584 4.33301 25.3333C4.33301 26.2693 4.86234 27.2026 5.93834 27.9813C7.82634 29.3466 11.6183 30.3333 15.9997 30.3333C20.381 30.3333 24.173 29.3466 26.061 27.9813C27.137 27.2026 27.6663 26.2693 27.6663 25.3333C27.6663 24.584 27.3357 23.8453 26.6583 23.1853C25.8877 22.432 24.605 21.7506 22.9543 21.2533C22.8285 21.2155 22.6965 21.2028 22.5658 21.216C22.4351 21.2292 22.3083 21.268 22.1926 21.3302C22.0769 21.3925 21.9746 21.4769 21.8915 21.5786C21.8084 21.6804 21.7462 21.7975 21.7083 21.9233C21.6705 22.0491 21.6578 22.1811 21.6711 22.3118C21.6843 22.4425 21.7231 22.5694 21.7853 22.6851C21.8475 22.8008 21.9319 22.9031 22.0337 22.9862C22.1354 23.0692 22.2525 23.1315 22.3783 23.1693Z" fill="black"/>
</svg>
