<svg width="32" height="29" viewBox="0 0 32 29" fill="none" xmlns="http://www.w3.org/2000/svg">
<path d="M22.1269 0H3.61875C1.62312 0 0 1.62313 0 3.61875V19.8375C0 20.6056 0.868687 21.0386 1.48187 20.6006L6.63625 16.9231C7.06875 16.615 7.5775 16.4519 8.10875 16.4519H19.4456C21.4412 16.4519 23.0644 14.8288 23.0644 12.8331V0.9375C23.0644 0.42 22.6444 0 22.1269 0ZM17.5731 11.3569H6.74125C6.22375 11.3569 5.80375 10.9375 5.80375 10.4194C5.80375 9.90188 6.22375 9.48188 6.74125 9.48188H17.5731C18.0906 9.48188 18.5106 9.90188 18.5106 10.4194C18.5106 10.9375 18.0906 11.3569 17.5731 11.3569ZM17.5731 6.98187H6.74125C6.22375 6.98187 5.80375 6.5625 5.80375 6.04437C5.80375 5.52688 6.22375 5.10687 6.74125 5.10687H17.5731C18.0906 5.10687 18.5106 5.52688 18.5106 6.04437C18.5106 6.5625 18.0906 6.98187 17.5731 6.98187Z" fill="#27272A"/>
<path d="M32 10.8906V27.1087C32 27.8717 31.1357 28.313 30.5181 27.8719L25.3637 24.195C24.9312 23.8869 24.4225 23.7237 23.8912 23.7237H12.5544C10.5587 23.7237 8.93561 22.1 8.93561 20.1044V18.3269H19.4456C22.475 18.3269 24.9394 15.8625 24.9394 12.8331V7.27124H28.3812C30.3769 7.27124 32 8.89499 32 10.8906Z" fill="#27272A"/>
</svg>
