<svg width="108" height="108" viewBox="0 0 108 108" fill="none" xmlns="http://www.w3.org/2000/svg">
<rect width="107.4" height="107.4" rx="11.9333" fill="#E8F1FF"/>
<path d="M35.6239 77.7517C35.6239 78.249 35.8215 78.7259 36.1731 79.0775C36.5247 79.4292 37.0017 79.6267 37.4989 79.6267H71.2489C71.7462 79.6267 72.2231 79.4292 72.5748 79.0775C72.9264 78.7259 73.1239 78.249 73.1239 77.7517V72.1267H35.6239V77.7517ZM78.0121 40.6361C77.7328 40.4238 77.3998 40.2938 77.0507 40.2607C76.7015 40.2276 76.35 40.2926 76.0358 40.4486L62.8583 47.0373L56.1158 30.1811C55.977 29.8326 55.7367 29.5337 55.4262 29.3231C55.1157 29.1126 54.7491 29 54.3739 29C53.9988 29 53.6322 29.1126 53.3217 29.3231C53.0111 29.5337 52.7709 29.8326 52.6321 30.1811L45.8896 47.0373L32.7121 40.4486C32.3981 40.292 32.0465 40.2266 31.6972 40.2598C31.3479 40.2931 31.0149 40.4237 30.7362 40.6368C30.4574 40.85 30.2441 41.137 30.1204 41.4653C29.9967 41.7937 29.9676 42.1502 30.0364 42.4942L35.2114 68.3767H73.5364L78.7114 42.4942C78.7801 42.1504 78.7509 41.7942 78.6273 41.466C78.5037 41.1379 78.2905 40.851 78.0121 40.638V40.6361ZM54.3739 60.8767C53.2608 60.7393 52.2455 60.1721 51.5448 59.2962C50.8442 58.4204 50.5137 57.3054 50.6239 56.1892C50.5137 55.0731 50.8442 53.958 51.5448 53.0822C52.2455 52.2064 53.2608 51.6392 54.3739 51.5017C55.4871 51.6392 56.5024 52.2064 57.203 53.0822C57.9037 53.958 58.2342 55.0731 58.1239 56.1892C58.2342 57.3054 57.9037 58.4204 57.203 59.2962C56.5024 60.1721 55.4871 60.7393 54.3739 60.8767Z" fill="#279FF9"/>
</svg>
