<svg width="24" height="24" viewBox="0 0 24 24" fill="none" xmlns="http://www.w3.org/2000/svg">
<g clip-path="url(#clip0_666_3537)">
<path d="M21.6607 22.719H16.088C16.2791 22.5493 16.432 22.341 16.5368 22.1079C16.6416 21.8748 16.696 21.6222 16.6962 21.3666V18.8571H15.3983V19.8381H3.91794V3.6882H15.3983V4.74839H16.6962V2.63499C16.6962 1.63305 15.8807 0.815186 14.8787 0.815186H4.43756C3.43328 0.815186 2.62008 1.66101 2.62008 2.62101V21.3666C2.62025 21.6222 2.67449 21.8748 2.77922 22.1079C2.88396 22.3409 3.03682 22.5492 3.22777 22.719H2.1727C2.1109 22.719 2.05164 22.7436 2.00794 22.7873C1.96424 22.831 1.93969 22.8902 1.93969 22.952C1.93969 23.0138 1.96424 23.0731 2.00794 23.1168C2.05164 23.1605 2.1109 23.185 2.1727 23.185H21.6609C21.7227 23.185 21.782 23.1605 21.8257 23.1168C21.8694 23.0731 21.8939 23.0138 21.8939 22.952C21.8939 22.8902 21.8694 22.831 21.8257 22.7873C21.782 22.7436 21.7225 22.719 21.6607 22.719ZM8.1049 2.01985H11.2109C11.3391 2.01985 11.4439 2.12237 11.4439 2.25286C11.4439 2.38101 11.3391 2.48587 11.2109 2.48587H8.1049C7.97674 2.48587 7.87189 2.38101 7.87189 2.25286C7.87189 2.12237 7.97674 2.01985 8.1049 2.01985ZM7.86723 21.0684H11.4463C11.5637 21.0684 11.6763 21.115 11.7593 21.1981C11.8423 21.2811 11.889 21.3937 11.889 21.5111C11.889 21.6285 11.8423 21.7411 11.7593 21.8242C11.6763 21.9072 11.5637 21.9538 11.4463 21.9538H7.86723C7.74981 21.9538 7.6372 21.9072 7.55418 21.8242C7.47115 21.7411 7.42451 21.6285 7.42451 21.5111C7.42451 21.3937 7.47115 21.2811 7.55418 21.1981C7.6372 21.115 7.74981 21.0684 7.86723 21.0684ZM1.19942 22.719H0.823342C0.761544 22.719 0.702277 22.7436 0.658579 22.7873C0.614881 22.831 0.590332 22.8902 0.590332 22.952C0.590332 23.0138 0.614881 23.0731 0.658579 23.1168C0.702277 23.1605 0.761544 23.185 0.823342 23.185H1.19942C1.26122 23.185 1.32048 23.1605 1.36418 23.1168C1.40788 23.0731 1.43243 23.0138 1.43243 22.952C1.43243 22.8902 1.40788 22.831 1.36418 22.7873C1.32048 22.7436 1.26122 22.719 1.19942 22.719ZM23.1769 22.719H22.5757C22.5139 22.719 22.4547 22.7436 22.411 22.7873C22.3673 22.831 22.3427 22.8902 22.3427 22.952C22.3427 23.0138 22.3673 23.0731 22.411 23.1168C22.4547 23.1605 22.5139 23.185 22.5757 23.185H23.1769C23.2387 23.185 23.298 23.1605 23.3417 23.1168C23.3854 23.0731 23.4099 23.0138 23.4099 22.952C23.4099 22.8902 23.3854 22.831 23.3417 22.7873C23.298 22.7436 23.2387 22.719 23.1769 22.719Z" fill="#27272A" fill-opacity="0.7"/>
<path d="M8.8889 6.44399V17.1613C8.88897 17.4871 9.01844 17.7995 9.24885 18.0299C9.47927 18.2603 9.79175 18.3897 10.1176 18.3897H18.4411C18.7669 18.3896 19.0793 18.2602 19.3097 18.0298C19.5401 17.7995 19.6695 17.4871 19.6696 17.1613V6.44399C19.6696 6.11817 19.5401 5.80569 19.3098 5.57528C19.0794 5.34487 18.767 5.21539 18.4411 5.21533H10.1173C9.79147 5.21533 9.47896 5.34478 9.24854 5.5752C9.01812 5.80562 8.8889 6.11813 8.8889 6.44399ZM10.1006 10.3993C10.1006 10.2262 10.2408 10.0857 10.4142 10.0857H12.0259C12.1993 10.0857 12.3398 10.2262 12.3398 10.3993V12.0041C12.3398 12.1774 12.1993 12.3179 12.0259 12.3179H10.4142C10.373 12.3179 10.3322 12.3098 10.2941 12.294C10.256 12.2783 10.2214 12.2551 10.1923 12.226C10.1631 12.1969 10.14 12.1623 10.1242 12.1242C10.1084 12.0861 10.1003 12.0453 10.1003 12.0041L10.1006 10.3993ZM9.9971 13.4814C9.9971 13.4196 10.0216 13.3603 10.0653 13.3166C10.109 13.2729 10.1683 13.2483 10.2301 13.2483H12.2098C12.2716 13.2483 12.3308 13.2729 12.3745 13.3166C12.4182 13.3603 12.4428 13.4196 12.4428 13.4814C12.4428 13.5431 12.4182 13.6024 12.3745 13.6461C12.3308 13.6898 12.2716 13.7144 12.2098 13.7144H10.2301C10.1683 13.7144 10.109 13.6898 10.0653 13.6461C10.0216 13.6024 9.9971 13.5431 9.9971 13.4814ZM17.0456 16.8847C17.0456 16.9909 16.9594 17.0774 16.8529 17.0774H11.7058C11.6804 17.0774 11.6554 17.0725 11.6319 17.0628C11.6085 17.0531 11.5873 17.0389 11.5694 17.021C11.5514 17.0031 11.5372 16.9819 11.5275 16.9585C11.5178 16.9351 11.5128 16.91 11.5128 16.8847V15.3123C11.5128 15.2059 11.599 15.1196 11.7055 15.1196H16.8527C16.9594 15.1196 17.0456 15.2059 17.0456 15.3123V16.8847ZM13.2895 13.2483H15.2689C15.3307 13.2483 15.39 13.2729 15.4337 13.3166C15.4774 13.3603 15.502 13.4196 15.502 13.4814C15.502 13.5431 15.4774 13.6024 15.4337 13.6461C15.39 13.6898 15.3307 13.7144 15.2689 13.7144H13.2893C13.2275 13.7144 13.1682 13.6898 13.1245 13.6461C13.0808 13.6024 13.0563 13.5431 13.0563 13.4814C13.0563 13.4196 13.0808 13.3603 13.1245 13.3166C13.1682 13.2729 13.2277 13.2483 13.2895 13.2483ZM13.1595 12.0041V10.3993C13.1595 10.2262 13.3 10.0857 13.4734 10.0857H15.0851C15.2585 10.0857 15.399 10.2262 15.399 10.3993V12.0041C15.399 12.1774 15.2585 12.3179 15.0851 12.3179H13.4734C13.3901 12.3179 13.3103 12.2849 13.2514 12.226C13.1926 12.1671 13.1595 12.0873 13.1595 12.0041ZM18.5611 13.4814C18.5611 13.5431 18.5366 13.6024 18.4929 13.6461C18.4492 13.6898 18.3899 13.7144 18.3281 13.7144H16.3487C16.2869 13.7144 16.2276 13.6898 16.1839 13.6461C16.1403 13.6024 16.1157 13.5431 16.1157 13.4814C16.1157 13.4196 16.1403 13.3603 16.1839 13.3166C16.2276 13.2729 16.2869 13.2483 16.3487 13.2483H18.3281C18.3899 13.2483 18.4492 13.2729 18.4929 13.3166C18.5366 13.3603 18.5611 13.4196 18.5611 13.4814ZM16.2187 12.0041V10.3993C16.2187 10.2262 16.3592 10.0857 16.5326 10.0857H18.1443C18.3176 10.0857 18.4581 10.2262 18.4581 10.3993V12.0041C18.4581 12.1774 18.3176 12.3179 18.1443 12.3179H16.5326C16.4493 12.3179 16.3695 12.2849 16.3106 12.226C16.2518 12.1671 16.2187 12.0873 16.2187 12.0041ZM10.4249 6.42675H18.1336C18.3127 6.42675 18.4581 6.57215 18.4581 6.75133V8.73424C18.4581 8.91366 18.3127 9.05883 18.1336 9.05883H10.4249C10.2455 9.05883 10.1003 8.91343 10.1003 8.73424V6.75133C10.1003 6.57191 10.2457 6.42675 10.4249 6.42675Z" fill="#27272A" fill-opacity="0.7"/>
</g>
<defs>
<clipPath id="clip0_666_3537">
<rect width="24" height="24" fill="white"/>
</clipPath>
</defs>
</svg>
