<svg width="24" height="24" viewBox="0 0 24 24" fill="none" xmlns="http://www.w3.org/2000/svg">
<path d="M22.2628 12.3001C22.4207 6.63165 17.9522 1.91059 12.3154 1.7527C6.64698 1.57902 1.92592 6.04744 1.73645 11.7159C1.61014 15.7422 3.88382 19.4685 7.49961 21.2369C7.6575 21.3159 7.79961 21.2369 7.87856 21.1106C7.91014 21.0632 7.91013 21.0316 7.91013 20.9843C7.87856 20.3369 7.91014 19.6738 8.03645 19.058C8.16277 18.4895 8.68382 16.3422 9.0154 14.9211C9.17329 14.2264 9.18908 13.5159 9.06277 12.8211C9.0154 12.5685 8.98382 12.3159 8.98382 12.0316C8.98382 10.5159 9.85224 9.3948 10.9575 9.3948C11.8733 9.3948 12.347 10.0895 12.347 10.9264C12.347 11.8738 11.7628 13.2632 11.447 14.5738C11.2417 15.4264 11.747 16.2948 12.5996 16.5001C12.7575 16.5474 12.8996 16.5474 13.0575 16.5474C14.9996 16.5474 16.4996 14.4948 16.4996 11.5422C16.4996 8.92112 14.6207 7.10533 11.9365 7.10533C8.82592 7.10533 7.01014 9.44217 7.01014 11.8422C7.01014 12.7422 7.29435 13.6106 7.83119 14.3369C7.91013 14.4159 7.92592 14.5422 7.91013 14.6369C7.83119 14.9685 7.6575 15.7106 7.61014 15.8685C7.56277 16.0738 7.45224 16.1053 7.24698 16.0264C5.88908 15.3316 5.02066 13.3264 5.02066 11.7474C5.02066 8.30533 7.5154 5.16323 12.2207 5.16323C16.0101 5.16323 18.947 7.86323 18.947 11.4474C18.947 15.2211 16.5943 18.2369 13.2786 18.2369C12.4891 18.2369 11.6838 17.9369 11.0996 17.3843C11.0049 17.2895 10.8154 17.2895 10.7207 17.3843C10.6891 17.4159 10.6733 17.4632 10.6417 17.5106C10.468 18.158 10.1838 19.2316 10.1049 19.5632C9.89961 20.258 9.6154 20.8895 9.25224 21.5369C9.17329 21.6632 9.22066 21.8369 9.37856 21.9159C9.41014 21.9159 9.42592 21.9474 9.4575 21.9474C10.3101 22.1527 11.1943 22.279 12.0786 22.2474C17.4943 22.2001 22.1049 17.6843 22.2628 12.3001Z" fill="#27272A"/>
</svg>
