<svg width="24" height="24" viewBox="0 0 24 24" fill="none" xmlns="http://www.w3.org/2000/svg">
<path d="M3.53175 15.2009L2.40039 16.332L5.03487 18.9658C5.10915 19.0401 5.19734 19.099 5.2944 19.1392C5.39146 19.1795 5.49549 19.2002 5.60055 19.2002C5.70561 19.2002 5.80964 19.1795 5.9067 19.1392C6.00376 19.099 6.09195 19.0401 6.16623 18.9658L8.80047 16.332L7.66911 15.2L6.40047 16.4688V4.80005H4.80039V16.4688L3.53175 15.2009ZM10.4003 6.40013H21.6004V8.00021H10.4003V6.40013ZM10.4003 9.60005H19.2004V11.2001H10.4003V9.60005ZM10.4003 12.8H16.8004V14.4H10.4003V12.8ZM10.4003 16.0001H14.4004V17.6H10.4003V16.0001Z" fill="#27272A"/>
</svg>
