<svg width="0" height="0" class="hidden">
  <symbol fill="none" xmlns="http://www.w3.org/2000/svg" viewBox="0 0 12 7" id="chevron-down">
    <path fill-rule="evenodd" clip-rule="evenodd" d="M0.21934 0.238709C0.359965 0.0982584 0.550589 0.0193685 0.74934 0.0193685C0.948091 0.0193685 1.13871 0.0982584 1.27934 0.238709L5.74934 4.70871L10.2193 0.238709C10.288 0.165022 10.3708 0.105919 10.4628 0.0649275C10.5548 0.0239355 10.6541 0.0018935 10.7548 0.00011672C10.8555 -0.00166006 10.9555 0.0168648 11.0489 0.0545858C11.1423 0.0923069 11.2272 0.148452 11.2984 0.219671C11.3696 0.290889 11.4257 0.375723 11.4635 0.469111C11.5012 0.562499 11.5197 0.662528 11.5179 0.763231C11.5162 0.863934 11.4941 0.963247 11.4531 1.05525C11.4121 1.14725 11.353 1.23005 11.2793 1.29871L6.27934 6.29871C6.13871 6.43916 5.94809 6.51805 5.74934 6.51805C5.55059 6.51805 5.35997 6.43916 5.21934 6.29871L0.21934 1.29871C0.0788894 1.15808 0 0.967459 0 0.768709C0 0.569958 0.0788894 0.379334 0.21934 0.238709Z" fill="currentColor"></path>
  </symbol>
  <symbol xmlns="http://www.w3.org/2000/svg" fill="none" stroke="currentColor" stroke-width="2" stroke-linecap="round" stroke-linejoin="round" viewBox="0 0 24 24" id="menu">
    <line x1="3" x2="21" y1="6" y2="6"></line>
    <line x1="3" x2="21" y1="12" y2="12"></line>
    <line x1="3" x2="21" y1="18" y2="18"></line>
  </symbol>
  <symbol fill="none" xmlns="http://www.w3.org/2000/svg" viewBox="0 0 18 24" id="bag">
    <path fill-rule="evenodd" clip-rule="evenodd" d="M13.43 6.22917C13.43 6.44466 13.3444 6.65132 13.192 6.80369C13.0397 6.95606 12.833 7.04167 12.6175 7.04167C12.402 7.04167 12.1954 6.95606 12.043 6.80369C11.8906 6.65132 11.805 6.44466 11.805 6.22917V4.60417C11.805 3.81404 11.4911 3.05628 10.9324 2.49758C10.3737 1.93888 9.61597 1.625 8.82585 1.625C8.03572 1.625 7.27796 1.93888 6.71926 2.49758C6.16055 3.05628 5.84668 3.81404 5.84668 4.60417V6.22917C5.84668 6.44466 5.76108 6.65132 5.6087 6.80369C5.45633 6.95606 5.24967 7.04167 5.03418 7.04167C4.81869 7.04167 4.61203 6.95606 4.45966 6.80369C4.30728 6.65132 4.22168 6.44466 4.22168 6.22917V4.60417C4.22168 3.38307 4.70676 2.21198 5.57021 1.34853C6.43366 0.48508 7.60474 0 8.82585 0C10.0469 0 11.218 0.48508 12.0815 1.34853C12.9449 2.21198 13.43 3.38307 13.43 4.60417V6.22917Z" fill="currentColor"></path>
    <path fill-rule="evenodd" clip-rule="evenodd" d="M16.7797 7.6915L17.6463 20.6915C17.6681 21.0244 17.6214 21.3583 17.5091 21.6725C17.3967 21.9866 17.2212 22.2744 16.9933 22.5181C16.7653 22.7618 16.4899 22.9561 16.1839 23.0891C15.8779 23.2222 15.5479 23.291 15.2143 23.2915H2.43743C2.10369 23.2913 1.77354 23.2227 1.46741 23.0898C1.16127 22.9569 0.885684 22.7625 0.657696 22.5188C0.429708 22.2751 0.254176 21.9871 0.141966 21.6728C0.0297559 21.3585 -0.0167428 21.0245 0.00534838 20.6915L0.872015 7.6915C0.913237 7.07454 1.1874 6.49631 1.63897 6.0739C2.09053 5.6515 2.68576 5.4165 3.3041 5.4165H14.3476C14.9659 5.4165 15.5612 5.6515 16.0127 6.0739C16.4643 6.49631 16.7385 7.07454 16.7797 7.6915ZM11.519 10.2135C11.2768 10.7226 10.8952 11.1527 10.4186 11.4537C9.9419 11.7548 9.38965 11.9146 8.82585 11.9146C8.26205 11.9146 7.7098 11.7548 7.23313 11.4537C6.75646 11.1527 6.3749 10.7226 6.13268 10.2135C6.08687 10.1171 6.02253 10.0307 5.94332 9.95918C5.86411 9.88767 5.77159 9.83245 5.67105 9.79669C5.5705 9.76093 5.4639 9.74532 5.35732 9.75076C5.25074 9.75619 5.14627 9.78257 5.04989 9.82838C4.95351 9.87419 4.86709 9.93853 4.79557 10.0177C4.72405 10.0969 4.66884 10.1895 4.63307 10.29C4.59731 10.3906 4.5817 10.4972 4.58714 10.6037C4.59258 10.7103 4.61896 10.8148 4.66477 10.9112C5.0379 11.699 5.62703 12.3648 6.36365 12.8309C7.10027 13.2971 7.9541 13.5446 8.82585 13.5446C9.69759 13.5446 10.5514 13.2971 11.288 12.8309C12.0247 12.3648 12.6138 11.699 12.9869 10.9112C13.0327 10.8148 13.0591 10.7103 13.0646 10.6037C13.07 10.4972 13.0544 10.3906 13.0186 10.29C12.9829 10.1895 12.9276 10.0969 12.8561 10.0177C12.7846 9.93853 12.6982 9.87419 12.6018 9.82838C12.5054 9.78257 12.401 9.75619 12.2944 9.75076C12.1878 9.74532 12.0812 9.76093 11.9806 9.79669C11.8801 9.83245 11.7876 9.88767 11.7084 9.95918C11.6292 10.0307 11.5648 10.1171 11.519 10.2135Z" fill="currentColor"></path>
  </symbol>
  <symbol fill="none" xmlns="http://www.w3.org/2000/svg" viewBox="0 0 24 24" id="weight-loss">
    <path d="M10.125 18.75H19.1483C18.0836 20.7262 16.506 22.125 14.625 22.125C13.6602 22.1307 12.7265 21.7834 12 21.1485C11.2735 21.7834 10.3398 22.1307 9.375 22.125C6.0375 22.125 3.65625 17.7229 3.399 13.5H13.875C14.1733 13.4997 14.4593 13.3811 14.6702 13.1702C14.8811 12.9593 14.9997 12.6733 15 12.375V10.875C14.9997 10.5767 14.8811 10.2907 14.6702 10.0798C14.4593 9.86892 14.1733 9.7503 13.875 9.75H3.73313C4.44863 7.095 6.21338 5.625 8.8125 5.625C9.66712 5.62253 10.5075 5.84387 11.25 6.267V5.625C11.25 4.63044 11.6451 3.67661 12.3484 2.97335C13.0516 2.27009 14.0054 1.875 15 1.875C15.1989 1.875 15.3897 1.95402 15.5303 2.09467C15.671 2.23532 15.75 2.42609 15.75 2.625C15.75 2.82391 15.671 3.01468 15.5303 3.15533C15.3897 3.29598 15.1989 3.375 15 3.375C14.4033 3.375 13.831 3.61205 13.409 4.03401C12.9871 4.45597 12.75 5.02826 12.75 5.625V6.267C13.4925 5.84387 14.3329 5.62253 15.1875 5.625C18.6431 5.625 20.625 8.22188 20.625 12.75C20.6229 13.5045 20.5549 14.2573 20.4218 15H10.125C9.82672 15.0003 9.54075 15.1189 9.32983 15.3298C9.11892 15.5407 9.0003 15.8267 9 16.125V17.625C9.0003 17.9233 9.11892 18.2093 9.32983 18.4202C9.54075 18.6311 9.82672 18.7497 10.125 18.75ZM3.75 11.625V12.75H5.25V12C5.25 11.9005 5.28951 11.8052 5.35984 11.7348C5.43016 11.6645 5.52554 11.625 5.625 11.625C5.72446 11.625 5.81984 11.6645 5.89017 11.7348C5.96049 11.8052 6 11.9005 6 12V12.75H7.5V11.625C7.5 11.5255 7.53951 11.4302 7.60984 11.3598C7.68016 11.2895 7.77554 11.25 7.875 11.25C7.97446 11.25 8.06984 11.2895 8.14017 11.3598C8.21049 11.4302 8.25 11.5255 8.25 11.625V12.75H9.75V12C9.75 11.9005 9.78951 11.8052 9.85984 11.7348C9.93016 11.6645 10.0255 11.625 10.125 11.625C10.2245 11.625 10.3198 11.6645 10.3902 11.7348C10.4605 11.8052 10.5 11.9005 10.5 12V12.75H12V11.625C12 11.5255 12.0395 11.4302 12.1098 11.3598C12.1802 11.2895 12.2755 11.25 12.375 11.25C12.4745 11.25 12.5698 11.2895 12.6402 11.3598C12.7105 11.4302 12.75 11.5255 12.75 11.625V12.75H13.875C13.9744 12.7497 14.0696 12.7101 14.1398 12.6398C14.2101 12.5696 14.2497 12.4744 14.25 12.375V10.875C14.2497 10.7756 14.2101 10.6804 14.1398 10.6102C14.0696 10.5399 13.9744 10.5003 13.875 10.5H2.25C1.85218 10.5 1.47064 10.658 1.18934 10.9393C0.908035 11.2206 0.75 11.6022 0.75 12V13.875C0.750595 14.3721 0.948331 14.8487 1.29983 15.2002C1.65133 15.5517 2.1279 15.7494 2.625 15.75C2.72446 15.75 2.81984 15.7105 2.89017 15.6402C2.96049 15.5698 3 15.4745 3 15.375C3 15.2755 2.96049 15.1802 2.89017 15.1098C2.81984 15.0395 2.72446 15 2.625 15C2.32663 15 2.04048 14.8815 1.8295 14.6705C1.61853 14.4595 1.5 14.1734 1.5 13.875C1.5 13.5766 1.61853 13.2905 1.8295 13.0795C2.04048 12.8685 2.32663 12.75 2.625 12.75H3V11.625C3 11.5255 3.03951 11.4302 3.10984 11.3598C3.18016 11.2895 3.27554 11.25 3.375 11.25C3.47446 11.25 3.56984 11.2895 3.64017 11.3598C3.71049 11.4302 3.75 11.5255 3.75 11.625ZM21.8426 12.8104C21.7943 12.7965 21.7437 12.7925 21.6938 12.7986C21.644 12.8046 21.5958 12.8207 21.5522 12.8457C21.5087 12.8708 21.4706 12.9043 21.4403 12.9444C21.4099 12.9844 21.3879 13.0302 21.3756 13.0789C21.3633 13.1276 21.3609 13.1783 21.3686 13.228C21.3762 13.2776 21.3938 13.3253 21.4202 13.368C21.4466 13.4107 21.4814 13.4477 21.5224 13.4768C21.5634 13.5058 21.6098 13.5264 21.6589 13.5371C21.9003 13.599 22.1141 13.7397 22.2665 13.9369C22.4189 14.1341 22.501 14.3765 22.5 14.6257V14.6595C22.5008 14.9477 22.3871 15.2245 22.184 15.429C21.9809 15.6334 21.7049 15.7489 21.4166 15.75H10.125C10.0256 15.7503 9.93043 15.7899 9.86016 15.8602C9.7899 15.9304 9.7503 16.0256 9.75 16.125V17.625C9.7503 17.7244 9.7899 17.8196 9.86016 17.8898C9.93043 17.9601 10.0256 17.9997 10.125 18H11.25V16.875C11.25 16.7755 11.2895 16.6802 11.3598 16.6098C11.4302 16.5395 11.5255 16.5 11.625 16.5C11.7245 16.5 11.8198 16.5395 11.8902 16.6098C11.9605 16.6802 12 16.7755 12 16.875V18H13.5V17.25C13.5 17.1505 13.5395 17.0552 13.6098 16.9848C13.6802 16.9145 13.7755 16.875 13.875 16.875C13.9745 16.875 14.0698 16.9145 14.1402 16.9848C14.2105 17.0552 14.25 17.1505 14.25 17.25V18H15.75V16.875C15.75 16.7755 15.7895 16.6802 15.8598 16.6098C15.9302 16.5395 16.0255 16.5 16.125 16.5C16.2245 16.5 16.3198 16.5395 16.3902 16.6098C16.4605 16.6802 16.5 16.7755 16.5 16.875V18H18V17.25C18 17.1505 18.0395 17.0552 18.1098 16.9848C18.1802 16.9145 18.2755 16.875 18.375 16.875C18.4745 16.875 18.5698 16.9145 18.6402 16.9848C18.7105 17.0552 18.75 17.1505 18.75 17.25V18H20.25V16.875C20.25 16.7755 20.2895 16.6802 20.3598 16.6098C20.4302 16.5395 20.5255 16.5 20.625 16.5C20.7245 16.5 20.8198 16.5395 20.8902 16.6098C20.9605 16.6802 21 16.7755 21 16.875V18H21.75C22.1478 18 22.5294 17.842 22.8107 17.5607C23.092 17.2794 23.25 16.8978 23.25 16.5V14.625C23.2507 14.2091 23.1127 13.8048 22.8578 13.4761C22.6029 13.1474 22.2457 12.9132 21.8426 12.8104Z" fill="currentColor"></path>
  </symbol>
  <symbol fill="none" xmlns="http://www.w3.org/2000/svg" viewBox="0 0 24 24" id="balanced">
    <path d="M15.4306 18.3732H8.56935C7.97156 18.3732 7.46535 18.8414 7.46535 19.4397V19.7534H16.5348V19.4397C16.5348 18.8415 16.0284 18.3732 15.4306 18.3732V18.3732ZM13.8533 16.1551H10.1466C9.54885 16.1551 9.04264 16.6234 9.04264 17.2216V17.5846H14.9575V17.2216C14.9575 16.6234 14.4511 16.1552 13.8533 16.1552V16.1551ZM23.6703 12.4819L20.7984 6.33011L22.1977 6.73173C22.2981 6.76018 22.4057 6.74766 22.4969 6.69692C22.5881 6.64618 22.6555 6.56135 22.6843 6.46103C22.7131 6.36074 22.7009 6.25313 22.6505 6.16178C22.6001 6.07043 22.5155 6.00279 22.4153 5.97369L14.0541 3.57444C14.0593 3.51482 14.062 3.45502 14.0624 3.39517C14.0626 2.4419 13.4093 1.61284 12.4826 1.39005C11.5556 1.16711 10.5968 1.6088 10.1638 2.45807L1.80235 0.0588175C1.70233 0.0315356 1.59559 0.0447511 1.50524 0.0956022C1.4149 0.146453 1.34822 0.230846 1.31965 0.330505C1.29112 0.430173 1.30297 0.537061 1.35262 0.628068C1.40227 0.719074 1.48573 0.786888 1.58498 0.816852L3.33074 1.31784L0.302297 7.80492C0.216249 7.82558 0.139648 7.87457 0.0848172 7.94403C0.0299861 8.01349 0.000111956 8.09937 2.7881e-07 8.18786C-0.000591204 9.74814 0.939965 11.1548 2.3821 11.7506C3.82423 12.3463 5.48334 12.0136 6.58429 10.9078C6.94736 10.5538 7.23609 10.1309 7.43354 9.66379C7.63098 9.19671 7.73318 8.69491 7.73413 8.18781C7.73403 8.09452 7.70086 8.00429 7.64051 7.93315C7.58016 7.86201 7.49655 7.81457 7.40453 7.79926L4.54047 1.66499L9.94603 3.21595C9.94074 3.27557 9.93798 3.33538 9.93775 3.39522C9.93913 4.38157 10.6377 5.22931 11.6057 5.41918V15.7116H12.3944V5.41913C12.7012 5.35875 12.9904 5.22957 13.2401 5.04132C13.4898 4.85307 13.6936 4.61065 13.8361 4.33228L19.6027 5.98695L16.5681 12.4875C16.482 12.5081 16.4054 12.5572 16.3506 12.6266C16.2957 12.6961 16.2659 12.782 16.2658 12.8705C16.2652 14.4308 17.2057 15.8375 18.6479 16.4332C20.09 17.0289 21.7491 16.6962 22.8501 15.5905C23.2131 15.2364 23.5019 14.8135 23.6993 14.3464C23.8968 13.8793 23.999 13.3775 23.9999 12.8704C23.9998 12.7771 23.9666 12.6869 23.9063 12.6158C23.8459 12.5446 23.7623 12.4972 23.6703 12.4819ZM6.53155 7.77584H1.17779L3.85464 2.04235L6.53155 7.77584ZM17.4436 12.4584L20.1204 6.72498L22.7973 12.4584H17.4436Z" fill="currentColor"></path>
  </symbol>
  <symbol fill="none" xmlns="http://www.w3.org/2000/svg" viewBox="0 0 24 24" id="high-protein">
    <path d="M21.3748 5.62508V1.87508C21.3748 1.75133 21.311 1.63508 21.2098 1.56383C21.1048 1.49633 20.9735 1.48133 20.861 1.52633L15.2435 3.77258C14.6153 4.0207 14.0765 4.45271 13.6978 5.01207C13.3191 5.57143 13.1181 6.23209 13.121 6.90758V8.62508C13.121 8.64758 13.1248 8.66633 13.1285 8.68883C13.1323 8.69633 13.1285 8.70383 13.1323 8.71133C13.1398 8.74508 13.151 8.77508 13.166 8.80508L13.181 8.82008C13.1979 8.85392 13.2222 8.88343 13.2523 8.90633C13.2635 8.91383 13.2748 8.92508 13.286 8.93633C13.2898 8.94008 13.2973 8.94008 13.301 8.94383C13.3085 8.94758 13.3123 8.95133 13.316 8.95508L16.1773 10.5263L15.2435 10.8976C14.6153 11.1457 14.0765 11.5777 13.6978 12.1371C13.3191 12.6964 13.1181 13.3571 13.121 14.0326V15.7501C13.121 15.7726 13.1248 15.7913 13.1285 15.8138C13.1323 15.8213 13.1285 15.8288 13.1323 15.8363C13.1398 15.8701 13.151 15.9001 13.166 15.9301L13.181 15.9451C13.1979 15.9789 13.2222 16.0084 13.2523 16.0313C13.2635 16.0388 13.2748 16.0501 13.286 16.0613C13.2898 16.0651 13.2973 16.0651 13.301 16.0688C13.3085 16.0726 13.3123 16.0763 13.316 16.0801L16.1773 17.6513L15.4798 17.9288C14.7825 18.2048 14.1846 18.6844 13.7639 19.3051C13.3431 19.9259 13.1191 20.659 13.121 21.4088V22.8751C13.121 22.9988 13.1848 23.1151 13.286 23.1863C13.337 23.2199 13.3952 23.2408 13.4559 23.2473C13.5165 23.2538 13.5779 23.2458 13.6348 23.2238L21.1385 20.2238C21.2083 20.196 21.2681 20.1479 21.3103 20.0858C21.3524 20.0236 21.3749 19.9502 21.3748 19.8751V16.1251C21.3748 16.1026 21.371 16.0838 21.3673 16.0613C21.3635 16.0538 21.3635 16.0463 21.3635 16.0388C21.356 16.0051 21.3448 15.9751 21.3298 15.9451C21.326 15.9451 21.3185 15.9338 21.3148 15.9301C21.3033 15.9066 21.2881 15.8851 21.2698 15.8663C21.2623 15.8588 21.251 15.8513 21.2435 15.8438C21.2323 15.8363 21.221 15.8251 21.2098 15.8138C21.2023 15.8101 21.1985 15.8101 21.191 15.8063C21.1873 15.8063 21.1835 15.7988 21.1798 15.7951L18.3223 14.2238L21.1385 13.0988C21.2083 13.071 21.2681 13.0229 21.3103 12.9608C21.3524 12.8986 21.3749 12.8252 21.3748 12.7501V9.00008C21.3748 8.97758 21.371 8.95883 21.3673 8.93633C21.3635 8.92883 21.3635 8.92133 21.3635 8.91383C21.356 8.88008 21.3448 8.85008 21.3298 8.82008C21.326 8.82008 21.3185 8.80883 21.3148 8.80508C21.3033 8.78158 21.2881 8.76006 21.2698 8.74133C21.2623 8.73383 21.251 8.72633 21.2435 8.71883C21.2323 8.71133 21.221 8.70008 21.2098 8.68883C21.2023 8.68508 21.1985 8.68508 21.191 8.68133C21.1873 8.68133 21.1835 8.67383 21.1798 8.67008L18.3223 7.09883L21.1385 5.97383C21.2083 5.94604 21.2681 5.89794 21.3103 5.83576C21.3524 5.77358 21.3749 5.70019 21.3748 5.62508ZM20.1223 16.0726L17.0773 17.2876L14.3735 15.8026L14.591 15.7163L17.4223 14.5838L20.1223 16.0726ZM20.1223 8.94758L17.0773 10.1626L14.3735 8.67758L14.591 8.59133L17.4223 7.45883L20.1223 8.94758ZM7.99105 3.59258C9.2248 2.49758 10.3498 1.83758 10.8185 1.58258C11.1673 1.94258 11.9585 2.83508 12.7235 4.19258C12.791 4.31633 12.9185 4.38383 13.0498 4.38383C13.1152 4.38372 13.1794 4.3665 13.2361 4.33389C13.2928 4.30128 13.34 4.2544 13.373 4.19792C13.406 4.14144 13.4236 4.07731 13.4241 4.01191C13.4247 3.9465 13.4081 3.8821 13.376 3.82508C12.296 1.91258 11.1898 0.888833 11.141 0.847583C11.0285 0.746333 10.8635 0.720082 10.7285 0.783832C10.6648 0.813832 9.1948 1.51883 7.4923 3.03008C7.4182 3.09622 7.37342 3.18908 7.36779 3.28824C7.36216 3.3874 7.39616 3.48474 7.4623 3.55883C7.52844 3.63293 7.6213 3.67771 7.72046 3.68334C7.81962 3.68897 7.91695 3.65497 7.99105 3.58883V3.59258Z" fill="currentColor"></path>
    <path d="M9.41585 19.4851C11.0471 19.4064 12.4271 18.8214 13.4208 17.7639C13.5633 17.6139 13.5558 17.3739 13.4058 17.2351C13.3702 17.2013 13.3282 17.1749 13.2823 17.1573C13.2364 17.1398 13.1875 17.1315 13.1384 17.1329C13.0892 17.1343 13.0409 17.1453 12.996 17.1655C12.9512 17.1856 12.9108 17.2143 12.8771 17.2501C11.9808 18.2026 10.7621 18.6976 9.25835 18.7426C8.95857 17.162 8.82036 15.555 8.84585 13.9464C9.04835 13.6089 9.89585 12.3751 11.6246 12.3751C11.8308 12.3751 11.9996 12.2064 11.9996 12.0001C11.9996 11.7939 11.8308 11.6251 11.6246 11.6251C10.3421 11.6251 9.4571 12.1689 8.89835 12.7014C8.95085 11.9176 9.04085 11.1001 9.1796 10.2564C9.37835 9.9901 10.1621 9.09385 11.5496 9.3676C11.7558 9.40885 11.9508 9.2776 11.9921 9.0751C12.0333 8.8726 11.9021 8.67385 11.6996 8.6326C10.6983 8.43385 9.94085 8.7001 9.40835 9.04135C9.6596 7.8676 10.0083 6.6451 10.4771 5.3776C10.5483 5.1826 10.4508 4.96885 10.2558 4.89385C10.0608 4.8226 9.8471 4.9201 9.7721 5.1151C9.4721 5.92135 9.2246 6.7126 9.0146 7.48885C8.2721 6.63385 7.25585 6.39385 7.20335 6.3826C7.00085 6.3376 6.8021 6.4651 6.7571 6.6676C6.7121 6.8701 6.8396 7.06885 7.0421 7.11385C7.05335 7.11385 8.23835 7.39885 8.77085 8.46385C8.6471 8.9926 8.54585 9.5101 8.4596 10.0164C8.4521 10.0464 8.4446 10.0764 8.4446 10.1064C8.35835 10.6389 8.2871 11.1564 8.2346 11.6664C7.2146 10.2751 5.81585 9.79135 5.74085 9.7651C5.69432 9.74938 5.64514 9.74302 5.59615 9.7464C5.54715 9.74978 5.49931 9.76283 5.45538 9.78479C5.41146 9.80676 5.37231 9.8372 5.34021 9.87437C5.30811 9.91154 5.28369 9.9547 5.26835 10.0014C5.20085 10.1964 5.3096 10.4101 5.5046 10.4776C5.52335 10.4851 7.32335 11.1151 8.1296 12.9864C8.1146 13.2601 8.1071 13.5301 8.10335 13.7926C8.09585 13.8414 8.0921 13.8864 8.10335 13.9314C8.0996 14.2014 8.10335 14.4676 8.10335 14.7301C6.9971 13.6239 5.4371 13.1589 5.3546 13.1364C5.15585 13.0801 4.9496 13.1926 4.8896 13.3914C4.83335 13.5901 4.94585 13.7964 5.1446 13.8564C5.1671 13.8639 7.36835 14.5201 8.1596 16.0464C8.23085 17.0251 8.35085 17.9176 8.4971 18.7126C6.9071 18.5626 5.4446 17.7601 4.5146 16.4964C3.64085 15.3151 2.81585 13.2001 3.8471 9.8551C4.43585 7.94635 5.47835 6.1801 6.9446 4.60885C7.01223 4.53625 7.04825 4.43976 7.04473 4.3406C7.04122 4.24144 6.99845 4.14773 6.92585 4.0801C6.85325 4.01247 6.75675 3.97646 6.65759 3.97997C6.55843 3.98349 6.46473 4.02625 6.3971 4.09885C4.8521 5.7526 3.75335 7.61635 3.13085 9.6376C2.25335 12.4839 2.53085 15.0789 3.91085 16.9464C5.01335 18.4426 6.7646 19.3726 8.65085 19.4851C9.13835 21.7051 9.7721 23.0101 9.7871 23.0401C9.80906 23.0841 9.83953 23.1233 9.87674 23.1555C9.91396 23.1877 9.95719 23.2121 10.0039 23.2275C10.0507 23.2428 10.1 23.2487 10.149 23.2449C10.198 23.2411 10.2458 23.2275 10.2896 23.2051C10.4733 23.1114 10.5483 22.8864 10.4583 22.7026C10.4433 22.6726 9.87335 21.4951 9.41585 19.4776V19.4851Z" fill="currentColor"></path>
  </symbol>
  <symbol fill="none" xmlns="http://www.w3.org/2000/svg" viewBox="0 0 24 24" id="vegetarian">
    <g clip-path="url(#clip0_529_9257)">
      <path d="M4.27417 7.14664H4.34488C4.39702 7.02505 4.44959 6.90946 4.50442 6.80232C4.69961 6.41142 4.93946 6.04447 5.21918 5.70882L4.46236 4.95175H2.53252V4.11151H3.61997L2.2352 2.72668L2.82984 2.13199L4.21467 3.51703V2.42936H5.05574V4.3581L5.80257 5.10493C6.23508 4.71906 6.72518 4.40308 7.25516 4.16839C6.60338 2.60141 5.07052 1.5825 3.37359 1.58828H1.69144V3.27044C1.68466 4.96731 2.70557 6.49964 4.27417 7.14664ZM5.25534 7.18154C5.24525 7.20168 5.23563 7.2236 5.22517 7.24541C6.28987 7.4949 7.34305 8.21276 8.33342 9.38732C9.49425 10.7868 10.3353 12.423 10.7977 14.1815C10.9461 14.8072 10.9811 15.4545 10.9012 16.0927L18.6836 14.5044C19.4762 14.3414 20.3011 14.4942 20.9828 14.9303L21.3873 14.0282C21.9841 12.6988 22.2943 11.2587 22.2978 9.8015C22.2971 8.89193 22.0848 7.99499 21.6779 7.18154C21.2822 6.38481 20.6714 5.71472 19.9146 5.24707C18.1918 4.18479 15.9877 4.31805 14.4056 5.58008L13.887 5.99547V5.40304C13.8846 4.51513 14.0583 3.63556 14.3981 2.81523C14.7378 1.9949 15.237 1.25012 15.8665 0.62399L15.2719 0.0292969C14.5639 0.733333 14.0027 1.5708 13.6206 2.49322C13.2385 3.41563 13.0432 4.40468 13.046 5.40309V5.99552L12.5264 5.57924C11.6773 4.90272 10.6242 4.53362 9.53852 4.53205C7.72211 4.52464 6.05988 5.5528 5.25534 7.18154Z" fill="currentColor"></path>
      <path d="M13.2238 3.24069C13.0187 1.74089 11.8394 0.561597 10.3398 0.356689C10.545 1.85628 11.7242 3.03552 13.2238 3.24069ZM4.80261 12.562C3.22129 12.9334 2.23975 14.5154 2.60898 16.0969C2.74438 16.6791 3.05747 17.2048 3.50489 17.6012L8.14847 16.6537C8.37913 16.1532 8.46449 15.598 8.39482 15.0514C8.32515 14.5048 8.10324 13.9887 7.75442 13.5621C7.40562 13.1355 6.94391 12.8155 6.42198 12.6386C5.90006 12.4617 5.33893 12.4352 4.80261 12.5619V12.562Z" fill="currentColor"></path>
      <path d="M1.62656 17.9855L2.53213 17.801C1.55386 16.5895 1.41771 14.9026 2.18861 13.5496C2.95945 12.1968 4.48022 11.4541 6.02108 11.6779C7.56198 11.9017 8.80856 13.0465 9.1626 14.5627C9.30611 15.1884 9.28951 15.8402 9.11434 16.4578L10.0152 16.2741C10.1375 15.6448 10.1255 14.9967 9.97986 14.3724C9.55019 12.7414 8.76871 11.2243 7.6903 9.92756C6.79129 8.86371 5.37734 7.67522 3.75085 8.05796C2.12411 8.4407 1.38265 10.1303 1.04874 11.4828C0.657368 13.1229 0.630237 14.8287 0.969257 16.4804C1.09568 17.0177 1.31837 17.5276 1.62656 17.9855ZM24.0001 17.1394L23.8268 16.316L22.8596 16.52L23.4198 15.7038L22.726 15.2284L21.5719 16.9106C21.5501 16.9439 21.5334 16.9802 21.5223 17.0184C21.2767 15.9972 20.3617 15.2788 19.3115 15.2819C19.1572 15.2819 19.0031 15.2975 18.8518 15.3283L18.8099 15.3371C18.8688 15.8464 18.8333 16.3623 18.7052 16.8589L18.6631 17.0196L17.8498 16.8063L17.8918 16.6461C17.9881 16.2741 18.0194 15.8883 17.9842 15.5057L15.5657 15.9989C15.6462 16.6353 15.577 17.2817 15.3639 17.8868L14.5717 17.604C14.7346 17.1437 14.793 16.6528 14.7427 16.1671L12.6901 16.5876C12.7295 17.1512 12.6534 17.7169 12.4665 18.2501L11.6741 17.9675C11.8114 17.5792 11.8747 17.1685 11.8607 16.7568L9.80408 17.1773C9.81112 17.666 9.73151 18.1521 9.56894 18.6131L8.77613 18.3258C8.88704 18.0104 8.94907 17.68 8.9599 17.346L6.904 17.7665C6.88771 18.1779 6.80901 18.5845 6.6706 18.9722L5.87878 18.6886C5.9642 18.4473 6.02071 18.1966 6.04699 17.9418L0.413359 19.0911C0.288792 19.1141 0.177406 19.183 0.101299 19.2843C0.0251912 19.3855 -0.0100763 19.5117 0.00249312 19.6377C0.0150901 19.7638 0.0746277 19.8804 0.169279 19.9646C0.26393 20.0487 0.386769 20.0942 0.513394 20.0919H19.0731C19.3736 20.0928 19.6713 20.0341 19.9489 19.9191C20.2265 19.8041 20.4785 19.6352 20.6904 19.4221L20.9263 19.1858C21.1394 18.9739 21.3083 18.7219 21.4233 18.4444C21.5383 18.1668 21.5971 17.8692 21.5963 17.5687C21.5963 17.5065 21.5836 17.4474 21.5787 17.3863C21.5883 17.4036 21.5992 17.4202 21.6113 17.4359L23.1859 19.118L23.7998 18.5429L22.7356 17.4073L24.0001 17.1394Z" fill="currentColor"></path>
    </g>
    <defs>
      <clipPath id="clip0_529_9257">
        <rect width="24" height="24" fill="white"></rect>
      </clipPath>
    </defs>
  </symbol>
  <symbol fill="none" xmlns="http://www.w3.org/2000/svg" viewBox="0 0 24 24" id="bulking-plan">
    <path d="M13.9219 18.3329L13.4953 17.9626C13.2703 17.7704 12.9844 17.6626 12.6844 17.6626H11.3156C10.8234 17.6298 10.4156 18.0329 10.0781 18.3329C9.825 18.5485 9.67031 18.8673 9.65156 19.2048L9.49688 22.111H14.4984L14.3438 19.2048C14.3297 18.8673 14.175 18.5485 13.9219 18.3329ZM12.5297 19.936C12.8062 20.0298 13.0594 19.9688 13.1813 19.922C13.4953 19.8095 13.6781 20.2923 13.3594 20.4095C13.0875 20.5267 12.5859 20.5501 12.2578 20.3907V20.822C12.4828 21.047 13.0078 21.0517 13.1813 20.9532C13.5 20.8407 13.6781 21.3235 13.3594 21.4407C13.0875 21.5579 12.5859 21.5813 12.2578 21.422V21.6563C12.2578 21.797 12.1406 21.9142 12 21.9142C11.8547 21.9142 11.7422 21.797 11.7422 21.6563V21.422C11.4187 21.5813 10.9125 21.5579 10.6406 21.4407C10.3219 21.3235 10.4953 20.8407 10.8188 20.9532C10.9922 21.0517 11.5172 21.047 11.7422 20.822V20.3907C11.4187 20.5501 10.9125 20.5267 10.6406 20.4095C10.3219 20.2923 10.5 19.8095 10.8188 19.922C10.9922 20.0204 11.5172 20.011 11.7422 19.7907V19.3595C11.4187 19.5188 10.9125 19.4954 10.6406 19.3782C10.3219 19.261 10.5 18.7782 10.8188 18.8907C10.9922 18.9892 11.5125 18.9798 11.7422 18.7548V18.5532C11.7422 18.4126 11.8547 18.2954 12 18.2954C12.1406 18.2954 12.2578 18.4126 12.2578 18.5532V18.7548C12.4828 18.9845 13.0078 18.9845 13.1813 18.8907C13.4953 18.7782 13.6781 19.261 13.3594 19.3782C13.0875 19.4907 12.5859 19.5188 12.2578 19.3595V19.7907C12.3422 19.8517 12.4312 19.9032 12.5297 19.936ZM19.1906 3.20165C18.6047 3.15009 17.9906 3.28603 17.3719 3.59071C17.0156 4.99696 18.5578 5.85009 19.6781 4.98759C19.8375 4.85165 20.0953 4.9829 20.0953 5.18446C20.1 5.3204 20.1234 5.45165 20.1609 5.57353C20.2453 5.82196 20.3953 5.9954 20.5031 6.09853C20.5641 6.15478 20.5969 6.23915 20.5828 6.31884C20.5266 6.73134 20.5641 7.14384 20.6859 7.5329C20.9062 8.24071 21.3516 8.70009 21.6937 8.9579C21.8719 9.08446 21.7969 9.39384 21.5766 9.41728C21.0938 9.50165 20.3625 9.51103 19.9359 9.46884C19.3266 9.39853 18.9797 9.54384 18.6328 10.0688C18.5766 10.1532 18.4781 10.2001 18.375 10.1813C17.8453 10.1017 17.2969 10.1438 16.7906 10.2985C16.1859 10.486 15.75 10.7954 15.4875 11.0251C15.4172 11.086 15.3094 11.1048 15.2203 11.0673C14.6297 10.8376 14.1281 10.4063 13.7953 9.86728C13.3031 10.3454 12.675 10.8329 11.9578 10.8938C11.25 10.8329 10.6359 10.3548 10.1391 9.89071C9.84375 10.4345 9.35625 10.861 8.775 11.072C8.68594 11.1048 8.5875 11.086 8.51719 11.0251C8.1375 10.697 7.6875 10.4485 7.21406 10.2985C6.70781 10.1438 6.15937 10.1017 5.62969 10.1813C5.52656 10.1954 5.42812 10.1485 5.37187 10.0642C5.02969 9.53915 4.67813 9.39384 4.06875 9.46415C3.6375 9.50634 2.91562 9.49696 2.42812 9.41259C2.20781 9.38915 2.12812 9.07978 2.31094 8.95321C2.64844 8.6954 3.09844 8.23603 3.31875 7.52821C3.44063 7.13915 3.47344 6.72665 3.42188 6.31415C3.40781 6.22978 3.44062 6.15009 3.50156 6.09384C3.60937 5.99071 3.75938 5.81728 3.84375 5.56884C3.88594 5.44228 3.90938 5.31571 3.90938 5.18446C3.90938 4.97821 4.17188 4.85165 4.32656 4.9829C5.44688 5.8454 6.98438 4.98759 6.63281 3.58603C3.37031 2.05321 0.834375 5.33915 0.046875 9.5204C0.0703125 9.62821 0.154687 9.92821 0.417187 10.0548C0.614062 10.172 0.970312 10.0126 1.02656 10.3267C1.3125 12.2063 3.04688 13.9688 5.26875 13.9735C5.42812 13.9735 5.55937 14.1329 5.51719 14.2876C5.45625 14.5501 5.4375 14.8126 5.45156 15.0657C5.53125 16.1626 6.19219 16.8845 6.4875 17.2313C7.35469 18.2438 7.91719 19.8798 8.16094 22.1063H8.98594L9.14062 19.172C9.16875 18.6938 9.38437 18.2438 9.74531 17.9345L10.1766 17.5642C10.4953 17.2876 10.9031 17.1376 11.325 17.1376H12.6937C13.3219 17.1095 13.8375 17.5267 14.2687 17.9345C14.6297 18.2438 14.85 18.6938 14.8734 19.172L15.0281 22.1063H15.8531C16.0922 19.8845 16.6547 18.2392 17.5266 17.2313C17.8172 16.8892 18.4875 16.1673 18.5578 15.0657C18.5719 14.8079 18.5484 14.5501 18.4922 14.2876C18.4547 14.1329 18.5812 13.9688 18.7406 13.9735C19.2703 13.9642 20.2969 13.8423 21.2625 13.1345C22.5328 12.2017 22.8891 10.861 22.9828 10.3267C23.0391 10.0173 23.3953 10.172 23.5875 10.0548C23.8547 9.92353 23.9391 9.62353 23.9578 9.5204C23.3344 5.97665 21.3797 3.37978 19.1906 3.20165ZM13.5563 14.522C13.9359 14.5313 13.9359 15.0892 13.5563 15.0985C13.1813 15.0892 13.1813 14.5313 13.5563 14.522ZM10.4438 14.522C10.8234 14.5313 10.8234 15.0892 10.4438 15.0985C10.0641 15.0892 10.0641 14.5313 10.4438 14.522ZM18.4172 12.7126C17.7141 13.1298 17.0672 13.6829 16.7109 14.4376L16.1578 15.5485C15.9281 16.0079 15.4641 16.3079 14.9484 16.3267L13.3594 16.3876C12.7828 16.4204 12.225 16.0595 12.0047 15.5251C11.7844 16.0595 11.2219 16.4204 10.65 16.3876L9.06094 16.3267C8.54531 16.3079 8.08125 16.0079 7.85156 15.5438L7.29844 14.4376C7.00312 13.847 6.55781 13.3454 6.00469 12.9845L5.59219 12.7126C5.475 12.6329 5.4375 12.4735 5.51719 12.3563C5.59687 12.2345 5.75625 12.2017 5.87344 12.2813L6.28594 12.5485C6.91406 12.961 7.425 13.5329 7.75781 14.2032L8.31094 15.3095C8.45625 15.6001 8.75156 15.7923 9.07969 15.8017L10.6688 15.8626C11.5453 15.8532 11.6156 15.0985 11.6812 14.4095C11.7094 14.1938 11.6859 13.7017 12 13.697C12.3141 13.697 12.2906 14.1798 12.3187 14.3907C12.3844 15.0845 12.45 15.8532 13.3312 15.8579L14.9203 15.797C15.2484 15.7829 15.5391 15.5954 15.6844 15.3048L16.2375 14.1985C16.575 13.5235 17.0859 12.9517 17.7094 12.5438L18.1219 12.2767C18.4078 12.0938 18.7031 12.5251 18.4172 12.7126ZM9.04688 6.54384C8.27812 5.21728 8.72344 3.56728 9.99375 2.98603C10.6781 2.30165 11.5828 1.87978 12.4922 1.89384C15.0375 1.84696 16.1344 4.93134 14.7 6.84853C14.4844 6.47821 14.3625 6.0704 14.2594 5.64853C14.175 5.3579 13.7906 5.4704 13.5609 5.41415C12.5531 5.30165 11.5688 5.07196 10.6219 4.71571C10.3266 4.62196 10.2703 4.92196 10.2094 5.13759C10.0266 5.78446 9.69844 6.37509 9.27188 6.88603C9.18281 6.77821 9.11719 6.66103 9.04688 6.54384ZM14.2828 7.16259C14.325 7.2329 14.3625 7.3079 14.4094 7.37821C14.3719 8.59696 13.3781 9.88603 12.1875 10.3407C11.7047 10.5001 11.2359 10.0876 10.8609 9.84384C10.1578 9.2954 9.70781 8.51728 9.51094 7.62665V7.40165C10.05 6.79228 10.4625 6.07509 10.7062 5.29696C11.7141 5.64853 12.7406 5.86415 13.8 5.9579C13.9031 6.38446 14.0625 6.7829 14.2828 7.16259Z" fill="currentColor"></path>
  </symbol>
  <symbol fill="none" xmlns="http://www.w3.org/2000/svg" viewBox="0 0 24 24" id="drying-plan">
    <path d="M17.4981 7.30907C17.4981 7.30907 13.2362 12.6545 13.2362 17.6582C13.2362 20.0145 15.149 21.92 17.4981 21.92C19.8471 21.92 21.7599 20.0145 21.7599 17.6582C21.7599 12.6545 17.4981 7.30907 17.4981 7.30907ZM16.1744 14.6218H16.1599C15.9671 14.6218 15.8035 14.4691 15.7962 14.2727C15.7017 11.9891 16.7162 10.0218 16.7599 9.93816C16.8544 9.75998 17.0726 9.69089 17.2508 9.78544C17.429 9.87998 17.4981 10.0982 17.4035 10.2763C17.3926 10.2945 16.4362 12.16 16.5235 14.2436C16.5308 14.4436 16.3744 14.6109 16.1744 14.6218ZM17.949 19.1054C18.0581 19.2763 18.0071 19.4982 17.8362 19.6073C17.7744 19.6473 17.709 19.6654 17.6435 19.6654C17.5235 19.6654 17.4035 19.6073 17.3344 19.4982C17.1099 19.1402 16.9908 18.7262 16.9908 18.3036C16.9908 17.8811 17.1099 17.467 17.3344 17.1091C17.4399 16.9382 17.6653 16.8873 17.8362 16.9963C18.0071 17.1054 18.0581 17.3273 17.949 17.4982C17.7975 17.7389 17.7172 18.0174 17.7172 18.3018C17.7172 18.5862 17.7975 18.8647 17.949 19.1054ZM19.3271 16.8363C19.1271 16.8363 18.9635 16.6727 18.9635 16.4727C18.9635 14.5745 17.9599 12.3563 17.949 12.3345C17.8653 12.1527 17.9453 11.9345 18.1308 11.8509C18.3126 11.7673 18.5308 11.8473 18.6144 12.0327C18.6581 12.1309 19.6908 14.4182 19.6908 16.4727C19.6908 16.6727 19.5271 16.8363 19.3271 16.8363ZM7.65442 5.62544V10.7854C7.65442 11.4545 8.18169 12.04 8.84715 12.0327H8.86169C9.26521 12.0251 9.64956 11.8592 9.93187 11.5707C10.2142 11.2823 10.3718 10.8945 10.3708 10.4909C10.3708 10.2727 10.3271 10.0691 10.2435 9.87998C10.2047 9.78883 10.1933 9.68833 10.2107 9.59079C10.2281 9.49326 10.2737 9.40293 10.3417 9.33089C10.4399 9.22544 10.5781 9.15998 10.7235 9.16725C11.1235 9.18907 11.5271 9.05453 11.8435 8.76725C12.4835 8.1818 12.509 7.15271 11.8944 6.53816C11.8467 6.48734 11.7944 6.44108 11.7381 6.39998C11.3853 6.1418 11.1671 5.7418 11.1671 5.3018V5.20362C11.1671 4.84362 11.3308 4.50907 11.5962 4.2618C11.6071 4.25089 11.6181 4.23998 11.6253 4.22907C12.0071 3.80725 12.0035 3.14907 11.6217 2.73089C11.4957 2.59454 11.3373 2.49209 11.1613 2.43299C10.9853 2.37389 10.7972 2.36004 10.6144 2.39271C10.2544 2.45453 9.87624 2.35634 9.66169 2.0618C9.57805 1.94544 9.51624 1.81816 9.49805 1.67634C9.45881 1.40896 9.32342 1.16506 9.11724 0.990343C8.91107 0.815628 8.64825 0.722089 8.37805 0.727254C7.76715 0.738163 7.28715 1.2618 7.28715 1.87271C7.28715 1.2618 6.81078 0.738163 6.19624 0.727254C5.92618 0.722635 5.66365 0.81637 5.45759 0.990987C5.25153 1.1656 5.11599 1.40919 5.07624 1.67634C5.05805 1.81816 4.99624 1.94907 4.90896 2.06544C4.69442 2.35998 4.31987 2.45816 3.95987 2.39634C3.60715 2.33453 3.22533 2.44725 2.95624 2.73453C2.57442 3.15271 2.57078 3.81089 2.9526 4.23271C2.95987 4.24362 2.97078 4.25453 2.98169 4.26544C3.24714 4.51271 3.41078 4.84725 3.41078 5.20725V5.30544C3.41078 5.73453 3.20714 6.13453 2.86169 6.38544C2.79987 6.43271 2.73805 6.48362 2.68351 6.53816C2.0726 7.15271 2.09805 8.1818 2.73805 8.76725C3.05078 9.05453 3.45442 9.18907 3.85442 9.16725C3.99987 9.15998 4.14169 9.22544 4.23624 9.33089C4.37805 9.47998 4.41078 9.69453 4.33442 9.87998C4.25442 10.0654 4.20714 10.2727 4.20714 10.4909C4.20714 11.3309 4.87987 12.0145 5.71624 12.0327H5.73078C6.39987 12.04 6.92351 11.4545 6.92351 10.7854V5.62544C6.92351 5.42544 7.08715 5.2618 7.28715 5.2618C7.48715 5.2618 7.65442 5.42544 7.65442 5.62544ZM10.3526 4.96725C10.4944 5.10907 10.4944 5.33816 10.3526 5.47998C10.115 5.71928 9.98173 6.04279 9.98173 6.37998C9.98173 6.71717 10.115 7.04069 10.3526 7.27998C10.4033 7.33076 10.4379 7.39548 10.4517 7.46591C10.4656 7.53635 10.4583 7.60932 10.4306 7.67557C10.4029 7.74181 10.3562 7.79834 10.2964 7.83797C10.2365 7.87761 10.1662 7.89856 10.0944 7.89816C9.99987 7.89816 9.90896 7.8618 9.83624 7.79271C9.05805 7.01453 9.05805 5.74544 9.83624 4.96362C9.97805 4.82544 10.2071 4.82544 10.3526 4.96725ZM8.68715 2.59271C8.88715 2.59271 9.05078 2.75634 9.05078 2.95634C9.05078 3.18544 9.23624 3.37089 9.46533 3.37089C9.66533 3.37089 9.82896 3.53453 9.82896 3.73453C9.82896 3.93453 9.66533 4.09816 9.46533 4.09816C8.83624 4.09816 8.32351 3.58544 8.32351 2.95634C8.32351 2.75634 8.48351 2.59271 8.68715 2.59271ZM9.1926 7.85089C9.3926 7.85089 9.55624 8.01453 9.55624 8.21453C9.55624 8.41453 9.3926 8.57816 9.1926 8.57816C8.96351 8.57816 8.77805 8.76362 8.77805 8.99271C8.77805 9.19271 8.61442 9.35635 8.41442 9.35635C8.21442 9.35635 8.05078 9.19271 8.05078 8.99271C8.05078 8.36362 8.56351 7.85089 9.1926 7.85089ZM4.48351 7.9018C4.38896 7.9018 4.29805 7.86544 4.22533 7.79635C4.19162 7.7627 4.16487 7.72274 4.14662 7.67875C4.12838 7.63476 4.11898 7.58761 4.11898 7.53998C4.11898 7.49236 4.12838 7.4452 4.14662 7.40121C4.16487 7.35722 4.19162 7.31726 4.22533 7.28362C4.46289 7.04432 4.5962 6.72081 4.5962 6.38362C4.5962 6.04643 4.46289 5.72291 4.22533 5.48362C4.19166 5.44995 4.16496 5.40998 4.14674 5.366C4.12852 5.32201 4.11914 5.27487 4.11914 5.22725C4.11914 5.17964 4.12852 5.1325 4.14674 5.08851C4.16496 5.04452 4.19166 5.00456 4.22533 4.97089C4.25899 4.93722 4.29896 4.91052 4.34295 4.8923C4.38693 4.87408 4.43408 4.8647 4.48169 4.8647C4.5293 4.8647 4.57645 4.87408 4.62043 4.8923C4.66442 4.91052 4.70439 4.93722 4.73805 4.97089C5.51624 5.74907 5.51624 7.01816 4.73805 7.79998C4.66974 7.86583 4.57839 7.90237 4.48351 7.9018ZM6.16351 10.1673C5.96351 10.1673 5.79987 10.0036 5.79987 9.80362C5.79987 9.57453 5.61442 9.38907 5.38533 9.38907C5.18533 9.38907 5.02169 9.22544 5.02169 9.02544C5.02169 8.82544 5.18533 8.6618 5.38533 8.6618C6.01442 8.6618 6.52715 9.17453 6.52715 9.80362C6.52715 10.0036 6.36351 10.1673 6.16351 10.1673ZM5.38533 4.63998C5.18533 4.63998 5.02169 4.47634 5.02169 4.27634C5.02169 4.07634 5.18533 3.91271 5.38533 3.91271C5.61442 3.91271 5.79987 3.72725 5.79987 3.49816C5.79987 3.29816 5.96351 3.13453 6.16351 3.13453C6.36351 3.13453 6.52715 3.29816 6.52715 3.49816C6.52715 4.12725 6.01442 4.63998 5.38533 4.63998Z" fill="currentColor"></path>
    <path d="M12.5091 17.6581C12.5091 17.4327 12.52 17.2108 12.5345 16.9854C11.9521 16.7235 11.3503 16.5071 10.7345 16.3381C10.5382 16.2872 10.4218 16.0908 10.4727 15.8945C10.5236 15.6981 10.72 15.5818 10.9163 15.6327C10.9672 15.6472 11.7163 15.8399 12.6109 16.2218C12.6763 15.7381 12.7745 15.2581 12.8945 14.7854C9.97452 13.8508 7.06543 13.8363 7.06543 13.8363C7.06543 13.8363 8.37816 19.6945 11.7963 22.4436C13.16 23.5418 15.0545 23.5199 16.3891 22.5163C14.1672 22.0108 12.5091 20.0254 12.5091 17.6581ZM11.3709 18.7927C11.337 18.839 11.2927 18.8767 11.2415 18.9026C11.1903 18.9285 11.1337 18.9419 11.0763 18.9418C11 18.9418 10.9272 18.9199 10.8618 18.869C9.23634 17.669 8.44361 15.8836 8.41088 15.8072C8.33088 15.6218 8.41452 15.4109 8.59998 15.3272C8.78543 15.2472 8.99997 15.3308 9.07997 15.5163C9.08725 15.5345 9.8327 17.2036 11.2945 18.2836C11.4545 18.4036 11.4872 18.6327 11.3709 18.7927Z" fill="currentColor"></path>
  </symbol>
  <symbol fill="none" xmlns="http://www.w3.org/2000/svg" viewBox="0 0 32 32" id="arrow-up">
    <path d="M9.33333 24C8.93333 24 8.66667 23.8667 8.4 23.6C7.86667 23.0667 7.86667 22.2667 8.4 21.7333L21.7333 8.4C22.2667 7.86667 23.0667 7.86667 23.6 8.4C24.1333 8.93333 24.1333 9.73333 23.6 10.2667L10.2667 23.6C10 23.8667 9.73333 24 9.33333 24Z" fill="currentColor"></path>
    <path d="M22.6663 22.6667C21.8663 22.6667 21.333 22.1333 21.333 21.3333V10.6667H10.6663C9.86634 10.6667 9.33301 10.1333 9.33301 9.33333C9.33301 8.53333 9.86634 8 10.6663 8H22.6663C23.4663 8 23.9997 8.53333 23.9997 9.33333V21.3333C23.9997 22.1333 23.4663 22.6667 22.6663 22.6667Z" fill="currentColor"></path>
  </symbol>
  <symbol fill="none" xmlns="http://www.w3.org/2000/svg" viewBox="0 0 21 20" id="star">
    <path d="M10.318 16.5164L15.322 19.543C16.2384 20.0976 17.3598 19.2777 17.1187 18.2407L15.7923 12.5493L20.2175 8.7149C21.0254 8.01554 20.5913 6.68916 19.5302 6.60475L13.7062 6.11038L11.4273 0.732522C11.0173 -0.244174 9.61859 -0.244174 9.20862 0.732522L6.92966 6.09832L1.10566 6.5927C0.0445633 6.6771 -0.389524 8.00348 0.41836 8.70284L4.84364 12.5373L3.51726 18.2286C3.2761 19.2656 4.39749 20.0856 5.3139 19.5309L10.318 16.5164Z" fill="currentColor"></path>
  </symbol>
  <symbol fill="none" xmlns="http://www.w3.org/2000/svg" viewBox="0 0 20 20" id="facebook">
    <path d="M18.3346 10.0003C18.3346 5.40033 14.6013 1.66699 10.0013 1.66699C5.4013 1.66699 1.66797 5.40033 1.66797 10.0003C1.66797 14.0337 4.53464 17.392 8.33463 18.167V12.5003H6.66797V10.0003H8.33463V7.91699C8.33463 6.30866 9.64297 5.00033 11.2513 5.00033H13.3346V7.50033H11.668C11.2096 7.50033 10.8346 7.87533 10.8346 8.33366V10.0003H13.3346V12.5003H10.8346V18.292C15.043 17.8753 18.3346 14.3253 18.3346 10.0003Z" fill="currentColor"></path>
  </symbol>
  <symbol fill="none" xmlns="http://www.w3.org/2000/svg" viewBox="0 0 20 20" id="instagram">
    <path d="M10.8545 1.66699C11.792 1.66949 12.2679 1.67449 12.6787 1.68616L12.8404 1.69199C13.027 1.69866 13.2112 1.70699 13.4337 1.71699C14.3204 1.75866 14.9254 1.89866 15.4562 2.10449C16.0062 2.31616 16.4695 2.60283 16.9329 3.06533C17.3568 3.48177 17.6847 3.98572 17.8937 4.54199C18.0995 5.07283 18.2395 5.67783 18.2812 6.56533C18.2912 6.78699 18.2995 6.97116 18.3062 7.15866L18.3112 7.32033C18.3237 7.73033 18.3287 8.20616 18.3304 9.14366L18.3312 9.76533V10.857C18.3332 11.4648 18.3268 12.0727 18.312 12.6803L18.307 12.842C18.3004 13.0295 18.292 13.2137 18.282 13.4353C18.2404 14.3228 18.0987 14.927 17.8937 15.4587C17.6847 16.0149 17.3568 16.5189 16.9329 16.9353C16.5164 17.3592 16.0125 17.6871 15.4562 17.8962C14.9254 18.102 14.3204 18.242 13.4337 18.2837L12.8404 18.3087L12.6787 18.3137C12.2679 18.3253 11.792 18.3312 10.8545 18.3328L10.2329 18.3337H9.14203C8.53392 18.3358 7.92581 18.3294 7.31787 18.3145L7.1562 18.3095C6.95838 18.302 6.7606 18.2934 6.56287 18.2837C5.6762 18.242 5.0712 18.102 4.53954 17.8962C3.98356 17.687 3.47991 17.3591 3.0637 16.9353C2.63949 16.519 2.31129 16.015 2.10204 15.4587C1.8962 14.9278 1.7562 14.3228 1.71454 13.4353L1.68954 12.842L1.68537 12.6803C1.67001 12.0727 1.66306 11.4648 1.66454 10.857V9.14366C1.66223 8.53583 1.66834 7.92799 1.68287 7.32033L1.6887 7.15866C1.69537 6.97116 1.7037 6.78699 1.7137 6.56533C1.75537 5.67783 1.89537 5.07366 2.1012 4.54199C2.31095 3.98549 2.63972 3.48152 3.06454 3.06533C3.4805 2.64162 3.98386 2.31372 4.53954 2.10449C5.0712 1.89866 5.67537 1.75866 6.56287 1.71699C6.78454 1.70699 6.96954 1.69866 7.1562 1.69199L7.31787 1.68699C7.92553 1.67219 8.53336 1.6658 9.1412 1.66783L10.8545 1.66699ZM9.99787 5.83366C8.8928 5.83366 7.83299 6.27265 7.05159 7.05405C6.27019 7.83545 5.8312 8.89526 5.8312 10.0003C5.8312 11.1054 6.27019 12.1652 7.05159 12.9466C7.83299 13.728 8.8928 14.167 9.99787 14.167C11.1029 14.167 12.1627 13.728 12.9441 12.9466C13.7255 12.1652 14.1645 11.1054 14.1645 10.0003C14.1645 8.89526 13.7255 7.83545 12.9441 7.05405C12.1627 6.27265 11.1029 5.83366 9.99787 5.83366ZM9.99787 7.50033C10.3262 7.50027 10.6513 7.56488 10.9546 7.69047C11.2579 7.81605 11.5336 8.00016 11.7658 8.23226C11.9979 8.46437 12.1821 8.73994 12.3078 9.04323C12.4335 9.34653 12.4982 9.67161 12.4983 9.99991C12.4983 10.3282 12.4337 10.6533 12.3081 10.9567C12.1826 11.26 11.9985 11.5356 11.7663 11.7678C11.5342 12 11.2587 12.1842 10.9554 12.3099C10.6521 12.4356 10.327 12.5003 9.9987 12.5003C9.33566 12.5003 8.69978 12.2369 8.23094 11.7681C7.76209 11.2993 7.4987 10.6634 7.4987 10.0003C7.4987 9.33729 7.76209 8.7014 8.23094 8.23256C8.69978 7.76372 9.33566 7.50033 9.9987 7.50033M14.3737 4.58366C14.0974 4.58366 13.8325 4.69341 13.6371 4.88876C13.4418 5.08411 13.332 5.34906 13.332 5.62533C13.332 5.90159 13.4418 6.16655 13.6371 6.3619C13.8325 6.55725 14.0974 6.66699 14.3737 6.66699C14.65 6.66699 14.9149 6.55725 15.1103 6.3619C15.3056 6.16655 15.4154 5.90159 15.4154 5.62533C15.4154 5.34906 15.3056 5.08411 15.1103 4.88876C14.9149 4.69341 14.65 4.58366 14.3737 4.58366Z" fill="currentColor"></path>
  </symbol>
  <symbol fill="none" xmlns="http://www.w3.org/2000/svg" viewBox="0 0 24 24" id="telegram">
    <path d="M12 22C17.5242 22 22 17.5242 22 12C22 6.47583 17.5242 2 12 2C6.47583 2 2 6.47583 2 12C2 17.5242 6.47583 22 12 22ZM6.57583 11.7833L16.2175 8.06583C16.665 7.90417 17.0558 8.175 16.9108 8.85167L16.9117 8.85083L15.27 16.585C15.1483 17.1333 14.8225 17.2667 14.3667 17.0083L11.8667 15.1658L10.6608 16.3275C10.5275 16.4608 10.415 16.5733 10.1567 16.5733L10.3342 14.0292L14.9675 9.84333C15.1692 9.66583 14.9225 9.56583 14.6567 9.7425L8.93083 13.3475L6.4625 12.5775C5.92667 12.4075 5.915 12.0417 6.57583 11.7833Z" fill="currentColor"></path>
  </symbol>
  <symbol fill="none" xmlns="http://www.w3.org/2000/svg" viewBox="0 0 24 24" id="linkedin">
    <path d="M21.6004 21.5999V14.5679C21.6004 11.1119 20.8564 8.4719 16.8244 8.4719C14.8804 8.4719 13.5844 9.5279 13.0564 10.5359H13.0084V8.7839H9.19239V21.5999H13.1764V15.2399C13.1764 13.5599 13.4884 11.9519 15.5524 11.9519C17.5924 11.9519 17.6164 13.8479 17.6164 15.3359V21.5759H21.6004V21.5999ZM2.71239 8.7839H6.69639V21.5999H2.71239V8.7839ZM4.70439 2.3999C3.43239 2.3999 2.40039 3.4319 2.40039 4.7039C2.40039 5.9759 3.43239 7.0319 4.70439 7.0319C5.97639 7.0319 7.00839 5.9759 7.00839 4.7039C7.00839 3.4319 5.97639 2.3999 4.70439 2.3999Z" fill="currentColor"></path>
  </symbol>
  <symbol fill="none" xmlns="http://www.w3.org/2000/svg" viewBox="0 0 24 24" id="pinterest">
    <path d="M22.2628 12.3001C22.4207 6.63165 17.9522 1.91059 12.3154 1.7527C6.64698 1.57902 1.92592 6.04744 1.73645 11.7159C1.61014 15.7422 3.88382 19.4685 7.49961 21.2369C7.6575 21.3159 7.79961 21.2369 7.87856 21.1106C7.91014 21.0632 7.91013 21.0316 7.91013 20.9843C7.87856 20.3369 7.91014 19.6738 8.03645 19.058C8.16277 18.4895 8.68382 16.3422 9.0154 14.9211C9.17329 14.2264 9.18908 13.5159 9.06277 12.8211C9.0154 12.5685 8.98382 12.3159 8.98382 12.0316C8.98382 10.5159 9.85224 9.3948 10.9575 9.3948C11.8733 9.3948 12.347 10.0895 12.347 10.9264C12.347 11.8738 11.7628 13.2632 11.447 14.5738C11.2417 15.4264 11.747 16.2948 12.5996 16.5001C12.7575 16.5474 12.8996 16.5474 13.0575 16.5474C14.9996 16.5474 16.4996 14.4948 16.4996 11.5422C16.4996 8.92112 14.6207 7.10533 11.9365 7.10533C8.82592 7.10533 7.01014 9.44217 7.01014 11.8422C7.01014 12.7422 7.29435 13.6106 7.83119 14.3369C7.91013 14.4159 7.92592 14.5422 7.91013 14.6369C7.83119 14.9685 7.6575 15.7106 7.61014 15.8685C7.56277 16.0738 7.45224 16.1053 7.24698 16.0264C5.88908 15.3316 5.02066 13.3264 5.02066 11.7474C5.02066 8.30533 7.5154 5.16323 12.2207 5.16323C16.0101 5.16323 18.947 7.86323 18.947 11.4474C18.947 15.2211 16.5943 18.2369 13.2786 18.2369C12.4891 18.2369 11.6838 17.9369 11.0996 17.3843C11.0049 17.2895 10.8154 17.2895 10.7207 17.3843C10.6891 17.4159 10.6733 17.4632 10.6417 17.5106C10.468 18.158 10.1838 19.2316 10.1049 19.5632C9.89961 20.258 9.6154 20.8895 9.25224 21.5369C9.17329 21.6632 9.22066 21.8369 9.37856 21.9159C9.41014 21.9159 9.42592 21.9474 9.4575 21.9474C10.3101 22.1527 11.1943 22.279 12.0786 22.2474C17.4943 22.2001 22.1049 17.6843 22.2628 12.3001Z" fill="currentColor"></path>
  </symbol>
  <symbol fill="none" xmlns="http://www.w3.org/2000/svg" viewBox="0 0 24 24" id="twitter">
    <path d="M13.6468 10.4686L20.9321 2H19.2057L12.8799 9.3532L7.82741 2H2L9.6403 13.1193L2 22H3.72649L10.4068 14.2348L15.7425 22H21.5699L13.6464 10.4686H13.6468ZM11.2821 13.2173L10.508 12.1101L4.34857 3.29967H7.00037L11.9711 10.4099L12.7452 11.5172L19.2066 20.7594H16.5548L11.2821 13.2177V13.2173Z" fill="currentColor"></path>
  </symbol>
  <symbol fill="none" xmlns="http://www.w3.org/2000/svg" viewBox="0 0 48 44" id="quote">
    <g clip-path="url(#clip0_577_3236)">
      <path d="M43.2001 43.1992C44.4731 43.1992 45.694 42.6935 46.5941 41.7934C47.4943 40.8932 48 39.6724 48 38.3993V26.6779C48 25.4049 47.4943 24.184 46.5941 23.2839C45.694 22.3837 44.4731 21.878 43.2001 21.878H36.5378C36.5378 20.1933 36.6386 18.5037 36.8354 16.8189C37.133 15.0333 37.6322 13.4446 38.3234 12.0574C39.0194 10.6654 39.9121 9.57583 41.0065 8.77905C42.0961 7.88626 43.4833 7.43987 45.1729 7.43987V0C42.3937 0 39.9649 0.59519 37.877 1.78557C35.8072 2.96388 34.0276 4.59089 32.6691 6.54709C31.3055 8.70376 30.3005 11.0672 29.6931 13.5454C29.0811 16.2802 28.7815 19.0756 28.8003 21.878V38.3993C28.8003 39.6724 29.306 40.8932 30.2062 41.7934C31.1064 42.6935 32.3272 43.1992 33.6002 43.1992H43.2001ZM14.4006 43.1992C15.6736 43.1992 16.8945 42.6935 17.7946 41.7934C18.6948 40.8932 19.2005 39.6724 19.2005 38.3993V26.6779C19.2005 25.4049 18.6948 24.184 17.7946 23.2839C16.8945 22.3837 15.6736 21.878 14.4006 21.878H7.7383C7.7383 20.1933 7.8391 18.5037 8.03589 16.8189C8.33349 15.0333 8.83268 13.4446 9.52387 12.0574C10.2199 10.6654 11.1126 9.57583 12.207 8.77905C13.2966 7.88626 14.6838 7.43987 16.3733 7.43987V0C13.5942 0 11.1654 0.59519 9.07747 1.78557C7.00768 2.96388 5.22814 4.59089 3.86956 6.54709C2.50603 8.70376 1.50102 11.0672 0.893617 13.5454C0.28156 16.2802 -0.0179544 19.0756 0.000831721 21.878V38.3993C0.000831721 39.6724 0.506536 40.8932 1.40669 41.7934C2.30685 42.6935 3.52773 43.1992 4.80075 43.1992H14.4006Z" fill="currentColor"></path>
    </g>
    <defs>
      <clipPath id="clip0_577_3236">
        <rect width="48" height="43.1992" fill="white"></rect>
      </clipPath>
    </defs>
  </symbol>
  <symbol fill="none" xmlns="http://www.w3.org/2000/svg" viewBox="0 0 24 24" id="arrow-sm-down">
    <path d="M6.21876 9.48257L11.4473 15.5865C11.5316 15.6848 11.6361 15.7637 11.7537 15.8179C11.8714 15.872 11.9993 15.9 12.1288 15.9C12.2583 15.9 12.3862 15.872 12.5039 15.8179C12.6215 15.7637 12.726 15.6848 12.8103 15.5865L18.0388 9.48257C18.5378 8.89994 18.1241 8 17.3573 8H6.89879C6.13198 8 5.71828 8.89994 6.21876 9.48257Z" fill="#27272A"></path>
  </symbol>
  <symbol fill="none" xmlns="http://www.w3.org/2000/svg" viewBox="0 0 20 20" id="check">
    <path fill-rule="evenodd" clip-rule="evenodd" d="M17.7071 4.29289C18.0976 4.68342 18.0976 5.31658 17.7071 5.70711L8.70711 14.7071C8.31658 15.0976 7.68342 15.0976 7.29289 14.7071L2.29289 9.70711C1.90237 9.31658 1.90237 8.68342 2.29289 8.29289C2.68342 7.90237 3.31658 7.90237 3.70711 8.29289L8 12.5858L16.2929 4.29289C16.6834 3.90237 17.3166 3.90237 17.7071 4.29289Z" fill="currentColor"></path>
  </symbol>
  <symbol fill="none" xmlns="http://www.w3.org/2000/svg" viewBox="0 0 32 32" id="calender">
    <g clip-path="url(#clip0_427_3683)">
      <path d="M0.936107 24.4378H25.4372C25.657 24.4378 25.8694 24.3609 26.0378 24.2208C26.2731 24.0237 31.6413 19.4057 31.9686 9.43711H5.65494C5.32887 18.4859 0.38502 22.7391 0.333643 22.7815C0.0324416 23.036 -0.0783759 23.4517 0.0571302 23.8216C0.191699 24.1906 0.542402 24.4378 0.936107 24.4378ZM31.0624 3.81185H26.3747V2.87431C26.3747 2.34929 25.9622 1.93677 25.4371 1.93677C24.9121 1.93677 24.4996 2.34929 24.4996 2.87431V3.81185H19.7494V2.87431C19.7494 2.34929 19.3369 1.93677 18.8118 1.93677C18.2868 1.93677 17.8743 2.34929 17.8743 2.87431V3.81185H13.1866V2.87431C13.1866 2.34929 12.7741 1.93677 12.2491 1.93677C11.724 1.93677 11.3115 2.34929 11.3115 2.87431V3.81185H6.6238C6.09878 3.81185 5.68626 4.22437 5.68626 4.74939V7.56202H31.9999V4.74939C31.9999 4.22437 31.5874 3.81185 31.0624 3.81185Z" fill="#27272A"></path>
      <path d="M27.242 25.6583C26.7329 26.0822 26.0939 26.3129 25.4374 26.3129H5.68652V29.1256C5.68652 29.6438 6.10585 30.0631 6.62407 30.0631H31.0627C31.5809 30.0631 32.0002 29.6438 32.0002 29.1256V18.616C30.1926 23.0506 27.6703 25.2998 27.242 25.6583Z" fill="#27272A"></path>
    </g>
    <defs>
      <clipPath id="clip0_427_3683">
        <rect width="32" height="32" fill="white"></rect>
      </clipPath>
    </defs>
  </symbol>
  <symbol fill="none" xmlns="http://www.w3.org/2000/svg" viewBox="0 0 24 24" id="edit">
    <path d="M17.8338 11.9995C17.3729 11.9995 17.0005 12.3729 17.0005 12.8328V19.4997C17.0005 19.9588 16.6271 20.333 16.1672 20.333H4.50008C4.04002 20.333 3.66677 19.9588 3.66677 19.4997V7.8326C3.66677 7.37344 4.04002 6.99929 4.50008 6.99929H11.167C11.6278 6.99929 12.0003 6.62592 12.0003 6.16598C12.0003 5.70593 11.6278 5.33252 11.167 5.33252H4.50008C3.12171 5.33252 2 6.45423 2 7.8326V19.4997C2 20.8781 3.12171 21.9998 4.50008 21.9998H16.1672C17.5455 21.9998 18.6672 20.8781 18.6672 19.4997V12.8328C18.6672 12.372 18.2946 11.9995 17.8338 11.9995Z" fill="currentColor"></path>
    <path d="M9.81359 11.2405C9.75567 11.2987 9.716 11.3725 9.69944 11.4529L9.11028 14.3998C9.08282 14.5364 9.12614 14.6772 9.22443 14.7764C9.26321 14.815 9.30924 14.8457 9.35987 14.8666C9.4105 14.8874 9.46475 14.8981 9.51951 14.898C9.54608 14.898 9.5737 14.8956 9.60116 14.8898L12.5471 14.3006C12.6288 14.2838 12.7029 14.2448 12.7604 14.1863L19.354 7.59275L16.408 4.64695L9.81359 11.2405ZM21.3906 2.60942C20.5782 1.79686 19.2565 1.79686 18.4447 2.60942L17.2914 3.7627L20.2373 6.70866L21.3906 5.55522C21.784 5.16275 22.0007 4.63933 22.0007 4.08267C22.0007 3.52602 21.784 3.00264 21.3906 2.60942Z" fill="currentColor"></path>
  </symbol>
  <symbol fill="none" xmlns="http://www.w3.org/2000/svg" viewBox="0 0 32 29" id="messages">
    <path d="M22.1269 0H3.61875C1.62312 0 0 1.62313 0 3.61875V19.8375C0 20.6056 0.868687 21.0386 1.48187 20.6006L6.63625 16.9231C7.06875 16.615 7.5775 16.4519 8.10875 16.4519H19.4456C21.4412 16.4519 23.0644 14.8288 23.0644 12.8331V0.9375C23.0644 0.42 22.6444 0 22.1269 0ZM17.5731 11.3569H6.74125C6.22375 11.3569 5.80375 10.9375 5.80375 10.4194C5.80375 9.90188 6.22375 9.48188 6.74125 9.48188H17.5731C18.0906 9.48188 18.5106 9.90188 18.5106 10.4194C18.5106 10.9375 18.0906 11.3569 17.5731 11.3569ZM17.5731 6.98187H6.74125C6.22375 6.98187 5.80375 6.5625 5.80375 6.04437C5.80375 5.52688 6.22375 5.10687 6.74125 5.10687H17.5731C18.0906 5.10687 18.5106 5.52688 18.5106 6.04437C18.5106 6.5625 18.0906 6.98187 17.5731 6.98187Z" fill="#27272A"></path>
    <path d="M32 10.8906V27.1087C32 27.8717 31.1357 28.313 30.5181 27.8719L25.3637 24.195C24.9312 23.8869 24.4225 23.7237 23.8912 23.7237H12.5544C10.5587 23.7237 8.93561 22.1 8.93561 20.1044V18.3269H19.4456C22.475 18.3269 24.9394 15.8625 24.9394 12.8331V7.27124H28.3812C30.3769 7.27124 32 8.89499 32 10.8906Z" fill="#27272A"></path>
  </symbol>
  <symbol fill="none" xmlns="http://www.w3.org/2000/svg" viewBox="0 0 24 24" id="search">
    <path d="M17 17L21 21M3 11C3 13.1217 3.84285 15.1566 5.34315 16.6569C6.84344 18.1571 8.87827 19 11 19C13.1217 19 15.1566 18.1571 16.6569 16.6569C18.1571 15.1566 19 13.1217 19 11C19 8.87827 18.1571 6.84344 16.6569 5.34315C15.1566 3.84285 13.1217 3 11 3C8.87827 3 6.84344 3.84285 5.34315 5.34315C3.84285 6.84344 3 8.87827 3 11Z" stroke="black" stroke-width="1.5" stroke-linecap="round" stroke-linejoin="round"></path>
  </symbol>
  <symbol fill="none" xmlns="http://www.w3.org/2000/svg" viewBox="0 0 24 24" id="sort">
    <path d="M3.53175 15.2009L2.40039 16.332L5.03487 18.9658C5.10915 19.0401 5.19734 19.099 5.2944 19.1392C5.39146 19.1795 5.49549 19.2002 5.60055 19.2002C5.70561 19.2002 5.80964 19.1795 5.9067 19.1392C6.00376 19.099 6.09195 19.0401 6.16623 18.9658L8.80047 16.332L7.66911 15.2L6.40047 16.4688V4.80005H4.80039V16.4688L3.53175 15.2009ZM10.4003 6.40013H21.6004V8.00021H10.4003V6.40013ZM10.4003 9.60005H19.2004V11.2001H10.4003V9.60005ZM10.4003 12.8H16.8004V14.4H10.4003V12.8ZM10.4003 16.0001H14.4004V17.6H10.4003V16.0001Z" fill="#27272A"></path>
  </symbol>
  <symbol fill="none" xmlns="http://www.w3.org/2000/svg" viewBox="0 0 24 24" id="arrow-left">
    <path d="M19 12H5M5 12L11 18M5 12L11 6" stroke="currentColor" stroke-width="2" stroke-linecap="round" stroke-linejoin="round"></path>
  </symbol>
  <symbol fill="none" xmlns="http://www.w3.org/2000/svg" viewBox="0 0 24 24" id="arrow-right">
    <path d="M5 12H19M19 12L13 18M19 12L13 6" stroke="currentColor" stroke-width="2" stroke-linecap="round" stroke-linejoin="round"></path>
  </symbol>
  <symbol fill="none" xmlns="http://www.w3.org/2000/svg" viewBox="0 0 32 32" id="flame">
    <path d="M24 10C24 10 22.5 13 21 14.5C21.5 8.5 19 6.5 18.5 2C18.5 2 12.5 4 11.5 12.5C10.5 10.5 9.08 9.5 7.79 9C7.79 9 7.655 11.89 7 14.5C6.5 16.5 6 17.5 6 20C6 25.525 10.475 30 16 30C21.525 30 26 25.525 26 20C26 16.5 24.5 14.5 24 10ZM16 29C13.04 29 10.645 26.6 10.645 23.645C10.645 21.77 11 20 12 18C12 18 12.785 19.895 13.59 20.695C13.055 17.48 14.93 16.41 15.195 14C15.195 14 18.5 16.5 18 20.5C18.535 19.16 19.71 18.02 20.4 17.75C20.4 17.75 20.47 19.295 20.82 20.695C21.09 21.77 21.355 22.305 21.355 23.645C21.355 26.6 18.96 29 16 29Z" fill="black"></path>
  </symbol>
  <symbol fill="none" xmlns="http://www.w3.org/2000/svg" viewBox="0 0 24 24" id="minus">
    <path d="M5 12H19" stroke="#201F1F" stroke-width="2" stroke-linecap="round" stroke-linejoin="round"></path>
  </symbol>
  <symbol fill="none" xmlns="http://www.w3.org/2000/svg" viewBox="0 0 24 24" id="plus">
    <path d="M18 12.998H13V17.998C13 18.2633 12.8946 18.5176 12.7071 18.7052C12.5196 18.8927 12.2652 18.998 12 18.998C11.7348 18.998 11.4804 18.8927 11.2929 18.7052C11.1054 18.5176 11 18.2633 11 17.998V12.998H6C5.73478 12.998 5.48043 12.8927 5.29289 12.7052C5.10536 12.5176 5 12.2633 5 11.998C5 11.7328 5.10536 11.4785 5.29289 11.2909C5.48043 11.1034 5.73478 10.998 6 10.998H11V5.99805C11 5.73283 11.1054 5.47848 11.2929 5.29094C11.4804 5.1034 11.7348 4.99805 12 4.99805C12.2652 4.99805 12.5196 5.1034 12.7071 5.29094C12.8946 5.47848 13 5.73283 13 5.99805V10.998H18C18.2652 10.998 18.5196 11.1034 18.7071 11.2909C18.8946 11.4785 19 11.7328 19 11.998C19 12.2633 18.8946 12.5176 18.7071 12.7052C18.5196 12.8927 18.2652 12.998 18 12.998Z" fill="#201F1F"></path>
  </symbol>
  <symbol fill="none" xmlns="http://www.w3.org/2000/svg" viewBox="0 0 24 24" id="heart">
    <path d="M22.2489 3.48153C21.0652 2.13837 19.423 1.39868 17.625 1.39868C15.0962 1.39868 13.4952 2.90899 12.5974 4.17603C12.3645 4.50481 12.1664 4.83448 12 5.1447C11.8336 4.83448 11.6355 4.50481 11.4026 4.17603C10.5048 2.90899 8.90381 1.39868 6.375 1.39868C4.57697 1.39868 2.9348 2.13842 1.75102 3.48157C0.621891 4.76285 0 6.47885 0 8.31345C0 10.3105 0.779672 12.1679 2.45367 14.1588C3.94978 15.9381 6.10214 17.7723 8.59453 19.8961C9.52327 20.6876 10.4837 21.506 11.5062 22.4006L11.5369 22.4275C11.6694 22.5436 11.8347 22.6016 12 22.6016C12.1653 22.6016 12.3306 22.5435 12.4631 22.4275L12.4938 22.4006C13.5163 21.506 14.4767 20.6876 15.4056 19.896C17.8979 17.7723 20.0502 15.9382 21.5463 14.1588C23.2203 12.1678 24 10.3105 24 8.31345C24 6.47885 23.3781 4.76285 22.2489 3.48153ZM14.4934 18.8258C13.6928 19.508 12.8688 20.2101 12 20.9654C11.1312 20.2102 10.3072 19.508 9.50644 18.8257C4.62867 14.6691 1.40625 11.9232 1.40625 8.31345C1.40625 6.82142 1.90336 5.4356 2.80603 4.41134C3.71906 3.37545 4.98652 2.80493 6.375 2.80493C8.30292 2.80493 9.54919 3.99265 10.2551 4.98903C10.8884 5.88265 11.2188 6.78349 11.3315 7.12929C11.3774 7.27038 11.4669 7.3933 11.5869 7.48047C11.707 7.56764 11.8516 7.61458 12 7.61458C12.1484 7.61458 12.293 7.56764 12.413 7.48047C12.5331 7.3933 12.6226 7.27038 12.6685 7.12929C12.7812 6.78349 13.1116 5.88265 13.7449 4.98898C14.4508 3.99265 15.6971 2.80493 17.625 2.80493C19.0135 2.80493 20.2809 3.37545 21.1939 4.41134C22.0966 5.4356 22.5938 6.82142 22.5938 8.31345C22.5938 11.9232 19.3713 14.6691 14.4934 18.8258Z" fill="currentColor"></path>
  </symbol>
  <symbol fill="none" xmlns="http://www.w3.org/2000/svg" viewBox="0 0 24 24" id="compare">
    <g clip-path="url(#clip0_589_3247)">
      <mask id="mask0_589_3247" maskUnits="userSpaceOnUse" x="0" y="0" width="24" height="24">
        <path d="M0 0H24V24H0V0Z" fill="currentColor"></path>
      </mask>
      <g mask="url(#mask0_589_3247)">
        <path fill-rule="evenodd" clip-rule="evenodd" d="M12 1.25C12.1989 1.25 12.3897 1.32902 12.5303 1.46967C12.671 1.61032 12.75 1.80109 12.75 2V3C12.75 3.138 12.862 3.25 13 3.25C13.1989 3.25 13.3897 3.32902 13.5303 3.46967C13.671 3.61032 13.75 3.80109 13.75 4C13.75 4.19891 13.671 4.38968 13.5303 4.53033C13.3897 4.67098 13.1989 4.75 13 4.75C12.9337 4.75 12.8701 4.77634 12.8232 4.82322C12.7763 4.87011 12.75 4.9337 12.75 5V19C12.75 19.138 12.862 19.25 13 19.25C13.1989 19.25 13.3897 19.329 13.5303 19.4697C13.671 19.6103 13.75 19.8011 13.75 20C13.75 20.1989 13.671 20.3897 13.5303 20.5303C13.3897 20.671 13.1989 20.75 13 20.75C12.9337 20.75 12.8701 20.7763 12.8232 20.8232C12.7763 20.8701 12.75 20.9337 12.75 21V22C12.75 22.1989 12.671 22.3897 12.5303 22.5303C12.3897 22.671 12.1989 22.75 12 22.75C11.8011 22.75 11.6103 22.671 11.4697 22.5303C11.329 22.3897 11.25 22.1989 11.25 22V21.25C11.25 21.1174 11.1973 20.9902 11.1036 20.8964C11.0098 20.8027 10.8826 20.75 10.75 20.75H6C5.27065 20.75 4.57118 20.4603 4.05546 19.9445C3.53973 19.4288 3.25 18.7293 3.25 18V6C3.25 5.27065 3.53973 4.57118 4.05546 4.05546C4.57118 3.53973 5.27065 3.25 6 3.25H10.75C10.8826 3.25 11.0098 3.19732 11.1036 3.10355C11.1973 3.00979 11.25 2.88261 11.25 2.75V2C11.25 1.80109 11.329 1.61032 11.4697 1.46967C11.6103 1.32902 11.8011 1.25 12 1.25ZM11.25 5.25C11.25 5.11739 11.1973 4.99021 11.1036 4.89645C11.0098 4.80268 10.8826 4.75 10.75 4.75H6C5.31 4.75 4.75 5.31 4.75 6V18C4.75 18.69 5.31 19.25 6 19.25H10.75C10.8826 19.25 11.0098 19.1973 11.1036 19.1036C11.1973 19.0098 11.25 18.8826 11.25 18.75V5.25ZM16.25 4C16.25 3.80109 16.329 3.61032 16.4697 3.46967C16.6103 3.32902 16.8011 3.25 17 3.25H18C18.7293 3.25 19.4288 3.53973 19.9445 4.05546C20.4603 4.57118 20.75 5.27065 20.75 6V7C20.75 7.19891 20.671 7.38968 20.5303 7.53033C20.3897 7.67098 20.1989 7.75 20 7.75C19.8011 7.75 19.6103 7.67098 19.4697 7.53033C19.329 7.38968 19.25 7.19891 19.25 7V6C19.25 5.31 18.69 4.75 18 4.75H17C16.8011 4.75 16.6103 4.67098 16.4697 4.53033C16.329 4.38968 16.25 4.19891 16.25 4ZM20 10.25C20.1989 10.25 20.3897 10.329 20.5303 10.4697C20.671 10.6103 20.75 10.8011 20.75 11V13C20.75 13.1989 20.671 13.3897 20.5303 13.5303C20.3897 13.671 20.1989 13.75 20 13.75C19.8011 13.75 19.6103 13.671 19.4697 13.5303C19.329 13.3897 19.25 13.1989 19.25 13V11C19.25 10.8011 19.329 10.6103 19.4697 10.4697C19.6103 10.329 19.8011 10.25 20 10.25ZM20 16.25C20.1989 16.25 20.3897 16.329 20.5303 16.4697C20.671 16.6103 20.75 16.8011 20.75 17V18C20.75 18.7293 20.4603 19.4288 19.9445 19.9445C19.4288 20.4603 18.7293 20.75 18 20.75H17C16.8011 20.75 16.6103 20.671 16.4697 20.5303C16.329 20.3897 16.25 20.1989 16.25 20C16.25 19.8011 16.329 19.6103 16.4697 19.4697C16.6103 19.329 16.8011 19.25 17 19.25H18C18.69 19.25 19.25 18.69 19.25 18V17C19.25 16.8011 19.329 16.6103 19.4697 16.4697C19.6103 16.329 19.8011 16.25 20 16.25Z" fill="currentColor"></path>
      </g>
    </g>
    <defs>
      <clipPath id="clip0_589_3247">
        <rect width="24" height="24" fill="currentColor"></rect>
      </clipPath>
    </defs>
  </symbol>
  <symbol fill="none" xmlns="http://www.w3.org/2000/svg" viewBox="0 0 24 24" id="phone">
    <g clip-path="url(#clip0_666_3537)">
      <path d="M21.6607 22.719H16.088C16.2791 22.5493 16.432 22.341 16.5368 22.1079C16.6416 21.8748 16.696 21.6222 16.6962 21.3666V18.8571H15.3983V19.8381H3.91794V3.6882H15.3983V4.74839H16.6962V2.63499C16.6962 1.63305 15.8807 0.815186 14.8787 0.815186H4.43756C3.43328 0.815186 2.62008 1.66101 2.62008 2.62101V21.3666C2.62025 21.6222 2.67449 21.8748 2.77922 22.1079C2.88396 22.3409 3.03682 22.5492 3.22777 22.719H2.1727C2.1109 22.719 2.05164 22.7436 2.00794 22.7873C1.96424 22.831 1.93969 22.8902 1.93969 22.952C1.93969 23.0138 1.96424 23.0731 2.00794 23.1168C2.05164 23.1605 2.1109 23.185 2.1727 23.185H21.6609C21.7227 23.185 21.782 23.1605 21.8257 23.1168C21.8694 23.0731 21.8939 23.0138 21.8939 22.952C21.8939 22.8902 21.8694 22.831 21.8257 22.7873C21.782 22.7436 21.7225 22.719 21.6607 22.719ZM8.1049 2.01985H11.2109C11.3391 2.01985 11.4439 2.12237 11.4439 2.25286C11.4439 2.38101 11.3391 2.48587 11.2109 2.48587H8.1049C7.97674 2.48587 7.87189 2.38101 7.87189 2.25286C7.87189 2.12237 7.97674 2.01985 8.1049 2.01985ZM7.86723 21.0684H11.4463C11.5637 21.0684 11.6763 21.115 11.7593 21.1981C11.8423 21.2811 11.889 21.3937 11.889 21.5111C11.889 21.6285 11.8423 21.7411 11.7593 21.8242C11.6763 21.9072 11.5637 21.9538 11.4463 21.9538H7.86723C7.74981 21.9538 7.6372 21.9072 7.55418 21.8242C7.47115 21.7411 7.42451 21.6285 7.42451 21.5111C7.42451 21.3937 7.47115 21.2811 7.55418 21.1981C7.6372 21.115 7.74981 21.0684 7.86723 21.0684ZM1.19942 22.719H0.823342C0.761544 22.719 0.702277 22.7436 0.658579 22.7873C0.614881 22.831 0.590332 22.8902 0.590332 22.952C0.590332 23.0138 0.614881 23.0731 0.658579 23.1168C0.702277 23.1605 0.761544 23.185 0.823342 23.185H1.19942C1.26122 23.185 1.32048 23.1605 1.36418 23.1168C1.40788 23.0731 1.43243 23.0138 1.43243 22.952C1.43243 22.8902 1.40788 22.831 1.36418 22.7873C1.32048 22.7436 1.26122 22.719 1.19942 22.719ZM23.1769 22.719H22.5757C22.5139 22.719 22.4547 22.7436 22.411 22.7873C22.3673 22.831 22.3427 22.8902 22.3427 22.952C22.3427 23.0138 22.3673 23.0731 22.411 23.1168C22.4547 23.1605 22.5139 23.185 22.5757 23.185H23.1769C23.2387 23.185 23.298 23.1605 23.3417 23.1168C23.3854 23.0731 23.4099 23.0138 23.4099 22.952C23.4099 22.8902 23.3854 22.831 23.3417 22.7873C23.298 22.7436 23.2387 22.719 23.1769 22.719Z" fill="currentColor" fill-opacity="0.7"></path>
      <path d="M8.8889 6.44399V17.1613C8.88897 17.4871 9.01844 17.7995 9.24885 18.0299C9.47927 18.2603 9.79175 18.3897 10.1176 18.3897H18.4411C18.7669 18.3896 19.0793 18.2602 19.3097 18.0298C19.5401 17.7995 19.6695 17.4871 19.6696 17.1613V6.44399C19.6696 6.11817 19.5401 5.80569 19.3098 5.57528C19.0794 5.34487 18.767 5.21539 18.4411 5.21533H10.1173C9.79147 5.21533 9.47896 5.34478 9.24854 5.5752C9.01812 5.80562 8.8889 6.11813 8.8889 6.44399ZM10.1006 10.3993C10.1006 10.2262 10.2408 10.0857 10.4142 10.0857H12.0259C12.1993 10.0857 12.3398 10.2262 12.3398 10.3993V12.0041C12.3398 12.1774 12.1993 12.3179 12.0259 12.3179H10.4142C10.373 12.3179 10.3322 12.3098 10.2941 12.294C10.256 12.2783 10.2214 12.2551 10.1923 12.226C10.1631 12.1969 10.14 12.1623 10.1242 12.1242C10.1084 12.0861 10.1003 12.0453 10.1003 12.0041L10.1006 10.3993ZM9.9971 13.4814C9.9971 13.4196 10.0216 13.3603 10.0653 13.3166C10.109 13.2729 10.1683 13.2483 10.2301 13.2483H12.2098C12.2716 13.2483 12.3308 13.2729 12.3745 13.3166C12.4182 13.3603 12.4428 13.4196 12.4428 13.4814C12.4428 13.5431 12.4182 13.6024 12.3745 13.6461C12.3308 13.6898 12.2716 13.7144 12.2098 13.7144H10.2301C10.1683 13.7144 10.109 13.6898 10.0653 13.6461C10.0216 13.6024 9.9971 13.5431 9.9971 13.4814ZM17.0456 16.8847C17.0456 16.9909 16.9594 17.0774 16.8529 17.0774H11.7058C11.6804 17.0774 11.6554 17.0725 11.6319 17.0628C11.6085 17.0531 11.5873 17.0389 11.5694 17.021C11.5514 17.0031 11.5372 16.9819 11.5275 16.9585C11.5178 16.9351 11.5128 16.91 11.5128 16.8847V15.3123C11.5128 15.2059 11.599 15.1196 11.7055 15.1196H16.8527C16.9594 15.1196 17.0456 15.2059 17.0456 15.3123V16.8847ZM13.2895 13.2483H15.2689C15.3307 13.2483 15.39 13.2729 15.4337 13.3166C15.4774 13.3603 15.502 13.4196 15.502 13.4814C15.502 13.5431 15.4774 13.6024 15.4337 13.6461C15.39 13.6898 15.3307 13.7144 15.2689 13.7144H13.2893C13.2275 13.7144 13.1682 13.6898 13.1245 13.6461C13.0808 13.6024 13.0563 13.5431 13.0563 13.4814C13.0563 13.4196 13.0808 13.3603 13.1245 13.3166C13.1682 13.2729 13.2277 13.2483 13.2895 13.2483ZM13.1595 12.0041V10.3993C13.1595 10.2262 13.3 10.0857 13.4734 10.0857H15.0851C15.2585 10.0857 15.399 10.2262 15.399 10.3993V12.0041C15.399 12.1774 15.2585 12.3179 15.0851 12.3179H13.4734C13.3901 12.3179 13.3103 12.2849 13.2514 12.226C13.1926 12.1671 13.1595 12.0873 13.1595 12.0041ZM18.5611 13.4814C18.5611 13.5431 18.5366 13.6024 18.4929 13.6461C18.4492 13.6898 18.3899 13.7144 18.3281 13.7144H16.3487C16.2869 13.7144 16.2276 13.6898 16.1839 13.6461C16.1403 13.6024 16.1157 13.5431 16.1157 13.4814C16.1157 13.4196 16.1403 13.3603 16.1839 13.3166C16.2276 13.2729 16.2869 13.2483 16.3487 13.2483H18.3281C18.3899 13.2483 18.4492 13.2729 18.4929 13.3166C18.5366 13.3603 18.5611 13.4196 18.5611 13.4814ZM16.2187 12.0041V10.3993C16.2187 10.2262 16.3592 10.0857 16.5326 10.0857H18.1443C18.3176 10.0857 18.4581 10.2262 18.4581 10.3993V12.0041C18.4581 12.1774 18.3176 12.3179 18.1443 12.3179H16.5326C16.4493 12.3179 16.3695 12.2849 16.3106 12.226C16.2518 12.1671 16.2187 12.0873 16.2187 12.0041ZM10.4249 6.42675H18.1336C18.3127 6.42675 18.4581 6.57215 18.4581 6.75133V8.73424C18.4581 8.91366 18.3127 9.05883 18.1336 9.05883H10.4249C10.2455 9.05883 10.1003 8.91343 10.1003 8.73424V6.75133C10.1003 6.57191 10.2457 6.42675 10.4249 6.42675Z" fill="currentColor" fill-opacity="0.7"></path>
    </g>
    <defs>
      <clipPath id="clip0_666_3537">
        <rect width="24" height="24" fill="white"></rect>
      </clipPath>
    </defs>
  </symbol>
  <symbol fill="none" xmlns="http://www.w3.org/2000/svg" viewBox="0 0 24 24" id="truck">
    <path d="M23.7231 11.16L21.8446 6.91C21.7788 6.75928 21.6707 6.63087 21.5334 6.54035C21.3962 6.44982 21.2355 6.40107 21.0711 6.4H16.5236L16.7956 3.9435C16.809 3.82425 16.797 3.70352 16.7603 3.58924C16.7237 3.47497 16.6633 3.36975 16.5831 3.2805C16.5036 3.19245 16.4066 3.122 16.2983 3.07369C16.19 3.02538 16.0727 3.00028 15.9541 3H4.24961C4.02417 3 3.80797 3.08955 3.64857 3.24896C3.48916 3.40837 3.39961 3.62457 3.39961 3.85C3.39961 4.07543 3.48916 4.29163 3.64857 4.45104C3.80797 4.61045 4.02417 4.7 4.24961 4.7H8.49961C8.72504 4.7 8.94124 4.78955 9.10065 4.94896C9.26005 5.10836 9.34961 5.32456 9.34961 5.55C9.34961 5.77543 9.26005 5.99163 9.10065 6.15104C8.94124 6.31045 8.72504 6.4 8.49961 6.4H2.54961C2.32417 6.4 2.10797 6.48955 1.94857 6.64896C1.78916 6.80836 1.69961 7.02456 1.69961 7.25C1.69961 7.47543 1.78916 7.69163 1.94857 7.85104C2.10797 8.01044 2.32417 8.1 2.54961 8.1H11.0496C11.275 8.1 11.4912 8.18955 11.6506 8.34896C11.8101 8.50836 11.8996 8.72456 11.8996 8.95C11.8996 9.17543 11.8101 9.39163 11.6506 9.55104C11.4912 9.71044 11.275 9.8 11.0496 9.8H5.09961C4.87417 9.8 4.65797 9.88955 4.49857 10.049C4.33916 10.2084 4.24961 10.4246 4.24961 10.65C4.24961 10.8754 4.33916 11.0916 4.49857 11.251C4.65797 11.4104 4.87417 11.5 5.09961 11.5H8.49961C8.72504 11.5 8.94124 11.5895 9.10065 11.749C9.26005 11.9084 9.34961 12.1246 9.34961 12.35C9.34961 12.5754 9.26005 12.7916 9.10065 12.951C8.94124 13.1104 8.72504 13.2 8.49961 13.2H1.69961C1.47418 13.2 1.25797 13.2895 1.09857 13.449C0.939163 13.6084 0.849609 13.8246 0.849609 14.05C0.849609 14.2754 0.939163 14.4916 1.09857 14.651C1.25797 14.8104 1.47418 14.9 1.69961 14.9H3.39961C3.62504 14.9 3.84124 14.9895 4.00065 15.149C4.16005 15.3084 4.24961 15.5246 4.24961 15.75C4.24961 15.9754 4.16005 16.1916 4.00065 16.351C3.84124 16.5104 3.62504 16.6 3.39961 16.6H2.54961C2.32417 16.6 2.10797 16.6895 1.94857 16.849C1.78916 17.0084 1.69961 17.2246 1.69961 17.45C1.69961 17.6754 1.78916 17.8916 1.94857 18.051C2.10797 18.2104 2.32417 18.3 2.54961 18.3H4.97211C5.06389 18.6585 5.23858 18.9904 5.48211 19.269C5.68847 19.4997 5.94134 19.6841 6.22409 19.8101C6.50684 19.9361 6.81306 20.0008 7.12261 20C7.64642 19.985 8.15414 19.8157 8.58209 19.5133C9.01003 19.2108 9.33913 18.7888 9.52811 18.3H16.0221C16.1139 18.6585 16.2886 18.9904 16.5321 19.269C16.7385 19.4997 16.9913 19.6841 17.2741 19.8101C17.5568 19.9361 17.8631 20.0008 18.1726 20C18.6964 19.985 19.2041 19.8157 19.6321 19.5133C20.06 19.2108 20.3891 18.7888 20.5781 18.3H22.2781C22.4882 18.3013 22.6914 18.2247 22.8484 18.085C23.0053 17.9453 23.105 17.7524 23.1281 17.5435L23.7826 11.5935C23.8059 11.4463 23.7852 11.2955 23.7231 11.16ZM7.12261 18.3C7.05212 18.303 6.98186 18.2901 6.91709 18.2621C6.85232 18.2342 6.79472 18.1919 6.74861 18.1385C6.68188 18.0559 6.63307 17.9604 6.60526 17.858C6.57746 17.7555 6.57128 17.6484 6.58711 17.5435C6.60882 17.3048 6.71185 17.0809 6.87897 16.9091C7.04609 16.7374 7.26713 16.6282 7.50511 16.6C7.57559 16.5969 7.64585 16.6099 7.71062 16.6379C7.77539 16.6658 7.83299 16.7081 7.87911 16.7615C7.94583 16.844 7.99465 16.9396 8.02245 17.042C8.05025 17.1444 8.05644 17.2515 8.04061 17.3565C8.0189 17.5951 7.91586 17.8191 7.74874 17.9909C7.58163 18.1626 7.36058 18.2718 7.12261 18.3ZM18.1726 18.3C18.1021 18.303 18.0319 18.2901 17.9671 18.2621C17.9023 18.2342 17.8447 18.1919 17.7986 18.1385C17.7319 18.0559 17.6831 17.9604 17.6553 17.858C17.6275 17.7555 17.6213 17.6484 17.6371 17.5435C17.6588 17.3048 17.7618 17.0809 17.929 16.9091C18.0961 16.7374 18.3171 16.6282 18.5551 16.6C18.6256 16.5969 18.6958 16.6099 18.7606 16.6379C18.8254 16.6658 18.883 16.7081 18.9291 16.7615C18.9958 16.844 19.0446 16.9396 19.0724 17.042C19.1002 17.1444 19.1064 17.2515 19.0906 17.3565C19.0689 17.5951 18.9659 17.8191 18.7987 17.9909C18.6316 18.1626 18.4106 18.2718 18.1726 18.3ZM21.9976 12.35H18.2406C18.122 12.3497 18.0047 12.3246 17.8964 12.2763C17.7881 12.228 17.6911 12.1575 17.6116 12.0695C17.5314 11.9802 17.471 11.875 17.4344 11.7608C17.3977 11.6465 17.3857 11.5257 17.3991 11.4065L17.6796 8.8565C17.7047 8.64917 17.8052 8.45833 17.9619 8.32037C18.1187 8.18241 18.3208 8.10699 18.5296 8.1085H20.5101L22.0996 11.636L21.9976 12.35Z" fill="currentColor" fill-opacity="0.7"></path>
    <path d="M1.7 11.4998C1.92543 11.4998 2.14163 11.4103 2.30104 11.2508C2.46044 11.0914 2.55 10.8752 2.55 10.6498C2.55 10.4244 2.46044 10.2082 2.30104 10.0488C2.14163 9.88936 1.92543 9.7998 1.7 9.7998H0.849999C0.624566 9.7998 0.408365 9.88936 0.248959 10.0488C0.0895532 10.2082 0 10.4244 0 10.6498C0 10.8752 0.0895532 11.0914 0.248959 11.2508C0.408365 11.4103 0.624566 11.4998 0.849999 11.4998H1.7Z" fill="currentColor" fill-opacity="0.7"></path>
  </symbol>
  <symbol fill="none" xmlns="http://www.w3.org/2000/svg" viewBox="0 0 24 24" id="wallet">
    <path d="M21.5001 19H18C15.7945 19 14.0001 17.2056 14.0001 15.0001C14.0001 12.7946 15.7945 11.0002 18 11.0002H21.5001C21.5657 11.0002 21.6308 10.9873 21.6915 10.9622C21.7521 10.9371 21.8073 10.9003 21.8537 10.8538C21.9002 10.8074 21.937 10.7523 21.9621 10.6916C21.9872 10.6309 22.0001 10.5659 22.0001 10.5002V9.00021C22.0001 7.95173 21.1868 7.09904 20.1593 7.01635L17.2877 2.00081C17.0216 1.53694 16.5919 1.2054 16.0777 1.06773C15.566 0.930998 15.0308 1.00281 14.5728 1.26938L4.72891 7.00023H3.00002C1.897 7.00023 1 7.89717 1 9.00021V21C1 22.103 1.89695 23 3.00002 23H20.0001C21.1031 23 22.0001 22.1031 22.0001 21V19.5C22.0001 19.4344 21.9872 19.3693 21.9621 19.3086C21.937 19.248 21.9002 19.1928 21.8537 19.1464C21.8073 19.0999 21.7521 19.0631 21.6915 19.038C21.6308 19.0129 21.5657 19 21.5001 19ZM17.9078 5.09732L18.9973 7.00023H14.6392L17.9078 5.09732ZM6.71642 7.00023L15.0762 2.1336C15.3023 2.00128 15.5664 1.96612 15.8189 2.03353C16.0743 2.10187 16.2872 2.26691 16.4195 2.49786L16.4205 2.49969L8.69037 7.00023H6.71642Z" fill="currentColor" fill-opacity="0.7"></path>
    <path d="M21.4995 12.0002H17.9995C16.3452 12.0002 14.9995 13.3459 14.9995 15.0002C14.9995 16.6545 16.3452 18.0001 17.9995 18.0001H21.4995C22.3267 18.0001 22.9995 17.3273 22.9995 16.5002V13.5002C22.9995 12.6731 22.3267 12.0002 21.4995 12.0002ZM17.9995 16.0002C17.4483 16.0002 16.9995 15.5514 16.9995 15.0002C16.9995 14.449 17.4483 14.0002 17.9995 14.0002C18.5508 14.0002 18.9995 14.449 18.9995 15.0002C18.9995 15.5514 18.5508 16.0002 17.9995 16.0002Z" fill="currentColor" fill-opacity="0.7"></path>
  </symbol>
  <symbol fill="none" xmlns="http://www.w3.org/2000/svg" viewBox="0 0 24 24" id="crown">
    <path d="M4.50006 21C4.50006 21.1989 4.57908 21.3896 4.71973 21.5303C4.86039 21.6709 5.05115 21.75 5.25006 21.75H18.7501C18.949 21.75 19.1397 21.6709 19.2804 21.5303C19.421 21.3896 19.5001 21.1989 19.5001 21V18.75H4.50006V21ZM21.4553 6.15371C21.3436 6.0688 21.2104 6.01679 21.0708 6.00354C20.9311 5.99029 20.7905 6.01632 20.6648 6.07871L15.3938 8.71421L12.6968 1.97171C12.6413 1.83229 12.5452 1.71274 12.421 1.62851C12.2968 1.54429 12.1501 1.49927 12.0001 1.49927C11.85 1.49927 11.7034 1.54429 11.5792 1.62851C11.4549 1.71274 11.3589 1.83229 11.3033 1.97171L8.60631 8.71421L3.33531 6.07871C3.20972 6.01605 3.06908 5.98989 2.92936 6.0032C2.78964 6.01651 2.65646 6.06876 2.54496 6.15401C2.43347 6.23925 2.34812 6.35407 2.29864 6.48541C2.24916 6.61675 2.23753 6.75934 2.26506 6.89696L4.33506 17.25H19.6651L21.7351 6.89696C21.7625 6.75942 21.7509 6.61693 21.7014 6.48568C21.652 6.35444 21.5667 6.23968 21.4553 6.15446V6.15371ZM12.0001 14.25C11.5548 14.195 11.1487 13.9681 10.8684 13.6178C10.5882 13.2674 10.456 12.8214 10.5001 12.375C10.456 11.9285 10.5882 11.4825 10.8684 11.1321C11.1487 10.7818 11.5548 10.5549 12.0001 10.5C12.4453 10.5549 12.8514 10.7818 13.1317 11.1321C13.412 11.4825 13.5442 11.9285 13.5001 12.375C13.5442 12.8214 13.412 13.2674 13.1317 13.6178C12.8514 13.9681 12.4453 14.195 12.0001 14.25Z" fill="currentColor" fill-opacity="0.7"></path>
  </symbol>
  <symbol fill="none" xmlns="http://www.w3.org/2000/svg" viewBox="0 0 32 32" id="location">
    <path fill-rule="evenodd" clip-rule="evenodd" d="M16 1.66675C11.036 1.66675 7 5.73875 7 10.7614C7 12.4627 7.74933 14.5734 8.84 16.6788C11.2413 21.3148 15.2413 25.9841 15.2413 25.9841C15.3352 26.0934 15.4516 26.1812 15.5826 26.2413C15.7135 26.3015 15.8559 26.3326 16 26.3326C16.1441 26.3326 16.2865 26.3015 16.4174 26.2413C16.5484 26.1812 16.6648 26.0934 16.7587 25.9841C16.7587 25.9841 20.7587 21.3148 23.16 16.6788C24.2507 14.5734 25 12.4627 25 10.7614C25 5.73875 20.964 1.66675 16 1.66675ZM16 7.00008C15.0447 7.02585 14.1371 7.42346 13.4705 8.10828C12.8039 8.79311 12.4309 9.71106 12.4309 10.6667C12.4309 11.6224 12.8039 12.5404 13.4705 13.2252C14.1371 13.91 15.0447 14.3077 16 14.3334C16.9553 14.3077 17.8629 13.91 18.5295 13.2252C19.1961 12.5404 19.5691 11.6224 19.5691 10.6667C19.5691 9.71106 19.1961 8.79311 18.5295 8.10828C17.8629 7.42346 16.9553 7.02585 16 7.00008Z" fill="black"></path>
    <path fill-rule="evenodd" clip-rule="evenodd" d="M22.3783 23.1693C23.4623 23.4946 24.3557 23.8973 24.973 24.3693C25.373 24.6733 25.6663 24.9706 25.6663 25.3333C25.6663 25.5466 25.545 25.74 25.3743 25.9333C25.0917 26.252 24.6717 26.5386 24.1517 26.8053C22.3143 27.7453 19.3437 28.3333 15.9997 28.3333C12.6557 28.3333 9.68501 27.7453 7.84767 26.8053C7.32767 26.5386 6.90767 26.252 6.62501 25.9333C6.45434 25.74 6.33301 25.5466 6.33301 25.3333C6.33301 24.9706 6.62634 24.6733 7.02634 24.3693C7.64367 23.8973 8.53701 23.4946 9.62101 23.1693C9.87509 23.0929 10.0884 22.9187 10.2141 22.6851C10.3397 22.4514 10.3674 22.1774 10.291 21.9233C10.2146 21.6692 10.0404 21.4559 9.80677 21.3302C9.5731 21.2046 9.29909 21.1769 9.04501 21.2533C7.39434 21.7506 6.11167 22.432 5.34101 23.1853C4.66367 23.8453 4.33301 24.584 4.33301 25.3333C4.33301 26.2693 4.86234 27.2026 5.93834 27.9813C7.82634 29.3466 11.6183 30.3333 15.9997 30.3333C20.381 30.3333 24.173 29.3466 26.061 27.9813C27.137 27.2026 27.6663 26.2693 27.6663 25.3333C27.6663 24.584 27.3357 23.8453 26.6583 23.1853C25.8877 22.432 24.605 21.7506 22.9543 21.2533C22.8285 21.2155 22.6965 21.2028 22.5658 21.216C22.4351 21.2292 22.3083 21.268 22.1926 21.3302C22.0769 21.3925 21.9746 21.4769 21.8915 21.5786C21.8084 21.6804 21.7462 21.7975 21.7083 21.9233C21.6705 22.0491 21.6578 22.1811 21.6711 22.3118C21.6843 22.4425 21.7231 22.5694 21.7853 22.6851C21.8475 22.8008 21.9319 22.9031 22.0337 22.9862C22.1354 23.0692 22.2525 23.1315 22.3783 23.1693Z" fill="black"></path>
  </symbol>
  <symbol fill="none" xmlns="http://www.w3.org/2000/svg" viewBox="0 0 32 32" id="phone-2">
    <path d="M29.393 23.36C28.519 22.627 23.393 19.381 22.541 19.53C22.141 19.601 21.835 19.942 21.016 20.919C20.6372 21.3999 20.2213 21.8503 19.772 22.266C18.9488 22.0671 18.1519 21.7718 17.398 21.386C14.4413 19.9465 12.0526 17.5571 10.614 14.6C10.2282 13.8461 9.93286 13.0492 9.734 12.226C10.1497 11.7767 10.6001 11.3608 11.081 10.982C12.057 10.163 12.399 9.859 12.47 9.457C12.619 8.603 9.37 3.479 8.64 2.605C8.334 2.243 8.056 2 7.7 2C6.668 2 2 7.772 2 8.52C2 8.581 2.1 14.59 9.689 22.311C17.41 29.9 23.419 30 23.48 30C24.228 30 30 25.332 30 24.3C30 23.944 29.757 23.666 29.393 23.36ZM23 15H25C24.9976 12.879 24.154 10.8456 22.6542 9.34578C21.1544 7.846 19.121 7.00238 17 7V9C18.5908 9.00159 20.116 9.63424 21.2409 10.7591C22.3658 11.884 22.9984 13.4092 23 15Z" fill="black"></path>
    <path d="M28 15H30C29.996 11.5534 28.6251 8.24911 26.188 5.812C23.7509 3.37488 20.4466 2.00397 17 2V4C19.9163 4.00344 22.7122 5.16347 24.7744 7.22563C26.8365 9.28778 27.9966 12.0837 28 15Z" fill="black"></path>
  </symbol>
  <symbol fill="none" xmlns="http://www.w3.org/2000/svg" viewBox="0 0 32 32" id="envlob">
    <path d="M20.7343 17.3281L18.0542 20.0173C16.9674 21.1079 15.0552 21.1314 13.9449 20.0173L11.2647 17.3281L1.63867 26.9854C1.99698 27.1511 2.39205 27.2499 2.81205 27.2499H29.187C29.607 27.2499 30.002 27.1512 30.3602 26.9854L20.7343 17.3281Z" fill="#27272A"></path>
    <path d="M29.1875 4.75H2.8125C2.3925 4.75 1.99744 4.84888 1.63925 5.01456L11.9253 15.3348C11.926 15.3354 11.9268 15.3356 11.9275 15.3363C11.9279 15.3367 11.9282 15.3373 11.9283 15.3379L15.2729 18.6935C15.6281 19.0488 16.372 19.0488 16.7272 18.6935L20.0711 15.3384C20.0711 15.3384 20.0719 15.3369 20.0726 15.3363C20.0726 15.3363 20.0741 15.3354 20.0748 15.3348L30.3606 5.0145C30.0024 4.84875 29.6075 4.75 29.1875 4.75ZM0.299125 6.32575C0.11375 6.70062 0 7.11675 0 7.5625V24.4375C0 24.8832 0.113625 25.2994 0.299062 25.6742L9.94175 16.0003L0.299125 6.32575ZM31.7009 6.32562L22.0583 16.0003L31.7009 25.6744C31.8862 25.2995 32 24.8834 32 24.4375V7.5625C32 7.11663 31.8862 6.7005 31.7009 6.32562Z" fill="#27272A"></path>
  </symbol>
</svg>