<svg width="108" height="108" viewBox="0 0 108 108" fill="none" xmlns="http://www.w3.org/2000/svg">
<rect width="107.4" height="107.4" rx="11.9333" fill="#E8F1FF"/>
<path d="M68.75 43C68.75 43 65.9375 48.625 63.125 51.4375C64.0625 40.1875 59.375 36.4375 58.4375 28C58.4375 28 47.1875 31.75 45.3125 47.6875C43.4375 43.9375 40.775 42.0625 38.3562 41.125C38.3562 41.125 38.1031 46.5438 36.875 51.4375C35.9375 55.1875 35 57.0625 35 61.75C35 72.1094 43.3906 80.5 53.75 80.5C64.1094 80.5 72.5 72.1094 72.5 61.75C72.5 55.1875 69.6875 51.4375 68.75 43ZM53.75 78.625C48.2 78.625 43.7094 74.125 43.7094 68.5844C43.7094 65.0688 44.375 61.75 46.25 58C46.25 58 47.7219 61.5531 49.2313 63.0531C48.2281 57.025 51.7437 55.0187 52.2406 50.5C52.2406 50.5 58.4375 55.1875 57.5 62.6875C58.5031 60.175 60.7062 58.0375 62 57.5312C62 57.5312 62.1313 60.4281 62.7875 63.0531C63.2937 65.0687 63.7906 66.0719 63.7906 68.5844C63.7906 74.125 59.3 78.625 53.75 78.625Z" fill="#279FF9"/>
</svg>
