<svg width="24" height="24" viewBox="0 0 24 24" fill="none" xmlns="http://www.w3.org/2000/svg">
<path d="M23.7231 11.16L21.8446 6.91C21.7788 6.75928 21.6707 6.63087 21.5334 6.54035C21.3962 6.44982 21.2355 6.40107 21.0711 6.4H16.5236L16.7956 3.9435C16.809 3.82425 16.797 3.70352 16.7603 3.58924C16.7237 3.47497 16.6633 3.36975 16.5831 3.2805C16.5036 3.19245 16.4066 3.122 16.2983 3.07369C16.19 3.02538 16.0727 3.00028 15.9541 3H4.24961C4.02417 3 3.80797 3.08955 3.64857 3.24896C3.48916 3.40837 3.39961 3.62457 3.39961 3.85C3.39961 4.07543 3.48916 4.29163 3.64857 4.45104C3.80797 4.61045 4.02417 4.7 4.24961 4.7H8.49961C8.72504 4.7 8.94124 4.78955 9.10065 4.94896C9.26005 5.10836 9.34961 5.32456 9.34961 5.55C9.34961 5.77543 9.26005 5.99163 9.10065 6.15104C8.94124 6.31045 8.72504 6.4 8.49961 6.4H2.54961C2.32417 6.4 2.10797 6.48955 1.94857 6.64896C1.78916 6.80836 1.69961 7.02456 1.69961 7.25C1.69961 7.47543 1.78916 7.69163 1.94857 7.85104C2.10797 8.01044 2.32417 8.1 2.54961 8.1H11.0496C11.275 8.1 11.4912 8.18955 11.6506 8.34896C11.8101 8.50836 11.8996 8.72456 11.8996 8.95C11.8996 9.17543 11.8101 9.39163 11.6506 9.55104C11.4912 9.71044 11.275 9.8 11.0496 9.8H5.09961C4.87417 9.8 4.65797 9.88955 4.49857 10.049C4.33916 10.2084 4.24961 10.4246 4.24961 10.65C4.24961 10.8754 4.33916 11.0916 4.49857 11.251C4.65797 11.4104 4.87417 11.5 5.09961 11.5H8.49961C8.72504 11.5 8.94124 11.5895 9.10065 11.749C9.26005 11.9084 9.34961 12.1246 9.34961 12.35C9.34961 12.5754 9.26005 12.7916 9.10065 12.951C8.94124 13.1104 8.72504 13.2 8.49961 13.2H1.69961C1.47418 13.2 1.25797 13.2895 1.09857 13.449C0.939163 13.6084 0.849609 13.8246 0.849609 14.05C0.849609 14.2754 0.939163 14.4916 1.09857 14.651C1.25797 14.8104 1.47418 14.9 1.69961 14.9H3.39961C3.62504 14.9 3.84124 14.9895 4.00065 15.149C4.16005 15.3084 4.24961 15.5246 4.24961 15.75C4.24961 15.9754 4.16005 16.1916 4.00065 16.351C3.84124 16.5104 3.62504 16.6 3.39961 16.6H2.54961C2.32417 16.6 2.10797 16.6895 1.94857 16.849C1.78916 17.0084 1.69961 17.2246 1.69961 17.45C1.69961 17.6754 1.78916 17.8916 1.94857 18.051C2.10797 18.2104 2.32417 18.3 2.54961 18.3H4.97211C5.06389 18.6585 5.23858 18.9904 5.48211 19.269C5.68847 19.4997 5.94134 19.6841 6.22409 19.8101C6.50684 19.9361 6.81306 20.0008 7.12261 20C7.64642 19.985 8.15414 19.8157 8.58209 19.5133C9.01003 19.2108 9.33913 18.7888 9.52811 18.3H16.0221C16.1139 18.6585 16.2886 18.9904 16.5321 19.269C16.7385 19.4997 16.9913 19.6841 17.2741 19.8101C17.5568 19.9361 17.8631 20.0008 18.1726 20C18.6964 19.985 19.2041 19.8157 19.6321 19.5133C20.06 19.2108 20.3891 18.7888 20.5781 18.3H22.2781C22.4882 18.3013 22.6914 18.2247 22.8484 18.085C23.0053 17.9453 23.105 17.7524 23.1281 17.5435L23.7826 11.5935C23.8059 11.4463 23.7852 11.2955 23.7231 11.16ZM7.12261 18.3C7.05212 18.303 6.98186 18.2901 6.91709 18.2621C6.85232 18.2342 6.79472 18.1919 6.74861 18.1385C6.68188 18.0559 6.63307 17.9604 6.60526 17.858C6.57746 17.7555 6.57128 17.6484 6.58711 17.5435C6.60882 17.3048 6.71185 17.0809 6.87897 16.9091C7.04609 16.7374 7.26713 16.6282 7.50511 16.6C7.57559 16.5969 7.64585 16.6099 7.71062 16.6379C7.77539 16.6658 7.83299 16.7081 7.87911 16.7615C7.94583 16.844 7.99465 16.9396 8.02245 17.042C8.05025 17.1444 8.05644 17.2515 8.04061 17.3565C8.0189 17.5951 7.91586 17.8191 7.74874 17.9909C7.58163 18.1626 7.36058 18.2718 7.12261 18.3ZM18.1726 18.3C18.1021 18.303 18.0319 18.2901 17.9671 18.2621C17.9023 18.2342 17.8447 18.1919 17.7986 18.1385C17.7319 18.0559 17.6831 17.9604 17.6553 17.858C17.6275 17.7555 17.6213 17.6484 17.6371 17.5435C17.6588 17.3048 17.7618 17.0809 17.929 16.9091C18.0961 16.7374 18.3171 16.6282 18.5551 16.6C18.6256 16.5969 18.6958 16.6099 18.7606 16.6379C18.8254 16.6658 18.883 16.7081 18.9291 16.7615C18.9958 16.844 19.0446 16.9396 19.0724 17.042C19.1002 17.1444 19.1064 17.2515 19.0906 17.3565C19.0689 17.5951 18.9659 17.8191 18.7987 17.9909C18.6316 18.1626 18.4106 18.2718 18.1726 18.3ZM21.9976 12.35H18.2406C18.122 12.3497 18.0047 12.3246 17.8964 12.2763C17.7881 12.228 17.6911 12.1575 17.6116 12.0695C17.5314 11.9802 17.471 11.875 17.4344 11.7608C17.3977 11.6465 17.3857 11.5257 17.3991 11.4065L17.6796 8.8565C17.7047 8.64917 17.8052 8.45833 17.9619 8.32037C18.1187 8.18241 18.3208 8.10699 18.5296 8.1085H20.5101L22.0996 11.636L21.9976 12.35Z" fill="#27272A" fill-opacity="0.7"/>
<path d="M1.7 11.4998C1.92543 11.4998 2.14163 11.4103 2.30104 11.2508C2.46044 11.0914 2.55 10.8752 2.55 10.6498C2.55 10.4244 2.46044 10.2082 2.30104 10.0488C2.14163 9.88936 1.92543 9.7998 1.7 9.7998H0.849999C0.624566 9.7998 0.408365 9.88936 0.248959 10.0488C0.0895532 10.2082 0 10.4244 0 10.6498C0 10.8752 0.0895532 11.0914 0.248959 11.2508C0.408365 11.4103 0.624566 11.4998 0.849999 11.4998H1.7Z" fill="#27272A" fill-opacity="0.7"/>
</svg>
