<svg width="24" height="24" viewBox="0 0 24 24" fill="none" xmlns="http://www.w3.org/2000/svg">
<g clip-path="url(#clip0_529_9257)">
<path d="M4.27417 7.14664H4.34488C4.39702 7.02505 4.44959 6.90946 4.50442 6.80232C4.69961 6.41142 4.93946 6.04447 5.21918 5.70882L4.46236 4.95175H2.53252V4.11151H3.61997L2.2352 2.72668L2.82984 2.13199L4.21467 3.51703V2.42936H5.05574V4.3581L5.80257 5.10493C6.23508 4.71906 6.72518 4.40308 7.25516 4.16839C6.60338 2.60141 5.07052 1.5825 3.37359 1.58828H1.69144V3.27044C1.68466 4.96731 2.70557 6.49964 4.27417 7.14664ZM5.25534 7.18154C5.24525 7.20168 5.23563 7.2236 5.22517 7.24541C6.28987 7.4949 7.34305 8.21276 8.33342 9.38732C9.49425 10.7868 10.3353 12.423 10.7977 14.1815C10.9461 14.8072 10.9811 15.4545 10.9012 16.0927L18.6836 14.5044C19.4762 14.3414 20.3011 14.4942 20.9828 14.9303L21.3873 14.0282C21.9841 12.6988 22.2943 11.2587 22.2978 9.8015C22.2971 8.89193 22.0848 7.99499 21.6779 7.18154C21.2822 6.38481 20.6714 5.71472 19.9146 5.24707C18.1918 4.18479 15.9877 4.31805 14.4056 5.58008L13.887 5.99547V5.40304C13.8846 4.51513 14.0583 3.63556 14.3981 2.81523C14.7378 1.9949 15.237 1.25012 15.8665 0.62399L15.2719 0.0292969C14.5639 0.733333 14.0027 1.5708 13.6206 2.49322C13.2385 3.41563 13.0432 4.40468 13.046 5.40309V5.99552L12.5264 5.57924C11.6773 4.90272 10.6242 4.53362 9.53852 4.53205C7.72211 4.52464 6.05988 5.5528 5.25534 7.18154Z" fill="#27272A"/>
<path d="M13.2238 3.24069C13.0187 1.74089 11.8394 0.561597 10.3398 0.356689C10.545 1.85628 11.7242 3.03552 13.2238 3.24069ZM4.80261 12.562C3.22129 12.9334 2.23975 14.5154 2.60898 16.0969C2.74438 16.6791 3.05747 17.2048 3.50489 17.6012L8.14847 16.6537C8.37913 16.1532 8.46449 15.598 8.39482 15.0514C8.32515 14.5048 8.10324 13.9887 7.75442 13.5621C7.40562 13.1355 6.94391 12.8155 6.42198 12.6386C5.90006 12.4617 5.33893 12.4352 4.80261 12.5619V12.562Z" fill="#27272A"/>
<path d="M1.62656 17.9855L2.53213 17.801C1.55386 16.5895 1.41771 14.9026 2.18861 13.5496C2.95945 12.1968 4.48022 11.4541 6.02108 11.6779C7.56198 11.9017 8.80856 13.0465 9.1626 14.5627C9.30611 15.1884 9.28951 15.8402 9.11434 16.4578L10.0152 16.2741C10.1375 15.6448 10.1255 14.9967 9.97986 14.3724C9.55019 12.7414 8.76871 11.2243 7.6903 9.92756C6.79129 8.86371 5.37734 7.67522 3.75085 8.05796C2.12411 8.4407 1.38265 10.1303 1.04874 11.4828C0.657368 13.1229 0.630237 14.8287 0.969257 16.4804C1.09568 17.0177 1.31837 17.5276 1.62656 17.9855ZM24.0001 17.1394L23.8268 16.316L22.8596 16.52L23.4198 15.7038L22.726 15.2284L21.5719 16.9106C21.5501 16.9439 21.5334 16.9802 21.5223 17.0184C21.2767 15.9972 20.3617 15.2788 19.3115 15.2819C19.1572 15.2819 19.0031 15.2975 18.8518 15.3283L18.8099 15.3371C18.8688 15.8464 18.8333 16.3623 18.7052 16.8589L18.6631 17.0196L17.8498 16.8063L17.8918 16.6461C17.9881 16.2741 18.0194 15.8883 17.9842 15.5057L15.5657 15.9989C15.6462 16.6353 15.577 17.2817 15.3639 17.8868L14.5717 17.604C14.7346 17.1437 14.793 16.6528 14.7427 16.1671L12.6901 16.5876C12.7295 17.1512 12.6534 17.7169 12.4665 18.2501L11.6741 17.9675C11.8114 17.5792 11.8747 17.1685 11.8607 16.7568L9.80408 17.1773C9.81112 17.666 9.73151 18.1521 9.56894 18.6131L8.77613 18.3258C8.88704 18.0104 8.94907 17.68 8.9599 17.346L6.904 17.7665C6.88771 18.1779 6.80901 18.5845 6.6706 18.9722L5.87878 18.6886C5.9642 18.4473 6.02071 18.1966 6.04699 17.9418L0.413359 19.0911C0.288792 19.1141 0.177406 19.183 0.101299 19.2843C0.0251912 19.3855 -0.0100763 19.5117 0.00249312 19.6377C0.0150901 19.7638 0.0746277 19.8804 0.169279 19.9646C0.26393 20.0487 0.386769 20.0942 0.513394 20.0919H19.0731C19.3736 20.0928 19.6713 20.0341 19.9489 19.9191C20.2265 19.8041 20.4785 19.6352 20.6904 19.4221L20.9263 19.1858C21.1394 18.9739 21.3083 18.7219 21.4233 18.4444C21.5383 18.1668 21.5971 17.8692 21.5963 17.5687C21.5963 17.5065 21.5836 17.4474 21.5787 17.3863C21.5883 17.4036 21.5992 17.4202 21.6113 17.4359L23.1859 19.118L23.7998 18.5429L22.7356 17.4073L24.0001 17.1394Z" fill="#27272A"/>
</g>
<defs>
<clipPath id="clip0_529_9257">
<rect width="24" height="24" fill="white"/>
</clipPath>
</defs>
</svg>
