<svg width="24" height="24" viewBox="0 0 24 24" fill="none" xmlns="http://www.w3.org/2000/svg">
<path d="M21.5001 19H18C15.7945 19 14.0001 17.2056 14.0001 15.0001C14.0001 12.7946 15.7945 11.0002 18 11.0002H21.5001C21.5657 11.0002 21.6308 10.9873 21.6915 10.9622C21.7521 10.9371 21.8073 10.9003 21.8537 10.8538C21.9002 10.8074 21.937 10.7523 21.9621 10.6916C21.9872 10.6309 22.0001 10.5659 22.0001 10.5002V9.00021C22.0001 7.95173 21.1868 7.09904 20.1593 7.01635L17.2877 2.00081C17.0216 1.53694 16.5919 1.2054 16.0777 1.06773C15.566 0.930998 15.0308 1.00281 14.5728 1.26938L4.72891 7.00023H3.00002C1.897 7.00023 1 7.89717 1 9.00021V21C1 22.103 1.89695 23 3.00002 23H20.0001C21.1031 23 22.0001 22.1031 22.0001 21V19.5C22.0001 19.4344 21.9872 19.3693 21.9621 19.3086C21.937 19.248 21.9002 19.1928 21.8537 19.1464C21.8073 19.0999 21.7521 19.0631 21.6915 19.038C21.6308 19.0129 21.5657 19 21.5001 19ZM17.9078 5.09732L18.9973 7.00023H14.6392L17.9078 5.09732ZM6.71642 7.00023L15.0762 2.1336C15.3023 2.00128 15.5664 1.96612 15.8189 2.03353C16.0743 2.10187 16.2872 2.26691 16.4195 2.49786L16.4205 2.49969L8.69037 7.00023H6.71642Z" fill="#27272A" fill-opacity="0.7"/>
<path d="M21.4995 12.0002H17.9995C16.3452 12.0002 14.9995 13.3459 14.9995 15.0002C14.9995 16.6545 16.3452 18.0001 17.9995 18.0001H21.4995C22.3267 18.0001 22.9995 17.3273 22.9995 16.5002V13.5002C22.9995 12.6731 22.3267 12.0002 21.4995 12.0002ZM17.9995 16.0002C17.4483 16.0002 16.9995 15.5514 16.9995 15.0002C16.9995 14.449 17.4483 14.0002 17.9995 14.0002C18.5508 14.0002 18.9995 14.449 18.9995 15.0002C18.9995 15.5514 18.5508 16.0002 17.9995 16.0002Z" fill="#27272A" fill-opacity="0.7"/>
</svg>
