<svg width="24" height="24" viewBox="0 0 24 24" fill="none" xmlns="http://www.w3.org/2000/svg">
<path d="M10.125 18.75H19.1483C18.0836 20.7262 16.506 22.125 14.625 22.125C13.6602 22.1307 12.7265 21.7834 12 21.1485C11.2735 21.7834 10.3398 22.1307 9.375 22.125C6.0375 22.125 3.65625 17.7229 3.399 13.5H13.875C14.1733 13.4997 14.4593 13.3811 14.6702 13.1702C14.8811 12.9593 14.9997 12.6733 15 12.375V10.875C14.9997 10.5767 14.8811 10.2907 14.6702 10.0798C14.4593 9.86892 14.1733 9.7503 13.875 9.75H3.73313C4.44863 7.095 6.21338 5.625 8.8125 5.625C9.66712 5.62253 10.5075 5.84387 11.25 6.267V5.625C11.25 4.63044 11.6451 3.67661 12.3484 2.97335C13.0516 2.27009 14.0054 1.875 15 1.875C15.1989 1.875 15.3897 1.95402 15.5303 2.09467C15.671 2.23532 15.75 2.42609 15.75 2.625C15.75 2.82391 15.671 3.01468 15.5303 3.15533C15.3897 3.29598 15.1989 3.375 15 3.375C14.4033 3.375 13.831 3.61205 13.409 4.03401C12.9871 4.45597 12.75 5.02826 12.75 5.625V6.267C13.4925 5.84387 14.3329 5.62253 15.1875 5.625C18.6431 5.625 20.625 8.22188 20.625 12.75C20.6229 13.5045 20.5549 14.2573 20.4218 15H10.125C9.82672 15.0003 9.54075 15.1189 9.32983 15.3298C9.11892 15.5407 9.0003 15.8267 9 16.125V17.625C9.0003 17.9233 9.11892 18.2093 9.32983 18.4202C9.54075 18.6311 9.82672 18.7497 10.125 18.75ZM3.75 11.625V12.75H5.25V12C5.25 11.9005 5.28951 11.8052 5.35984 11.7348C5.43016 11.6645 5.52554 11.625 5.625 11.625C5.72446 11.625 5.81984 11.6645 5.89017 11.7348C5.96049 11.8052 6 11.9005 6 12V12.75H7.5V11.625C7.5 11.5255 7.53951 11.4302 7.60984 11.3598C7.68016 11.2895 7.77554 11.25 7.875 11.25C7.97446 11.25 8.06984 11.2895 8.14017 11.3598C8.21049 11.4302 8.25 11.5255 8.25 11.625V12.75H9.75V12C9.75 11.9005 9.78951 11.8052 9.85984 11.7348C9.93016 11.6645 10.0255 11.625 10.125 11.625C10.2245 11.625 10.3198 11.6645 10.3902 11.7348C10.4605 11.8052 10.5 11.9005 10.5 12V12.75H12V11.625C12 11.5255 12.0395 11.4302 12.1098 11.3598C12.1802 11.2895 12.2755 11.25 12.375 11.25C12.4745 11.25 12.5698 11.2895 12.6402 11.3598C12.7105 11.4302 12.75 11.5255 12.75 11.625V12.75H13.875C13.9744 12.7497 14.0696 12.7101 14.1398 12.6398C14.2101 12.5696 14.2497 12.4744 14.25 12.375V10.875C14.2497 10.7756 14.2101 10.6804 14.1398 10.6102C14.0696 10.5399 13.9744 10.5003 13.875 10.5H2.25C1.85218 10.5 1.47064 10.658 1.18934 10.9393C0.908035 11.2206 0.75 11.6022 0.75 12V13.875C0.750595 14.3721 0.948331 14.8487 1.29983 15.2002C1.65133 15.5517 2.1279 15.7494 2.625 15.75C2.72446 15.75 2.81984 15.7105 2.89017 15.6402C2.96049 15.5698 3 15.4745 3 15.375C3 15.2755 2.96049 15.1802 2.89017 15.1098C2.81984 15.0395 2.72446 15 2.625 15C2.32663 15 2.04048 14.8815 1.8295 14.6705C1.61853 14.4595 1.5 14.1734 1.5 13.875C1.5 13.5766 1.61853 13.2905 1.8295 13.0795C2.04048 12.8685 2.32663 12.75 2.625 12.75H3V11.625C3 11.5255 3.03951 11.4302 3.10984 11.3598C3.18016 11.2895 3.27554 11.25 3.375 11.25C3.47446 11.25 3.56984 11.2895 3.64017 11.3598C3.71049 11.4302 3.75 11.5255 3.75 11.625ZM21.8426 12.8104C21.7943 12.7965 21.7437 12.7925 21.6938 12.7986C21.644 12.8046 21.5958 12.8207 21.5522 12.8457C21.5087 12.8708 21.4706 12.9043 21.4403 12.9444C21.4099 12.9844 21.3879 13.0302 21.3756 13.0789C21.3633 13.1276 21.3609 13.1783 21.3686 13.228C21.3762 13.2776 21.3938 13.3253 21.4202 13.368C21.4466 13.4107 21.4814 13.4477 21.5224 13.4768C21.5634 13.5058 21.6098 13.5264 21.6589 13.5371C21.9003 13.599 22.1141 13.7397 22.2665 13.9369C22.4189 14.1341 22.501 14.3765 22.5 14.6257V14.6595C22.5008 14.9477 22.3871 15.2245 22.184 15.429C21.9809 15.6334 21.7049 15.7489 21.4166 15.75H10.125C10.0256 15.7503 9.93043 15.7899 9.86016 15.8602C9.7899 15.9304 9.7503 16.0256 9.75 16.125V17.625C9.7503 17.7244 9.7899 17.8196 9.86016 17.8898C9.93043 17.9601 10.0256 17.9997 10.125 18H11.25V16.875C11.25 16.7755 11.2895 16.6802 11.3598 16.6098C11.4302 16.5395 11.5255 16.5 11.625 16.5C11.7245 16.5 11.8198 16.5395 11.8902 16.6098C11.9605 16.6802 12 16.7755 12 16.875V18H13.5V17.25C13.5 17.1505 13.5395 17.0552 13.6098 16.9848C13.6802 16.9145 13.7755 16.875 13.875 16.875C13.9745 16.875 14.0698 16.9145 14.1402 16.9848C14.2105 17.0552 14.25 17.1505 14.25 17.25V18H15.75V16.875C15.75 16.7755 15.7895 16.6802 15.8598 16.6098C15.9302 16.5395 16.0255 16.5 16.125 16.5C16.2245 16.5 16.3198 16.5395 16.3902 16.6098C16.4605 16.6802 16.5 16.7755 16.5 16.875V18H18V17.25C18 17.1505 18.0395 17.0552 18.1098 16.9848C18.1802 16.9145 18.2755 16.875 18.375 16.875C18.4745 16.875 18.5698 16.9145 18.6402 16.9848C18.7105 17.0552 18.75 17.1505 18.75 17.25V18H20.25V16.875C20.25 16.7755 20.2895 16.6802 20.3598 16.6098C20.4302 16.5395 20.5255 16.5 20.625 16.5C20.7245 16.5 20.8198 16.5395 20.8902 16.6098C20.9605 16.6802 21 16.7755 21 16.875V18H21.75C22.1478 18 22.5294 17.842 22.8107 17.5607C23.092 17.2794 23.25 16.8978 23.25 16.5V14.625C23.2507 14.2091 23.1127 13.8048 22.8578 13.4761C22.6029 13.1474 22.2457 12.9132 21.8426 12.8104Z" fill="#27272A"/>
</svg>
