<svg width="90" height="90" viewBox="0 0 90 90" fill="none" xmlns="http://www.w3.org/2000/svg">
<rect width="90" height="90" rx="15" fill="#3FB536"/>
<path d="M28.482 37.4767C27.9302 37.4767 27.4824 37.9242 27.4824 38.4759C27.4824 39.0275 27.9302 39.4754 28.482 39.4754C29.0337 39.4754 29.4815 39.0276 29.4815 38.4759C29.4815 37.9241 29.0337 37.4767 28.482 37.4767Z" fill="white"/>
<path d="M56.487 49.4197C56.3942 49.3269 56.2841 49.2532 56.1628 49.2029C56.0415 49.1527 55.9116 49.1268 55.7803 49.1268C55.7701 49.1288 55.3859 49.1074 55.0736 49.4197L54.3673 50.126L52.0706 47.8297C57.1386 40.7256 56.3678 30.9258 50.1266 24.685C43.0963 17.6546 31.7165 17.6534 24.6853 24.685C17.655 31.7149 17.6538 43.0952 24.6853 50.1264C30.9109 56.3525 40.7068 57.1513 47.8296 52.0705L50.1262 54.367L49.42 55.0733C49.0298 55.4634 49.0295 56.0967 49.42 56.4872L62.0563 69.1224C64.0089 71.0762 67.1695 71.0774 69.1225 69.1228C71.0763 67.1706 71.0771 64.0095 69.1225 62.0565L56.487 49.4197ZM51.5397 52.9536L49.3997 50.8136C49.6484 50.5907 49.8915 50.3618 50.1266 50.1264C50.3623 49.8905 50.5914 49.6482 50.8138 49.3997L52.9538 51.5397L51.5397 52.9536ZM26.0987 48.7129C19.8493 42.4638 19.8486 32.3483 26.0987 26.0983C32.3478 19.8489 42.4634 19.8482 48.7132 26.0983C54.9486 32.3335 54.9803 42.4467 48.7132 48.7129C42.3755 55.0514 32.2626 54.8773 26.0987 48.7129ZM55.7803 51.5398L58.6067 54.3665L54.3669 58.6065L51.5401 55.7801L55.7803 51.5398ZM67.7091 67.7094C66.5378 68.8819 64.6422 68.8823 63.4701 67.7094L55.7803 60.0199L60.0201 55.7801L67.7096 63.4703C68.8816 64.6412 68.8828 66.5369 67.7091 67.7093V67.7094Z" fill="white"/>
<path d="M47.3016 27.5122C41.8358 22.0463 32.9809 22.0432 27.5128 27.5114C22.0582 32.9671 22.0582 41.8443 27.5128 47.3003C32.9817 52.769 41.8315 52.7693 47.3008 47.3003C52.7565 41.8443 52.7569 32.9675 47.3016 27.5122ZM45.8874 45.8865C41.2002 50.5739 33.6146 50.575 28.9261 45.8869C24.2509 41.2101 24.2509 33.6012 28.9261 28.9244C33.6111 24.2399 41.2017 24.2387 45.8883 28.9256C50.5641 33.6015 50.5637 41.2102 45.8874 45.8865Z" fill="white"/>
<path d="M37.4072 27.4122C34.7359 27.4122 32.2261 28.4516 30.3402 30.3386C29.247 31.4319 28.4423 32.7235 27.9488 34.1782C27.7715 34.7007 28.0511 35.2684 28.5738 35.4456C29.0975 35.6233 29.6643 35.3422 29.8416 34.8205C30.2355 33.6591 30.879 32.6265 31.7536 31.7516C33.2623 30.2425 35.27 29.4113 37.4072 29.4113C37.9594 29.4113 38.4068 28.9638 38.4068 28.4118C38.4068 27.8597 37.9594 27.4122 37.4072 27.4122Z" fill="white"/>
</svg>
