<svg width="90" height="90" viewBox="0 0 90 90" fill="none" xmlns="http://www.w3.org/2000/svg">
<rect width="90" height="90" rx="15" fill="#FF707A"/>
<path fill-rule="evenodd" clip-rule="evenodd" d="M50.9742 45.9363H47.8474C47.2524 45.9363 46.7692 45.4531 46.7692 44.858C46.7692 44.263 47.2524 43.7798 47.8474 43.7798H50.9742V28.9005C50.9742 27.3522 52.2293 26.0972 53.7776 26.0972H56.0418C56.6369 26.0972 57.12 26.5803 57.12 27.1754C57.12 27.7705 56.6369 28.2536 56.0418 28.2536H53.7776C53.606 28.2536 53.4415 28.3218 53.3201 28.4431C53.1988 28.5644 53.1307 28.729 53.1307 28.9005V43.7798H56.0418C56.6369 43.7798 57.12 44.263 57.12 44.858C57.12 45.4531 56.6369 45.9363 56.0418 45.9363H53.1307V60.5999C53.1307 60.7715 53.1988 60.936 53.3201 61.0573C53.4415 61.1787 53.606 61.2468 53.7776 61.2468H56.0418C56.6369 61.2468 57.12 61.73 57.12 62.325C57.12 62.9201 56.6369 63.4032 56.0418 63.4032H53.7776C52.2293 63.4032 50.9742 62.1482 50.9742 60.5999V45.9363ZM25.3318 60.9015C23.8085 60.6507 22.8479 60.1846 22.2149 59.4826C21.7206 58.9343 21.3993 58.2276 21.2214 57.288C21.0097 56.1708 21 54.6583 21 52.6095V47.2871C21 47.2586 20.9677 44.1097 23.8114 41.6079C25.5754 40.0562 28.4995 38.7122 33.3994 38.7122C38.2993 38.7122 41.2235 40.0562 42.9874 41.6079C45.8312 44.1097 45.7988 47.2586 45.7988 47.2871V52.6095C45.7988 54.6579 45.7891 56.1703 45.5775 57.2874C45.3996 58.227 45.0783 58.9337 44.584 59.4821C43.951 60.1842 42.9903 60.6506 41.467 60.9015C41.4441 61.9128 41.3932 62.7256 41.2814 63.3789C41.1114 64.3712 40.7924 65.0647 40.3203 65.5709C39.833 66.0937 39.1676 66.442 38.2123 66.6302C37.1353 66.8424 35.5974 66.8535 33.3994 66.8535C31.2015 66.8535 29.6635 66.8424 28.5865 66.6302C27.6312 66.442 26.9659 66.0937 26.4785 65.5709C26.0065 65.0647 25.6874 64.3712 25.5175 63.3789C25.4057 62.7256 25.3548 61.9128 25.3318 60.9015ZM41.4858 58.7238C42.1729 58.5954 42.6566 58.3996 42.9822 58.0383C43.3228 57.6604 43.4474 57.1206 43.5325 56.3945C43.646 55.4273 43.6424 54.1907 43.6424 52.6095V47.2871C43.6424 47.2665 43.6102 45.0279 41.5631 43.227C40.0665 41.9105 37.5566 40.8687 33.3994 40.8687C29.2423 40.8687 26.7323 41.9105 25.2358 43.227C23.1887 45.0279 23.1564 47.2665 23.1564 47.2871V52.6095C23.1564 54.191 23.1529 55.4278 23.2663 56.395C23.3514 57.1211 23.4759 57.6608 23.8165 58.0385C24.1422 58.3998 24.6259 58.5955 25.3131 58.7238C25.3129 58.5718 25.3129 58.4165 25.3129 58.2581V50.0334C25.3129 49.4384 25.796 48.9552 26.3911 48.9552C26.9861 48.9552 27.4693 49.4384 27.4693 50.0334V58.2581C27.4693 60.0894 27.4664 61.4628 27.573 62.4929C27.651 63.2449 27.7442 63.7662 28.0557 64.1004C28.3495 64.4156 28.8142 64.5084 29.4753 64.5872C30.4298 64.701 31.7025 64.6971 33.3994 64.6971C35.0963 64.6971 36.369 64.701 37.3236 64.5872C37.9846 64.5084 38.4493 64.4156 38.7431 64.1004C39.0546 63.7662 39.1479 63.2449 39.2259 62.4929C39.3325 61.4628 39.3296 60.0894 39.3296 58.2581V50.0334C39.3296 49.4384 39.8127 48.9552 40.4078 48.9552C41.0029 48.9552 41.486 49.4384 41.486 50.0334V58.2581C41.486 58.4165 41.486 58.5718 41.4858 58.7238ZM58.4139 27.1754C58.4139 25.8571 58.4236 24.9348 58.5423 24.2888C58.6642 23.6246 58.903 23.1667 59.2418 22.828C59.5806 22.4891 60.0385 22.2504 60.7026 22.1284C61.3487 22.0097 62.271 22 63.5893 22C64.9076 22 65.8299 22.0097 66.476 22.1284C67.1401 22.2504 67.598 22.4891 67.9367 22.828C68.2756 23.1667 68.5143 23.6246 68.6363 24.2888C68.755 24.9348 68.7647 25.8571 68.7647 27.1754C68.7647 28.4937 68.755 29.4161 68.6363 30.0621C68.5143 30.7262 68.2756 31.1841 67.9367 31.5229C67.598 31.8617 67.1401 32.1005 66.476 32.2224C65.8299 32.3411 64.9076 32.3508 63.5893 32.3508C62.271 32.3508 61.3487 32.3411 60.7026 32.2224C60.0385 32.1005 59.5806 31.8617 59.2418 31.5229C58.903 31.1841 58.6642 30.7262 58.5423 30.0621C58.4236 29.4161 58.4139 28.4937 58.4139 27.1754ZM60.5703 27.1754C60.5703 28.1482 60.567 28.8779 60.6278 29.425C60.6569 29.6871 60.6502 29.8816 60.7667 29.9981C60.8831 30.1145 61.0776 30.1078 61.3397 30.1369C61.8868 30.1977 62.6165 30.1944 63.5893 30.1944C64.5621 30.1944 65.2918 30.1977 65.8389 30.1369C66.101 30.1078 66.2955 30.1145 66.4119 29.9981C66.5284 29.8816 66.5217 29.6871 66.5508 29.425C66.6116 28.8779 66.6083 28.1482 66.6083 27.1754C66.6083 26.2026 66.6116 25.473 66.5508 24.9258C66.5217 24.6637 66.5284 24.4692 66.4119 24.3528C66.2955 24.2363 66.101 24.243 65.8389 24.2139C65.2917 24.1531 64.5621 24.1564 63.5893 24.1564C62.6165 24.1564 61.8869 24.1531 61.3397 24.2139C61.0776 24.243 60.8831 24.2363 60.7667 24.3528C60.6502 24.4692 60.6569 24.6637 60.6278 24.9258C60.567 25.473 60.5703 26.2026 60.5703 27.1754ZM58.4139 62.325C58.4139 61.0067 58.4236 60.0844 58.5423 59.4383C58.6642 58.7743 58.903 58.3164 59.2418 57.9776C59.5806 57.6387 60.0385 57.4 60.7026 57.278C61.3487 57.1593 62.271 57.1496 63.5893 57.1496C64.9076 57.1496 65.8299 57.1593 66.476 57.278C67.1401 57.4 67.598 57.6387 67.9367 57.9776C68.2756 58.3164 68.5143 58.7743 68.6363 59.4383C68.755 60.0844 68.7647 61.0067 68.7647 62.325C68.7647 63.6434 68.755 64.5657 68.6363 65.2117C68.5143 65.8758 68.2756 66.3337 67.9367 66.6725C67.598 67.0114 67.1401 67.2501 66.476 67.372C65.8299 67.4907 64.9076 67.5004 63.5893 67.5004C62.271 67.5004 61.3487 67.4907 60.7026 67.372C60.0385 67.2501 59.5806 67.0114 59.2418 66.6725C58.903 66.3337 58.6642 65.8758 58.5423 65.2117C58.4236 64.5657 58.4139 63.6434 58.4139 62.325ZM60.5703 62.325C60.5703 63.2978 60.567 64.0275 60.6278 64.5746C60.6569 64.8367 60.6502 65.0312 60.7667 65.1477C60.8831 65.2641 61.0776 65.2574 61.3397 65.2866C61.8868 65.3474 62.6165 65.344 63.5893 65.344C64.5621 65.344 65.2918 65.3474 65.8389 65.2866C66.101 65.2574 66.2955 65.2641 66.4119 65.1477C66.5284 65.0312 66.5217 64.8367 66.5508 64.5746C66.6116 64.0275 66.6083 63.2978 66.6083 62.325C66.6083 61.3523 66.6116 60.6225 66.5508 60.0755C66.5217 59.8133 66.5284 59.6188 66.4119 59.5024C66.2955 59.3859 66.101 59.3926 65.8389 59.3635C65.2918 59.3027 64.5621 59.306 63.5893 59.306C62.6165 59.306 61.8868 59.3027 61.3397 59.3635C61.0776 59.3926 60.8831 59.3859 60.7667 59.5024C60.6502 59.6188 60.6569 59.8133 60.6278 60.0755C60.567 60.6225 60.5703 61.3523 60.5703 62.325ZM58.4139 44.7502C58.4139 43.4319 58.4236 42.5096 58.5423 41.8635C58.6642 41.1995 58.903 40.7415 59.2418 40.4028C59.5806 40.0639 60.0385 39.8252 60.7026 39.7032C61.3487 39.5845 62.271 39.5748 63.5893 39.5748C64.9076 39.5748 65.8299 39.5845 66.476 39.7032C67.1401 39.8252 67.598 40.0639 67.9367 40.4028C68.2756 40.7415 68.5143 41.1995 68.6363 41.8635C68.755 42.5096 68.7647 43.4319 68.7647 44.7502C68.7647 46.0685 68.755 46.9908 68.6363 47.6369C68.5143 48.301 68.2756 48.7589 67.9367 49.0977C67.598 49.4366 67.1401 49.6753 66.476 49.7972C65.8299 49.9159 64.9076 49.9256 63.5893 49.9256C62.271 49.9256 61.3487 49.9159 60.7026 49.7972C60.0385 49.6753 59.5806 49.4366 59.2418 49.0977C58.903 48.7589 58.6642 48.301 58.5423 47.6369C58.4236 46.9908 58.4139 46.0685 58.4139 44.7502ZM60.5703 44.7502C60.5703 45.723 60.567 46.4527 60.6278 46.9998C60.6569 47.2619 60.6502 47.4564 60.7667 47.5729C60.8831 47.6893 61.0776 47.6826 61.3397 47.7117C61.8868 47.7726 62.6165 47.7692 63.5893 47.7692C64.5621 47.7692 65.2918 47.7726 65.8389 47.7117C66.101 47.6826 66.2955 47.6893 66.4119 47.5729C66.5284 47.4564 66.5217 47.2619 66.5508 46.9998C66.6116 46.4527 66.6083 45.723 66.6083 44.7502C66.6083 43.7775 66.6116 43.0477 66.5508 42.5006C66.5217 42.2385 66.5284 42.044 66.4119 41.9276C66.2955 41.8111 66.101 41.8178 65.8389 41.7887C65.2918 41.7279 64.5621 41.7312 63.5893 41.7312C62.6165 41.7312 61.8868 41.7279 61.3397 41.7887C61.0776 41.8178 60.8831 41.8111 60.7667 41.9276C60.6502 42.044 60.6569 42.2385 60.6278 42.5006C60.567 43.0477 60.5703 43.7775 60.5703 44.7502ZM33.3994 37.8497C29.8296 37.8497 26.9302 34.932 26.9302 31.3265C26.9302 27.721 29.8296 24.8033 33.3994 24.8033C36.9693 24.8033 39.8687 27.721 39.8687 31.3265C39.8687 34.932 36.9693 37.8497 33.3994 37.8497ZM33.3994 35.6933C35.7843 35.6933 37.7123 33.7352 37.7123 31.3265C37.7123 28.9178 35.7843 26.9598 33.3994 26.9598C31.0145 26.9598 29.0866 28.9178 29.0866 31.3265C29.0866 33.7352 31.0145 35.6933 33.3994 35.6933Z" fill="white"/>
</svg>
