<svg width="90" height="90" viewBox="0 0 90 90" fill="none" xmlns="http://www.w3.org/2000/svg">
<rect width="90" height="90" rx="15" fill="#3FB536"/>
<path d="M73.4119 33.6622L53.9275 22.9633C53.7605 22.8716 53.573 22.8235 53.3824 22.8235C53.1918 22.8235 53.0043 22.8716 52.8372 22.9633L45.5102 26.9866C45.343 27.0335 45.1887 27.1181 45.0593 27.234L33.3527 33.6622C33.1748 33.7599 33.0264 33.9036 32.923 34.0783C32.8197 34.253 32.7651 34.4522 32.765 34.6551V36.9713H19.6953C19.0697 36.9713 18.5625 37.4788 18.5625 38.1041C18.5625 38.7298 19.0697 39.2369 19.6953 39.2369H32.7651V43.315H26.2705C25.6448 43.315 25.1377 43.8225 25.1377 44.4479C25.1377 45.0735 25.6448 45.5807 26.2705 45.5807H32.7651V51.4713H23.2495C22.6239 51.4713 22.1167 51.9788 22.1167 52.6041C22.1167 53.2298 22.6239 53.7369 23.2495 53.7369H32.7651V56.0534C32.7651 56.4667 32.9903 56.8473 33.3528 57.0463L52.8372 67.7453C53.0071 67.8386 53.1947 67.8851 53.3823 67.8851C53.5699 67.8851 53.7576 67.8386 53.9275 67.7453L73.4119 57.0463C73.5898 56.9486 73.7382 56.8049 73.8415 56.6302C73.9449 56.4556 73.9995 56.2564 73.9995 56.0534V50.9806C73.9995 50.3553 73.4924 49.8478 72.8667 49.8478C72.241 49.8478 71.7339 50.3553 71.7339 50.9806V55.383L54.5151 64.838V46.0245L59.9912 43.0177V47.7897C59.9911 47.9384 60.0204 48.0858 60.0773 48.2232C60.1342 48.3607 60.2176 48.4856 60.3228 48.5908C60.428 48.696 60.5529 48.7795 60.6904 48.8364C60.8279 48.8933 60.9752 48.9225 61.124 48.9225C61.3116 48.9225 61.4996 48.876 61.67 48.7821L65.8455 46.4842C66.0231 46.3864 66.1712 46.2426 66.2743 46.0681C66.3774 45.8935 66.4318 45.6944 66.4318 45.4916V39.4812L71.7339 36.5698V41.9181C71.7339 42.5437 72.241 43.0509 72.8667 43.0509C73.4924 43.0509 73.9995 42.5437 73.9995 41.9181V34.6551C73.9995 34.2419 73.7744 33.8613 73.4119 33.6622ZM52.2495 64.838L35.0308 55.383V36.5699L52.2495 46.0244V64.838ZM53.3823 44.0619L36.2516 34.6551L41.6356 31.6988L58.7667 41.1056L53.3823 44.0619ZM61.1205 39.8131L43.9893 30.4062L45.8465 29.3867L62.9771 38.7935L61.1205 39.8131ZM64.1661 44.8221L62.2568 45.8732V41.7737L64.1661 40.725V44.8221ZM65.3309 37.5009L48.2002 28.0941L53.3823 25.2488L70.5131 34.6551L65.3309 37.5009Z" fill="white"/>
<path d="M72.8672 45.317C72.5668 45.3174 72.2789 45.4367 72.0663 45.6489C71.8544 45.8617 71.7352 46.1495 71.7344 46.4498C71.7344 46.7475 71.8556 47.04 72.0663 47.2507C72.277 47.4614 72.5694 47.5826 72.8672 47.5826C73.165 47.5826 73.4574 47.4614 73.6681 47.2507C73.8797 47.0377 73.999 46.75 74 46.4498C74 46.1506 73.8788 45.8595 73.6681 45.6489C73.4555 45.4367 73.1675 45.3174 72.8672 45.317ZM18.7564 51.4712H17.1328C16.5072 51.4712 16 51.9788 16 52.604C16 53.2298 16.5072 53.7368 17.1328 53.7368H18.7564C19.382 53.7368 19.8892 53.2298 19.8892 52.604C19.8892 51.9788 19.382 51.4712 18.7564 51.4712ZM22.873 44.4478C22.873 44.1501 22.7518 43.858 22.5406 43.6473C22.328 43.4355 22.0404 43.3161 21.7402 43.3151C21.4399 43.316 21.152 43.4354 20.9393 43.6473C20.7271 43.8598 20.6078 44.1476 20.6074 44.4479C20.6074 44.746 20.7272 45.0381 20.9393 45.2488C21.1522 45.4605 21.44 45.5797 21.7402 45.5807C22.038 45.5807 22.33 45.4598 22.5406 45.2488C22.7526 45.036 22.8721 44.7482 22.873 44.4479V44.4478Z" fill="white"/>
</svg>
