<svg width="90" height="90" viewBox="0 0 90 90" fill="none" xmlns="http://www.w3.org/2000/svg">
<rect width="90" height="90" rx="15" fill="#FF707A"/>
<path d="M69.1988 54.495C69.3938 54.4042 69.5848 54.305 69.7712 54.1976C71.9996 52.9111 73.3636 50.6054 73.4198 48.03C73.4231 47.8827 73.3858 47.7373 73.3122 47.6097C73.2385 47.4821 73.1313 47.3772 73.0021 47.3063C70.7436 46.0672 68.0648 46.0959 65.8363 47.3823C64.317 48.2595 63.1999 49.6107 62.6248 51.1979V47.8917C62.6248 47.6781 62.5399 47.4732 62.3889 47.3222C62.2378 47.1712 62.033 47.0863 61.8194 47.0863C61.6058 47.0863 61.4009 47.1712 61.2499 47.3222C61.0988 47.4732 61.014 47.6781 61.014 47.8917V53.5153C60.2646 53.1995 59.4725 53.0289 58.6693 53.0128V46.6957C58.6693 41.6009 55.8669 37.1488 51.723 34.7984C52.2568 33.2231 53.7841 30.0447 57.7273 28.3418C57.8995 28.2674 58.0403 28.1352 58.1255 27.9681C58.2106 27.8009 58.2348 27.6092 58.1937 27.4262C58.1526 27.2431 58.0489 27.0801 57.9005 26.9654C57.7521 26.8506 57.5683 26.7912 57.3808 26.7975C57.189 26.804 54.8847 26.8991 52.2334 27.7265C52.7881 26.136 53.7731 24.2392 55.4686 23.2603C55.63 23.1672 55.7542 23.0209 55.8198 22.8464C55.8854 22.6719 55.8884 22.4801 55.8284 22.3036C55.7684 22.1271 55.649 21.9769 55.4906 21.8786C55.3322 21.7803 55.1446 21.74 54.9598 21.7646C54.85 21.7791 52.2401 22.1408 49.6061 23.7904C49.0538 24.1359 48.5295 24.5242 48.038 24.9517C47.4101 19.1631 45.7081 16.9803 45.6291 16.8822C45.5537 16.7882 45.4581 16.7124 45.3494 16.6603C45.2407 16.6082 45.1217 16.5812 45.0012 16.5811C44.8807 16.5811 44.7617 16.6081 44.653 16.6602C44.5443 16.7122 44.4487 16.788 44.3732 16.8819C44.2943 16.9801 42.5922 19.1628 41.9645 24.9516C41.4729 24.524 40.9486 24.1356 40.3962 23.7902C37.7623 22.1405 35.1523 21.7789 35.0425 21.7644C34.6614 21.7133 34.2978 21.9395 34.174 22.3034C34.0502 22.6673 34.2008 23.0681 34.5338 23.2601C36.2291 24.239 37.2142 26.1357 37.7688 27.7263C35.1177 26.899 32.8133 26.8037 32.6215 26.7973C32.2329 26.7823 31.8932 27.0482 31.8085 27.426C31.7674 27.609 31.7916 27.8007 31.8768 27.9679C31.9619 28.135 32.1028 28.2672 32.2751 28.3416C36.2249 30.0474 37.7507 33.2337 38.2821 34.8062C37.9191 35.012 37.5657 35.2341 37.2229 35.472C35.2376 36.8543 33.6697 38.7078 32.6456 40.8691L20.2912 33.7364C20.1062 33.6297 19.8864 33.6009 19.6801 33.6562C19.4738 33.7114 19.2979 33.8464 19.191 34.0313C16.8389 38.1026 16.0424 42.8885 16.949 47.5022C17.6449 51.0409 19.3022 54.2944 21.7056 56.913C19.27 56.5695 17.0173 56.8473 16.6328 58.2824C16.1626 60.037 18.9761 61.6893 21.9163 62.5487C19.232 64.1408 16.8272 66.5291 17.7542 68.1348C17.9985 68.5578 18.5189 68.9951 19.6262 68.9951C19.9541 68.9951 20.3334 68.9568 20.7724 68.8683C21.9889 68.6232 23.4384 68.0383 24.8536 67.2212C25.9414 66.5933 26.9035 65.89 27.6589 65.1861C27.8872 66.4815 28.4088 67.7075 29.1838 68.7704C30.6412 70.7686 32.7989 71.9351 35.2598 72.0552L63.1325 73.4156C63.1797 73.418 63.2265 73.419 63.2732 73.419C64.4847 73.419 65.524 72.6522 65.8286 71.5149C65.926 71.1515 65.9389 70.7835 65.878 70.431C69.5674 69.9651 72.4512 66.2483 72.4512 61.7458C72.4511 58.7997 71.1948 56.0927 69.1988 54.495ZM66.6417 48.7773C68.2326 47.8589 70.1182 47.7633 71.7771 48.496C71.5823 50.2992 70.5568 51.8842 68.9658 52.8028C67.6944 53.5367 66.2349 53.7435 64.8532 53.4236L68.2065 51.4876C68.39 51.38 68.5235 51.2043 68.5778 50.9986C68.6322 50.793 68.603 50.5742 68.4967 50.3901C68.3903 50.2059 68.2155 50.0712 68.0102 50.0155C67.805 49.9598 67.586 49.9875 67.4011 50.0926L64.0477 52.0287C64.4614 50.6719 65.3702 49.5114 66.6417 48.7773ZM47.2243 59.6688C48.9918 58.4241 50.5398 56.8938 51.8048 55.1407L52.8644 56.2003C51.8238 57.7003 51.1963 59.6182 51.1885 61.7067L47.2243 59.6688ZM39.6252 55.7625C37.4724 54.6558 34.9462 54.5933 32.6941 55.5911C31.7071 56.0284 30.8108 56.6471 30.0518 57.4148C29.7006 57.2599 29.3553 57.0916 29.0169 56.9103C28.7488 56.2863 28.4438 55.6788 28.1037 55.0909C26.6296 52.5378 24.41 50.1773 22.786 50.5986C20.594 46.3447 20.576 41.2771 22.7401 37.0104L48.5256 51.8976C47.0234 54.2084 44.9423 56.0323 42.452 57.2157L39.6252 55.7625ZM25.1765 57.7826C25.0181 57.5404 24.8662 57.2941 24.7209 57.0439C23.188 54.389 23.0323 52.5385 23.2246 52.1569C23.6512 52.181 25.176 53.2412 26.7089 55.8962C27.3979 57.0898 27.9027 58.3111 28.1311 59.2992C28.0157 59.2121 27.8977 59.1284 27.7773 59.0483C27.0712 58.5791 26.176 58.1453 25.1765 57.7826ZM45.001 34.6382C45.4635 34.6382 45.9195 34.6652 46.3685 34.7162L45.001 36.0837L43.6353 34.7179C44.0858 34.6652 44.5417 34.6382 45.001 34.6382ZM57.0585 46.6956V48.1413L56.1153 47.198L57.0499 46.2634C57.0551 46.4069 57.0585 46.5508 57.0585 46.6956ZM54.9764 46.0591L51.1276 42.2103L54.3043 39.0336C55.5246 40.5126 56.3993 42.2866 56.8047 44.2307L54.9764 46.0591ZM49.5998 50.6577L46.14 47.1979L49.9886 43.3493L53.8374 47.198L50.093 50.9423L49.5998 50.6577ZM49.9886 41.0713L46.14 37.2227L48.273 35.0896C50.136 35.6155 51.8169 36.5793 53.1982 37.8619L49.9886 41.0713ZM48.8497 42.2102L45.001 46.0588L41.1524 42.2102L45.001 38.3615L48.8497 42.2102ZM44.2101 47.546L38.8889 44.4737L40.0135 43.3493L44.2101 47.546ZM49.9228 52.7042L51.0671 53.3647C49.6602 55.5658 47.7831 57.4369 45.5873 58.8272L44.2062 58.1173C46.5231 56.8043 48.4716 54.9621 49.9228 52.7042ZM53.91 54.9679L52.7094 53.7673C52.7665 53.6722 52.8249 53.5779 52.8804 53.4817C52.9333 53.3901 52.9676 53.289 52.9814 53.1841C52.9952 53.0793 52.9883 52.9727 52.9609 52.8705C52.9335 52.7684 52.8863 52.6726 52.8219 52.5887C52.7575 52.5047 52.6772 52.4343 52.5856 52.3815L51.5371 51.7761L54.9764 48.337L57.0585 50.419V53.1895C55.8827 53.477 54.809 54.0996 53.91 54.9679ZM50.2677 34.0833C49.1679 33.6224 48.0122 33.3086 46.8303 33.1502C48.4626 30.7869 51.3554 29.5954 53.7082 28.9983C51.7245 30.7562 50.7336 32.7925 50.2677 34.0833ZM50.4147 25.1844C50.9974 24.8158 51.5833 24.5178 52.1353 24.2781C51.2355 25.5998 50.6789 27.1141 50.3346 28.4376C48.7548 29.1389 47.1982 30.1392 46.0106 31.5648C46.5219 28.8552 47.9964 26.7147 50.4147 25.1844ZM45.0008 19.07C45.5488 20.3326 46.2939 22.686 46.5585 26.5075C45.9063 27.3419 45.3815 28.2684 45.001 29.2568C44.6207 28.2684 44.0959 27.3419 43.4438 26.5075C43.7083 22.6845 44.4537 20.3311 45.0008 19.07ZM37.8668 24.2781C38.4188 24.5178 39.0047 24.8157 39.5874 25.1844C42.0057 26.7147 43.4801 28.8551 43.9915 31.5646C42.8038 30.1391 41.2473 29.1388 39.6675 28.4374C39.3231 27.1139 38.7666 25.5998 37.8668 24.2781ZM36.2881 28.9928C38.6421 29.588 41.5388 30.7796 43.1737 33.1519C41.9917 33.3109 40.8359 33.626 39.7366 34.0888C39.271 32.7971 38.2784 30.7546 36.2881 28.9928ZM41.7396 35.1003L43.8621 37.2227L40.0135 41.0713L36.8172 37.8751C38.2143 36.5838 39.904 35.6266 41.7396 35.1003ZM35.7096 39.0454L38.8745 42.2103L37.4448 43.64L34.0468 41.6782C34.4846 40.7322 35.0436 39.8472 35.7096 39.0454ZM20.1992 35.5432L21.3438 36.204C18.816 41.1231 18.9171 47.0174 21.6362 51.8589C21.5238 52.3181 21.5113 52.9358 21.6789 53.768C21.7391 54.0613 21.813 54.3517 21.9004 54.6381C17.7693 49.2427 16.9852 41.7465 20.1992 35.5432ZM18.2019 58.7027C18.5207 58.4183 20.3483 58.0895 23.3097 58.8831C26.271 59.6765 27.6895 60.8749 27.8233 61.2808C27.5045 61.5654 25.6767 61.8939 22.7156 61.1003C19.7544 60.3069 18.3357 59.1086 18.2019 58.7027ZM24.0482 65.8261C21.3932 67.359 19.5428 67.5152 19.1611 67.3223C19.1854 66.8958 20.2455 65.371 22.9005 63.8382C23.3825 63.5598 23.8789 63.3071 24.3877 63.0812C24.9899 63.164 25.5678 63.2081 26.1009 63.2081C26.2958 63.2081 26.485 63.2024 26.6673 63.1909C26.9086 63.1764 27.1489 63.1487 27.3872 63.108C26.7535 63.9611 25.5047 64.9852 24.0482 65.8261ZM64.2727 71.098C64.1524 71.5469 63.7259 71.8303 63.2109 71.8067L44.7675 70.9066L45.9069 66.6544C45.9613 66.4483 45.9319 66.2291 45.825 66.0447C45.7181 65.8603 45.5425 65.7258 45.3366 65.6707C45.1308 65.6155 44.9114 65.6442 44.7267 65.7505C44.5419 65.8567 44.4068 66.0318 44.351 66.2375L43.1214 70.8263L35.3381 70.4464C33.3733 70.3504 31.6497 69.4181 30.4851 67.8213C29.2153 66.08 28.817 63.8494 29.3926 61.7014C29.9501 59.6205 31.3913 57.9302 33.3466 57.0638C34.975 56.3423 36.7116 56.3012 38.3021 56.9308L36.4948 63.6755C36.4403 63.8816 36.4698 64.1008 36.5767 64.2852C36.6836 64.4696 36.8592 64.6041 37.065 64.6592C37.2709 64.7144 37.4902 64.6857 37.675 64.5795C37.8597 64.4732 37.9948 64.2981 38.0507 64.0924L39.7766 57.6515L53.3276 64.6175L52.4356 67.9468C52.3811 68.1528 52.4106 68.3721 52.5175 68.5565C52.6243 68.7408 52.7999 68.8753 53.0058 68.9305C53.2117 68.9856 53.431 68.957 53.6158 68.8507C53.8005 68.7445 53.9356 68.5693 53.9915 68.3637L54.7934 65.371L63.7077 69.9535C64.1659 70.1889 64.3931 70.6488 64.2727 71.098ZM65.0948 68.8701C65.0515 68.8701 65.0078 68.8686 64.9642 68.8674C64.8042 68.7329 64.6297 68.6166 64.4439 68.5207L52.8364 62.5537C52.8116 62.2851 52.799 62.0155 52.7986 61.7457C52.7986 57.8172 55.376 54.6213 58.544 54.6213C59.5294 54.6213 60.5023 54.9378 61.3575 55.5367C61.4929 55.6315 61.6542 55.6824 61.8195 55.6824C61.9848 55.6824 62.1461 55.6315 62.2814 55.5367C62.762 55.2001 63.2751 54.9534 63.8093 54.8013C64.5548 55.0534 65.3363 55.1823 66.1233 55.1829C66.4749 55.1825 66.826 55.1564 67.1738 55.1048C69.3761 56.1681 70.8403 58.802 70.8403 61.7456C70.8403 65.6742 68.2629 68.8701 65.0948 68.8701ZM30.5927 50.3758C30.5927 50.5894 30.5079 50.7942 30.3568 50.9453C30.2058 51.0963 30.0009 51.1812 29.7873 51.1812C29.5737 51.1812 29.3689 51.0963 29.2178 50.9453C29.0668 50.7942 28.9819 50.5894 28.9819 50.3758C28.9819 50.1622 29.0668 49.9573 29.2178 49.8063C29.3689 49.6552 29.5737 49.5704 29.7873 49.5704C30.0009 49.5704 30.2058 49.6552 30.3568 49.8063C30.5079 49.9573 30.5927 50.1622 30.5927 50.3758ZM25.8469 46.7442C25.8469 46.85 25.826 46.9547 25.7855 47.0525C25.7451 47.1502 25.6857 47.239 25.611 47.3137C25.5362 47.3885 25.4474 47.4479 25.3497 47.4883C25.252 47.5288 25.1472 47.5496 25.0415 47.5496C24.9357 47.5496 24.831 47.5288 24.7332 47.4883C24.6355 47.4479 24.5467 47.3885 24.472 47.3137C24.3972 47.239 24.3378 47.1502 24.2974 47.0525C24.2569 46.9547 24.2361 46.85 24.2361 46.7442C24.2361 46.5306 24.3209 46.3258 24.472 46.1747C24.623 46.0237 24.8279 45.9388 25.0415 45.9388C25.2551 45.9388 25.4599 46.0237 25.611 46.1747C25.762 46.3258 25.8469 46.5306 25.8469 46.7442ZM24.5957 41.4624C24.3821 41.4624 24.1773 41.3776 24.0262 41.2265C23.8752 41.0755 23.7903 40.8707 23.7903 40.657C23.7903 40.4434 23.8752 40.2386 24.0262 40.0875C24.1773 39.9365 24.3821 39.8516 24.5957 39.8516C24.8093 39.8516 25.0142 39.9365 25.1652 40.0875C25.3163 40.2386 25.4011 40.4434 25.4011 40.657C25.4011 40.8707 25.3163 41.0755 25.1652 41.2265C25.0142 41.3776 24.8093 41.4624 24.5957 41.4624ZM30.9928 44.6888C30.9928 44.9024 30.9079 45.1072 30.7569 45.2583C30.6058 45.4093 30.401 45.4942 30.1874 45.4942C29.9738 45.4942 29.7689 45.4093 29.6179 45.2583C29.4668 45.1072 29.382 44.9024 29.382 44.6888C29.382 44.4751 29.4668 44.2703 29.6179 44.1192C29.7689 43.9682 29.9738 43.8834 30.1874 43.8834C30.401 43.8834 30.6058 43.9682 30.7569 44.1192C30.9079 44.2703 30.9928 44.4751 30.9928 44.6888ZM39.7364 51.4147C39.7364 51.6283 39.6515 51.8332 39.5005 51.9842C39.3495 52.1353 39.1446 52.2201 38.931 52.2201C38.7174 52.2201 38.5125 52.1353 38.3615 51.9842C38.2105 51.8332 38.1256 51.6283 38.1256 51.4147C38.1256 51.2011 38.2105 50.9963 38.3615 50.8452C38.5125 50.6942 38.7174 50.6093 38.931 50.6093C39.1446 50.6093 39.3495 50.6942 39.5005 50.8452C39.6515 50.9963 39.7364 51.2011 39.7364 51.4147ZM43.4016 52.1088C43.4016 51.8952 43.4865 51.6903 43.6375 51.5393C43.7886 51.3882 43.9934 51.3034 44.207 51.3034C44.4206 51.3034 44.6255 51.3882 44.7765 51.5393C44.9276 51.6903 45.0124 51.8952 45.0124 52.1088C45.0124 52.3224 44.9276 52.5272 44.7765 52.6783C44.6255 52.8293 44.4206 52.9142 44.207 52.9142C43.9934 52.9142 43.7886 52.8293 43.6375 52.6783C43.4865 52.5272 43.4016 52.3224 43.4016 52.1088ZM34.9244 48.4194C34.9244 48.633 34.8395 48.8378 34.6885 48.9889C34.5374 49.1399 34.3326 49.2248 34.119 49.2248C33.9054 49.2248 33.7005 49.1399 33.5495 48.9889C33.3984 48.8378 33.3136 48.633 33.3136 48.4194C33.3136 48.2057 33.3984 48.0009 33.5495 47.8499C33.7005 47.6988 33.9054 47.614 34.119 47.614C34.3326 47.614 34.5374 47.6988 34.6885 47.8499C34.8395 48.0009 34.9244 48.2057 34.9244 48.4194Z" fill="white"/>
</svg>
