<svg width="110" height="110" viewBox="0 0 110 110" fill="none" xmlns="http://www.w3.org/2000/svg">
<rect width="110" height="110" rx="15" fill="#3FB536"/>
<path d="M53.6114 45.7344C54.3789 45.7344 55.0011 45.1121 55.0011 44.3446C55.0011 43.5771 54.3789 42.9549 53.6114 42.9549C52.8439 42.9549 52.2217 43.5771 52.2217 44.3446C52.2217 45.1121 52.8439 45.7344 53.6114 45.7344Z" fill="white"/>
<path d="M47.1261 45.7344C47.8936 45.7344 48.5158 45.1121 48.5158 44.3446C48.5158 43.5771 47.8936 42.9549 47.1261 42.9549C46.3585 42.9549 45.7363 43.5771 45.7363 44.3446C45.7363 45.1121 46.3585 45.7344 47.1261 45.7344Z" fill="white"/>
<path d="M35.5446 80.0145H36.4711V80.941C36.4711 81.1867 36.5687 81.4223 36.7425 81.5961C36.9162 81.7698 37.1519 81.8675 37.3976 81.8675C37.6433 81.8675 37.879 81.7698 38.0527 81.5961C38.2265 81.4223 38.3241 81.1867 38.3241 80.941V80.0145H39.2506C39.4963 80.0145 39.732 79.9169 39.9057 79.7431C40.0795 79.5694 40.1771 79.3337 40.1771 79.088C40.1771 78.8423 40.0795 78.6066 39.9057 78.4329C39.732 78.2591 39.4963 78.1615 39.2506 78.1615H38.3241V77.235C38.3241 76.9893 38.2265 76.7537 38.0527 76.5799C37.879 76.4062 37.6433 76.3085 37.3976 76.3085C37.1519 76.3085 36.9162 76.4062 36.7425 76.5799C36.5687 76.7537 36.4711 76.9893 36.4711 77.235V78.1615H35.5446C35.2989 78.1615 35.0633 78.2591 34.8895 78.4329C34.7158 78.6066 34.6182 78.8423 34.6182 79.088C34.6182 79.3337 34.7158 79.5694 34.8895 79.7431C35.0633 79.9169 35.2989 80.0145 35.5446 80.0145ZM50.3684 50.367C50.6141 50.367 50.8498 50.2694 51.0235 50.0956C51.1973 49.9219 51.2949 49.6862 51.2949 49.4405V46.661C51.2949 46.4153 51.1973 46.1796 51.0235 46.0059C50.8498 45.8321 50.6141 45.7345 50.3684 45.7345C50.1227 45.7345 49.887 45.8321 49.7133 46.0059C49.5395 46.1796 49.4419 46.4153 49.4419 46.661V49.4405C49.4419 49.6862 49.5395 49.9219 49.7133 50.0956C49.887 50.2694 50.1227 50.367 50.3684 50.367ZM52.503 51.5538C52.4743 51.5807 51.7748 52.2199 50.3684 52.2199C48.9815 52.2199 48.2829 51.5992 48.2347 51.5556C48.0589 51.3877 47.824 51.2956 47.5809 51.2992C47.3377 51.3029 47.1058 51.402 46.9351 51.5751C46.7643 51.7483 46.6685 51.9817 46.6683 52.2248C46.6681 52.468 46.7635 52.7015 46.9339 52.875C47.0562 52.9982 48.194 54.0729 50.3684 54.0729C52.5429 54.0729 53.6806 52.9982 53.8029 52.875C53.9739 52.7035 54.0704 52.4714 54.0712 52.2292C54.0721 51.987 53.9773 51.7543 53.8075 51.5816C53.6369 51.4073 53.4047 51.3068 53.1608 51.3018C52.9169 51.2968 52.6807 51.3867 52.503 51.5538ZM54.0744 30.9108C55.2127 30.9149 56.3303 31.2166 57.3161 31.7859C58.302 32.3552 59.1218 33.1723 59.6944 34.1562C59.7541 34.2642 59.8348 34.3592 59.9317 34.4356C60.0286 34.512 60.1398 34.5683 60.2588 34.6011C60.3777 34.634 60.502 34.6427 60.6244 34.6268C60.7468 34.611 60.8648 34.5708 60.9714 34.5087C61.078 34.4466 61.1712 34.3639 61.2454 34.2653C61.3197 34.1667 61.3734 34.0543 61.4036 33.9346C61.4338 33.815 61.4398 33.6905 61.4212 33.5685C61.4026 33.4465 61.3598 33.3294 61.2954 33.2242C60.5593 31.9606 59.5057 30.9114 58.239 30.1806C56.9724 29.4497 55.5367 29.0627 54.0744 29.0578C53.8286 29.0578 53.593 29.1554 53.4192 29.3292C53.2455 29.5029 53.1479 29.7386 53.1479 29.9843C53.1479 30.23 53.2455 30.4657 53.4192 30.6394C53.593 30.8132 53.8286 30.9108 54.0744 30.9108Z" fill="white"/>
<path d="M81.8691 60.5585H79.0897V59.632C79.0897 59.3863 78.992 59.1506 78.8183 58.9769C78.6445 58.8031 78.4089 58.7055 78.1632 58.7055H70.7513C70.5056 58.7055 70.2699 58.8031 70.0962 58.9769C69.9224 59.1506 69.8248 59.3863 69.8248 59.632V60.5585H67.9718C66.3273 60.5585 64.9459 61.6415 64.4632 63.1276L58.707 61.6879V55.851C60.3783 53.9578 61.3507 51.5494 61.4623 49.0265C62.6835 48.1714 66.1189 45.3882 66.1189 41.1032V37.3973C66.1189 30.7562 60.7156 25.353 54.0746 25.353H46.6627C40.0216 25.353 34.6184 30.7562 34.6184 37.3973V41.1032C34.6184 45.3891 38.0538 48.1714 39.2749 49.0265C39.384 51.5502 40.3568 53.9598 42.0302 55.8519V61.6888L35.2521 63.3861C28.8695 65.5133 25.3535 69.4444 25.3535 74.4558V83.7206C25.3535 83.9663 25.4511 84.202 25.6249 84.3757C25.7986 84.5495 26.0343 84.6471 26.28 84.6471H80.9426C82.9865 84.6471 84.6486 82.985 84.6486 80.9412V63.3379C84.6486 61.8055 83.4015 60.5585 81.8691 60.5585ZM71.6778 60.5585H77.2367V62.4114H71.6778V60.5585ZM60.6109 73.6182L59.8141 70.4311L61.7811 69.7742C61.9498 69.7177 62.0987 69.6138 62.21 69.475L64.2659 66.9049V80.9402C64.2659 81.6184 64.4623 82.2456 64.781 82.7932H56.4399L60.6109 73.6182ZM63.5673 64.8129L60.9342 68.1047L58.4142 68.945C58.193 69.0188 58.0077 69.1733 57.8954 69.3777C57.7831 69.582 57.752 69.8212 57.8083 70.0475L58.6569 73.4403L54.4053 82.7941H51.6722L58.3781 63.5149L63.5682 64.812L63.5673 64.8129ZM56.854 62.2558L55.9368 64.8926L50.3686 66.9799L44.8004 64.8926L43.8832 62.2558V57.54C45.2572 58.5193 47.4539 59.632 50.3686 59.632C52.7469 59.632 54.9862 58.8982 56.854 57.5465V62.2558ZM50.0434 68.8385C50.1481 68.8774 50.5891 68.8774 50.6938 68.8385L55.1446 67.1689L50.3686 80.9004L45.5926 67.1689L50.0434 68.8385ZM61.4864 46.6214V40.1758C61.4864 40.0044 61.6199 39.7858 61.8246 39.6134C62.1236 39.3761 62.4945 39.2477 62.8762 39.2493C63.1504 39.2493 63.5386 39.316 63.8277 39.6375C64.1149 39.9562 64.2659 40.463 64.2659 41.1023C64.2659 43.5843 62.702 45.5031 61.4864 46.6214ZM46.6627 27.205H54.0746C59.6937 27.205 64.2659 32.0589 64.2659 37.678C64.2659 37.678 63.3765 37.3963 62.8762 37.3963C62.0553 37.3963 61.2641 37.6752 60.6387 38.1885C60.4068 38.3882 60.2069 38.6223 60.0457 38.8824L57.2681 37.4936C57.1542 37.4367 57.0297 37.4038 56.9025 37.3971C56.7753 37.3904 56.6481 37.41 56.5288 37.4547C50.0258 39.8951 47.5901 35.3201 47.4919 35.1283C47.4149 34.9743 47.2966 34.8448 47.1501 34.7543C47.0036 34.6638 46.8348 34.6159 46.6627 34.616C43.2745 34.616 41.2261 36.7358 40.181 38.2747C40.1486 38.245 40.1235 38.2098 40.0893 38.1811C39.4597 37.6695 38.6723 37.3919 37.8611 37.3954C37.3608 37.3954 36.4713 37.6474 36.4713 37.6474C36.4713 32.0283 41.0435 27.2041 46.6627 27.2041V27.205ZM36.4713 41.1023C36.4713 40.463 36.6233 39.9562 36.9096 39.6375C37.1986 39.316 37.5859 39.2493 37.8611 39.2493C38.2483 39.2493 38.6319 39.3827 38.9034 39.606C39.1174 39.7858 39.2508 40.0053 39.2508 40.1758V46.6204C38.0352 45.5022 36.4713 43.5834 36.4713 41.1023ZM41.1038 40.3713C41.4253 39.6746 42.9512 36.7691 46.1642 36.4912C47.1491 37.9152 50.3973 41.5405 56.7947 39.329L59.6335 40.7484V48.5142C59.6375 50.8801 58.7323 53.157 57.1051 54.8745C55.3466 56.7469 52.9544 57.779 50.3686 57.779C46.2124 57.779 43.7581 55.0181 43.6303 54.8726C42.0041 53.1554 41.0997 50.8792 41.1038 48.5142V40.3713ZM42.3601 63.5158L49.066 82.795H46.3328L42.0812 73.4413L42.9299 70.0485C42.9864 69.8222 42.9554 69.5829 42.843 69.3784C42.7307 69.174 42.5453 69.0196 42.3239 68.9459L39.8039 68.1056L37.1708 64.8138L42.361 63.5167L42.3601 63.5158ZM27.2065 74.4558C27.2065 69.1627 32.0353 66.5186 35.2289 65.353L38.5263 69.475C38.6381 69.615 38.788 69.7196 38.958 69.7761L40.924 70.432L40.1272 73.6191L44.2983 82.795H32.7663V77.2361C32.7663 76.9904 32.6687 76.7548 32.495 76.581C32.3212 76.4073 32.0856 76.3097 31.8398 76.3097C31.5941 76.3097 31.3585 76.4073 31.1847 76.581C31.011 76.7548 30.9134 76.9904 30.9134 77.2361V82.795H27.2065V74.4558ZM82.7956 80.9412C82.7956 81.9631 81.9645 82.7941 80.9426 82.7941H67.9718C66.9499 82.7941 66.1189 81.9631 66.1189 80.9412V64.2644C66.1189 63.2425 66.9499 62.4114 67.9718 62.4114H69.8248V63.3379C69.8248 63.5837 69.9224 63.8193 70.0962 63.9931C70.2699 64.1668 70.5056 64.2644 70.7513 64.2644H78.1632C78.4089 64.2644 78.6445 64.1668 78.8183 63.9931C78.992 63.8193 79.0897 63.5837 79.0897 63.3379V62.4114H81.8691C82.3796 62.4114 82.7956 62.8265 82.7956 63.3379V80.9412Z" fill="white"/>
<path d="M80.0158 66.1177H77.2363C75.1925 66.1177 73.5304 67.7798 73.5304 69.8236V69.957C72.6586 69.5596 71.5199 69.3307 70.3377 69.92C69.2788 70.4481 68.5932 71.4978 68.355 72.9561C67.9854 75.2269 68.8146 78.4612 70.095 79.7426C71.6005 81.249 73.3256 80.9627 74.456 80.2595C74.9905 80.5931 75.6585 80.833 76.3738 80.833C77.1696 80.833 78.0238 80.5366 78.8169 79.7426C80.0982 78.4612 80.9275 75.2269 80.5569 72.9561C80.4392 72.2343 80.2104 71.6145 79.8833 71.1077C80.48 70.6723 80.9413 69.9672 80.9413 68.8971V67.0442C80.9413 66.7984 80.8437 66.5628 80.67 66.389C80.4962 66.2153 80.2615 66.1177 80.0158 66.1177ZM77.2363 67.9706H79.0893V68.8971C79.0893 69.5642 78.6817 69.769 78.2981 69.8134C77.216 69.3835 76.1866 69.5911 75.3834 69.957V69.8236C75.3834 68.8017 76.2144 67.9706 77.2363 67.9706ZM77.5078 78.4334C76.4155 79.5248 75.3936 78.7049 75.1119 78.4334C75.0262 78.3479 74.9245 78.2801 74.8126 78.234C74.7007 78.1879 74.5807 78.1644 74.4597 78.1648C74.2243 78.1648 73.9881 78.2537 73.8074 78.4279C73.5193 78.7049 72.4983 79.5258 71.406 78.4334C70.6907 77.7182 69.8624 75.2287 70.1839 73.2553C70.3238 72.3974 70.6537 71.8341 71.1651 71.5784C72.3806 70.9697 73.7639 72.2946 73.8037 72.3325C73.9774 72.5046 74.212 72.6011 74.4564 72.6011C74.7009 72.6011 74.9355 72.5046 75.1091 72.3325C75.123 72.3196 76.5229 70.9641 77.7496 71.5784C78.2601 71.8322 78.5899 72.3965 78.7298 73.2544C79.0513 75.2278 78.223 77.7173 77.5078 78.4334Z" fill="white"/>
<path d="M72.6042 75.3824C73.1159 75.3824 73.5307 74.9676 73.5307 74.4559C73.5307 73.9442 73.1159 73.5294 72.6042 73.5294C72.0925 73.5294 71.6777 73.9442 71.6777 74.4559C71.6777 74.9676 72.0925 75.3824 72.6042 75.3824Z" fill="white"/>
</svg>
