<svg width="110" height="110" viewBox="0 0 110 110" fill="none" xmlns="http://www.w3.org/2000/svg">
<rect width="110" height="110" rx="15" fill="#FF707A"/>
<path d="M51.6094 26.8206C51.503 26.7165 51.4183 26.5924 51.3602 26.4555C51.3021 26.3185 51.2718 26.1713 51.271 26.0225C51.2701 25.8737 51.2988 25.7263 51.3554 25.5886C51.4119 25.451 51.4952 25.326 51.6005 25.2207C51.7057 25.1155 51.8307 25.0322 51.9683 24.9757C52.106 24.9191 52.2534 24.8904 52.4022 24.8912C52.551 24.8921 52.6982 24.9224 52.8352 24.9805C52.9722 25.0386 53.0963 25.1233 53.2003 25.2297L54.4554 26.4846L56.7213 23.6834C56.9089 23.4514 57.181 23.3035 57.4777 23.2722C57.7745 23.2408 58.0715 23.3287 58.3034 23.5163C58.5354 23.704 58.6833 23.9761 58.7146 24.2728C58.746 24.5695 58.6581 24.8665 58.4705 25.0985L55.4184 28.8717C55.3129 29.0021 55.1796 29.1072 55.0283 29.1795C54.8769 29.2517 54.7114 29.2892 54.5437 29.2892C54.2454 29.2892 53.9593 29.1707 53.7483 28.9598L51.6094 26.8206ZM84.9015 50.1141C84.6695 49.9265 84.3725 49.8387 84.0758 49.87C83.7791 49.9014 83.507 50.0493 83.3194 50.2812L81.0533 53.0824L79.7982 51.8275C79.6942 51.7211 79.5701 51.6364 79.4331 51.5783C79.2961 51.5202 79.149 51.4899 79.0002 51.4891C78.8514 51.4882 78.7039 51.5169 78.5663 51.5735C78.4287 51.63 78.3036 51.7133 78.1984 51.8186C78.0932 51.9238 78.0099 52.0488 77.9533 52.1864C77.8968 52.3241 77.8681 52.4715 77.8689 52.6203C77.8697 52.7691 77.9001 52.9163 77.9582 53.0533C78.0163 53.1903 78.101 53.3144 78.2074 53.4184L80.3463 55.5574C80.4578 55.6689 80.5915 55.7557 80.7387 55.8122C80.886 55.8687 81.0434 55.8936 81.2009 55.8853C81.3584 55.877 81.5123 55.8357 81.6528 55.764C81.7933 55.6924 81.9171 55.592 82.0163 55.4694L85.0686 51.6962C85.1615 51.5813 85.2309 51.4493 85.2728 51.3076C85.3147 51.166 85.3282 51.0174 85.3127 50.8705C85.2972 50.7236 85.2529 50.5812 85.1824 50.4514C85.1118 50.3216 85.0164 50.207 84.9015 50.1141ZM88.8759 47.9967V57.7541C88.8759 59.0767 87.7998 60.1529 86.4771 60.1529H81.7549C80.0223 66.5509 76.0855 72.0671 70.5687 75.814V87.6204C70.5687 89.4839 69.0525 91 67.189 91H43.2272C41.3636 91 39.8474 89.4839 39.8474 87.6204V76.0907C34.1898 72.3869 30.0142 66.6449 28.2465 60.1529H23.5238C22.2011 60.1529 21.125 59.0769 21.125 57.7541V47.9967C21.125 46.674 22.2011 45.598 23.5238 45.598H28.2448C29.5061 40.9502 31.9672 36.7045 35.3984 33.2733C38.8297 29.8422 43.0753 27.3813 47.7231 26.1198V21.3988C47.7231 20.0761 48.799 19 50.1217 19H59.8791C61.2019 19 62.2779 20.0761 62.2779 21.3988V26.1198C66.9257 27.3811 71.1713 29.842 74.6026 33.2734C78.0337 36.7045 80.4946 40.9503 81.756 45.5981H86.4771C87.7998 45.598 88.8759 46.674 88.8759 47.9967ZM49.9731 31.1562C49.9731 31.2354 50.0426 31.305 50.1219 31.305H59.8793C59.9585 31.305 60.0281 31.2355 60.0281 31.1562V21.3988C60.0281 21.3196 59.9586 21.25 59.8793 21.25H50.1219C50.0427 21.25 49.9731 21.3195 49.9731 21.3988V31.1562ZM23.5238 57.9029H33.2812C33.3604 57.9029 33.43 57.8335 33.43 57.7541V47.9967C33.43 47.9176 33.3605 47.848 33.2812 47.848H23.5238C23.4446 47.848 23.375 47.9174 23.375 47.9967V57.7541C23.375 57.8333 23.4446 57.9029 23.5238 57.9029ZM68.3187 40.0585C68.3187 39.4355 67.8119 38.9287 67.189 38.9287H64.0446L63.2084 41.502C63.135 41.7279 62.992 41.9248 62.7998 42.0645C62.6076 42.2041 62.3761 42.2793 62.1386 42.2793H48.2774C48.0399 42.2794 47.8084 42.2042 47.6162 42.0645C47.424 41.9249 47.2809 41.7279 47.2076 41.502L46.3714 38.9287H43.2272C42.6042 38.9287 42.0974 39.4355 42.0974 40.0585V87.6204C42.0974 88.2433 42.6042 88.75 43.2272 88.75H67.189C67.8119 88.75 68.3187 88.2432 68.3187 87.6204V40.0585ZM49.0949 40.0293H61.3212L61.6789 38.9287H48.7371L49.0949 40.0293ZM79.4164 60.1529H76.7197C75.397 60.1529 74.3209 59.0769 74.3209 57.7541V47.9967C74.3209 46.674 75.397 45.598 76.7197 45.598H79.4126C76.9714 37.4279 70.4475 30.9042 62.2778 28.4631V31.1562C62.2778 32.4789 61.2017 33.555 59.879 33.555H50.1216C48.7989 33.555 47.7228 32.4789 47.7228 31.1562V28.4632C39.5529 30.9045 33.029 37.4283 30.5879 45.5981H33.281C34.6038 45.5981 35.6798 46.6742 35.6798 47.9969V57.7543C35.6798 59.0769 34.6038 60.1531 33.281 60.1531H30.5861C32.1542 65.397 35.4389 70.069 39.8474 73.3466V40.0585C39.8474 38.1949 41.3636 36.6787 43.2272 36.6787H67.189C69.0525 36.6787 70.5687 38.1947 70.5687 40.0585V73.036C74.8142 69.7627 77.8946 65.2831 79.4164 60.1529ZM86.6259 47.9967C86.6259 47.9176 86.5564 47.848 86.4771 47.848H76.7197C76.6405 47.848 76.5709 47.9174 76.5709 47.9967V57.7541C76.5709 57.8333 76.6404 57.9029 76.7197 57.9029H86.4771C86.5563 57.9029 86.6259 57.8335 86.6259 57.7541V47.9967ZM31.7056 50.1141C31.4736 49.9265 31.1766 49.8387 30.8799 49.87C30.5832 49.9014 30.3111 50.0493 30.1235 50.2812L27.8574 53.0824L26.6025 51.8275C26.4985 51.7211 26.3744 51.6364 26.2374 51.5783C26.1004 51.5202 25.9532 51.4899 25.8044 51.4891C25.6556 51.4882 25.5082 51.5169 25.3705 51.5735C25.2329 51.63 25.1079 51.7133 25.0026 51.8186C24.8974 51.9238 24.8141 52.0488 24.7576 52.1864C24.701 52.3241 24.6723 52.4715 24.6732 52.6203C24.674 52.7691 24.7043 52.9163 24.7624 53.0533C24.8205 53.1903 24.9052 53.3144 25.0116 53.4184L27.1505 55.5573C27.262 55.6689 27.3957 55.7557 27.5429 55.8123C27.6901 55.8688 27.8476 55.8937 28.0051 55.8854C28.1626 55.8771 28.3166 55.8358 28.4571 55.7642C28.5976 55.6925 28.7214 55.5921 28.8206 55.4694L31.8728 51.6962C32.0604 51.4642 32.1482 51.1672 32.1168 50.8705C32.0855 50.5738 31.9376 50.3018 31.7056 50.1141ZM58.4119 83.5211C58.4119 85.2877 56.9747 86.7247 55.2081 86.7247C53.4416 86.7247 52.0046 85.2875 52.0046 83.5211C52.0046 81.7545 53.4417 80.3174 55.2081 80.3174C56.9747 80.3174 58.4119 81.7546 58.4119 83.5211ZM56.1619 83.5211C56.1619 82.9952 55.7341 82.5674 55.2081 82.5674C54.6822 82.5674 54.2546 82.9952 54.2546 83.5211C54.2546 84.0469 54.6823 84.4747 55.2081 84.4747C55.7339 84.4747 56.1619 84.0471 56.1619 83.5211ZM66.6072 62.4489V65.2298C66.6072 65.4571 66.5383 65.6791 66.4096 65.8665C66.281 66.054 66.0985 66.198 65.8864 66.2797L64.7159 66.7302C64.528 67.3487 64.2798 67.9473 63.9748 68.5173L64.4843 69.6644C64.5766 69.8721 64.6038 70.103 64.5623 70.3265C64.5207 70.55 64.4125 70.7557 64.2517 70.9165L62.2854 72.8827C62.1246 73.0435 61.9189 73.1517 61.6954 73.1933C61.4719 73.2348 61.241 73.2076 61.0332 73.1153L59.8867 72.6061C59.3165 72.9112 58.7177 73.1595 58.0988 73.3473L57.6485 74.5172C57.5669 74.7294 57.4229 74.9119 57.2354 75.0406C57.048 75.1693 56.826 75.2382 56.5986 75.2382H53.8178C53.5904 75.2382 53.3684 75.1693 53.181 75.0406C52.9936 74.912 52.8495 74.7295 52.7679 74.5173L52.3173 73.3471C51.6987 73.1591 51.1001 72.9109 50.5301 72.606L49.383 73.1153C49.1753 73.2076 48.9444 73.2348 48.7209 73.1933C48.4974 73.1518 48.2918 73.0435 48.131 72.8827L46.1647 70.9165C46.0039 70.7557 45.8957 70.55 45.8542 70.3265C45.8126 70.103 45.8398 69.8721 45.9321 69.6644L46.4413 68.5179C46.1362 67.9476 45.888 67.3488 45.7001 66.73L44.5301 66.2797C44.3179 66.198 44.1354 66.054 44.0067 65.8666C43.878 65.6791 43.8092 65.4571 43.8092 65.2298V62.4489C43.8092 62.2216 43.8781 61.9996 44.0068 61.8121C44.1355 61.6247 44.3179 61.4807 44.5301 61.399L45.7002 60.9486C45.8881 60.33 46.1363 59.7313 46.4413 59.1612L45.9319 58.0144C45.8396 57.8067 45.8124 57.5759 45.854 57.3524C45.8955 57.1288 46.0038 56.9232 46.1645 56.7625L48.1309 54.796C48.2916 54.6352 48.4973 54.5269 48.7209 54.4853C48.9444 54.4438 49.1753 54.471 49.383 54.5634L50.5301 55.0728C51.1001 54.7679 51.6987 54.5197 52.3173 54.3319L52.7679 53.1615C52.8496 52.9493 52.9936 52.7669 53.181 52.6382C53.3684 52.5095 53.5904 52.4406 53.8178 52.4406H56.5985C56.8258 52.4406 57.0479 52.5095 57.2353 52.6382C57.4227 52.7669 57.5667 52.9493 57.6484 53.1615L58.099 54.3319C58.7175 54.5197 59.3161 54.7679 59.886 55.0728L61.0331 54.5634C61.2409 54.4711 61.4717 54.4439 61.6952 54.4854C61.9188 54.5269 62.1245 54.6352 62.2852 54.796L64.2516 56.7622C64.4124 56.9229 64.5207 57.1286 64.5622 57.3521C64.6037 57.5756 64.5766 57.8065 64.4843 58.0143L63.9751 59.1608C64.2801 59.731 64.5284 60.3298 64.7164 60.9486L65.8864 61.399C66.0985 61.4807 66.281 61.6247 66.4096 61.8121C66.5383 61.9996 66.6072 62.2216 66.6072 62.4489ZM64.3572 63.2214L63.3759 62.8435C63.2054 62.7779 63.0534 62.6717 62.9331 62.5341C62.8129 62.3966 62.7279 62.2318 62.6856 62.054C62.4974 61.2632 62.1842 60.5075 61.7576 59.8156C61.6617 59.66 61.6052 59.4833 61.593 59.301C61.5807 59.1186 61.6131 58.9361 61.6873 58.769L62.1145 57.807L61.2405 56.933L60.2779 57.3605C60.1109 57.4347 59.9283 57.467 59.746 57.4548C59.5637 57.4426 59.3871 57.3861 59.2314 57.2904C58.5396 56.8638 57.784 56.5505 56.9934 56.3622C56.8156 56.32 56.6508 56.235 56.5133 56.1148C56.3757 55.9945 56.2695 55.8426 56.2039 55.672L55.826 54.6903H54.5901L54.2121 55.672C54.1465 55.8426 54.0403 55.9945 53.9027 56.1148C53.7652 56.235 53.6004 56.32 53.4226 56.3622C52.6319 56.5505 51.8764 56.8638 51.1846 57.2904C51.0289 57.3862 50.8523 57.4426 50.67 57.4549C50.4876 57.4671 50.3051 57.4347 50.138 57.3605L49.1756 56.933L48.3016 57.807L48.729 58.7693C48.8032 58.9363 48.8355 59.1189 48.8233 59.3012C48.8111 59.4835 48.7546 59.6601 48.6588 59.8157C48.2323 60.5077 47.919 61.2633 47.7308 62.054C47.6885 62.2318 47.6036 62.3966 47.4833 62.5341C47.363 62.6717 47.211 62.7779 47.0405 62.8435L46.0591 63.2214V64.4573L47.0404 64.8352C47.2109 64.9008 47.3629 65.007 47.4831 65.1445C47.6034 65.2821 47.6884 65.4469 47.7307 65.6246C47.9188 66.4155 48.2322 67.1713 48.6588 67.8632C48.7546 68.0189 48.8111 68.1955 48.8233 68.3778C48.8355 68.5602 48.8032 68.7428 48.729 68.9098L48.3018 69.8718L49.1757 70.7456L50.1383 70.3183C50.3053 70.2441 50.4879 70.2118 50.6702 70.224C50.8525 70.2362 51.0291 70.2927 51.1847 70.3885C51.8765 70.8151 52.6321 71.1284 53.4228 71.3166C53.6005 71.3588 53.7653 71.4437 53.9029 71.564C54.0404 71.6843 54.1466 71.8362 54.2122 72.0068L54.5901 72.9883H55.826L56.2038 72.007C56.2694 71.8365 56.3756 71.6845 56.5132 71.5642C56.6507 71.4439 56.8156 71.359 56.9934 71.3167C57.7842 71.1285 58.54 70.8152 59.232 70.3886C59.3876 70.2927 59.5642 70.2361 59.7465 70.2239C59.9289 70.2116 60.1115 70.244 60.2785 70.3183L61.2404 70.7455L62.1144 69.8717L61.6869 68.9091C61.6127 68.7421 61.5803 68.5595 61.5925 68.3772C61.6048 68.1949 61.6612 68.0183 61.757 67.8627C62.1835 67.1708 62.4969 66.4152 62.6852 65.6245C62.7275 65.4468 62.8124 65.282 62.9327 65.1445C63.053 65.0069 63.205 64.9008 63.3755 64.8352L64.3571 64.4572L64.3572 63.2214ZM61.6069 63.8393C61.6069 67.3675 58.7364 70.238 55.2083 70.238C51.6801 70.238 48.8097 67.3675 48.8097 63.8393C48.8097 60.3111 51.6801 57.4407 55.2083 57.4407C58.7364 57.4407 61.6069 60.3113 61.6069 63.8393ZM59.3569 63.8393C59.3569 61.5517 57.4958 59.6907 55.2083 59.6907C52.9207 59.6907 51.0597 61.5517 51.0597 63.8393C51.0597 66.127 52.9207 67.988 55.2083 67.988C57.4958 67.988 59.3569 66.127 59.3569 63.8393Z" fill="white"/>
</svg>
